<?xml version="1.0" encoding="UTF-8"?>

<svg xmlns="http://www.w3.org/2000/svg" version="1.1"
	width="420mm"
	height="297mm"
	viewBox="0 0 420 297">
<!-- Working space 0 0 420 297 -->
<g id="Ortho_-1_1"
   transform="rotate(60,76.7047,108.203) translate(76.7047,108.203) scale(5,5)"
  >
<g   stroke="rgb(0, 0, 0)"
   stroke-width="0.07"
   stroke-linecap="butt"
   stroke-linejoin="miter"
   fill="none"
   transform="scale(1,-1)"
  >
<path id= "1" d=" M -7.07107 4.08248 L -9.19239 5.30723 " />
<path id= "2" d=" M -9.19239 5.30723 L -9.19239 15.9217 " />
<path id= "3" d=" M 7.07107 4.08248 L 9.19239 5.30723 " />
<path id= "4" d=" M 9.19239 5.30723 L 0 10.6145 " />
<path id= "5" d=" M -9.19239 5.30723 L 0 10.6145 " />
<path id= "6" d=" M -7.07107 4.08248 L 0 8.16497 " />
<path id= "7" d=" M 7.07107 4.08248 L 0 8.16497 " />
<path id= "8" d=" M -9.19239 15.9217 L 0 21.2289 " />
<path id= "9" d=" M 0 10.6145 L 0 21.2289 " />
<path id= "10" d=" M 9.19239 15.9217 L 0 21.2289 " />
<path id= "11" d=" M 9.19239 5.30723 L 9.19239 15.9217 " />
<path id= "12" d=" M 0 0 L -6.36396 3.67423 " />
<path id= "13" d=" M -6.36396 3.67423 L -6.36396 4.49073 " />
<path id= "14" d=" M 6.36396 3.67423 L 0 7.34847 " />
<path id= "15" d=" M 0 7.34847 L 0 8.16497 " />
<path id= "16" d=" M 0 10.6145 L 0 14.6969 " />
<path id= "17" d=" M 6.36396 3.67423 L 6.36396 4.49073 " />
<path id= "18" d=" M 0 0 L 6.36396 3.67423 " />
<path id= "19" d=" M -6.36396 3.67423 L 0 7.34847 " />
</g>
</g>



<g id="Ortho_-1_002"
   transform="rotate(60,68.1802,218.371) translate(68.1802,218.371) scale(5,5)"
  >
<g   stroke="rgb(0, 0, 0)"
   stroke-width="0.07"
   stroke-linecap="butt"
   stroke-linejoin="miter"
   fill="none"
   transform="scale(1,-1)"
  >
<path id= "1" d=" M 0 0 L -6.36396 3.67423 " />
<path id= "2" d=" M -6.36396 3.67423 L -6.36396 11.0227 " />
<path id= "3" d=" M 6.36396 3.67423 L 0 7.34847 " />
<path id= "4" d=" M 0 7.34847 L 0 14.6969 " />
<path id= "5" d=" M 6.36396 11.0227 L 0 14.6969 " />
<path id= "6" d=" M 6.36396 3.67423 L 6.36396 11.0227 " />
<path id= "7" d=" M 0 0 L 6.36396 3.67423 " />
<path id= "8" d=" M -6.36396 3.67423 L 0 7.34847 " />
<path id= "9" d=" M -6.36396 11.0227 L 0 14.6969 " />
</g>
</g>



<g id="Ortho_-1_1"
   transform="rotate(60,204.038,176.536) translate(204.038,176.536) scale(5,5)"
  >
<g   stroke="rgb(0, 0, 0)"
   stroke-width="0.03"
   stroke-linecap="butt"
   stroke-linejoin="miter"
   stroke-dasharray="0.2,0.1"
   fill="none"
   transform="scale(1,-1)"
  >
<path id= "1" d=" M 0 10.6145 L -9.19239 15.9217 " />
<path id= "2" d=" M 0 8.16497 L 0 10.6145 " />
<path id= "3" d=" M 0 8.16497 L -7.07107 12.2474 " />
<path id= "4" d=" M -7.07107 4.08248 L -7.07107 12.2474 " />
<path id= "5" d=" M 0 10.6145 L 9.19239 15.9217 " />
<path id= "6" d=" M 7.07107 4.08248 L 7.07107 12.2474 " />
<path id= "7" d=" M 0 8.16497 L 7.07107 12.2474 " />
<path id= "8" d=" M 7.07107 12.2474 L 0 16.3299 " />
<path id= "9" d=" M -7.07107 12.2474 L 0 16.3299 " />
<path id= "10" d=" M 0 8.16497 L 0 16.3299 " />
</g>
<g   stroke="rgb(0, 0, 0)"
   stroke-width="0.07"
   stroke-linecap="butt"
   stroke-linejoin="miter"
   fill="none"
   transform="scale(1,-1)"
  >
<path id= "1" d=" M -7.07107 4.08248 L -9.19239 5.30723 " />
<path id= "2" d=" M -9.19239 5.30723 L -9.19239 15.9217 " />
<path id= "3" d=" M 7.07107 4.08248 L 9.19239 5.30723 " />
<path id= "4" d=" M 9.19239 5.30723 L 0 10.6145 " />
<path id= "5" d=" M -9.19239 5.30723 L 0 10.6145 " />
<path id= "6" d=" M -7.07107 4.08248 L 0 8.16497 " />
<path id= "7" d=" M 7.07107 4.08248 L 0 8.16497 " />
<path id= "8" d=" M -9.19239 15.9217 L 0 21.2289 " />
<path id= "9" d=" M 0 10.6145 L 0 21.2289 " />
<path id= "10" d=" M 9.19239 15.9217 L 0 21.2289 " />
<path id= "11" d=" M 9.19239 5.30723 L 9.19239 15.9217 " />
</g>
</g>



</svg>

