<?xml version="1.0" encoding="UTF-8" standalone="no"?>
<!-- Created with Inkscape (http://www.inkscape.org/) -->

<svg
   xmlns:dc="http://purl.org/dc/elements/1.1/"
   xmlns:cc="http://creativecommons.org/ns#"
   xmlns:rdf="http://www.w3.org/1999/02/22-rdf-syntax-ns#"
   xmlns:svg="http://www.w3.org/2000/svg"
   xmlns="http://www.w3.org/2000/svg"
   xmlns:xlink="http://www.w3.org/1999/xlink"
   xmlns:sodipodi="http://sodipodi.sourceforge.net/DTD/sodipodi-0.dtd"
   xmlns:inkscape="http://www.inkscape.org/namespaces/inkscape"
   width="796.52374"
   height="421.24832"
   id="svg2"
   version="1.1"
   inkscape:version="0.91 r13725"
   sodipodi:docname="periodic_2D.svg">
  <sodipodi:namedview
     id="base"
     pagecolor="#ffffff"
     bordercolor="#666666"
     borderopacity="1.0"
     inkscape:pageopacity="0.0"
     inkscape:pageshadow="2"
     inkscape:zoom="1.0269625"
     inkscape:cx="398.26186"
     inkscape:cy="210.62416"
     inkscape:document-units="px"
     inkscape:current-layer="layer1"
     showgrid="false"
     inkscape:window-width="1280"
     inkscape:window-height="997"
     inkscape:window-x="1271"
     inkscape:window-y="-9"
     inkscape:window-maximized="1"
     fit-margin-top="0"
     fit-margin-left="0"
     fit-margin-right="0"
     fit-margin-bottom="0" />
  <defs
     id="defs4">
    <marker
       inkscape:stockid="Arrow2Lstart"
       orient="auto"
       refY="0"
       refX="0"
       id="Arrow2Lstart"
       style="overflow:visible">
      <path
         id="path5010"
         style="font-size:12px;fill-rule:evenodd;stroke-width:0.625;stroke-linejoin:round"
         d="M 8.7185878,4.0337352 -2.2072895,0.01601326 8.7185884,-4.0017078 c -1.7454984,2.3720609 -1.7354408,5.6174519 -6e-7,8.035443 z"
         transform="matrix(1.1,0,0,1.1,1.1,0)"
         inkscape:connector-curvature="0" />
    </marker>
    <marker
       inkscape:stockid="Arrow1Lstart"
       orient="auto"
       refY="0"
       refX="0"
       id="Arrow1Lstart"
       style="overflow:visible">
      <path
         id="path4992"
         d="M 0,0 5,-5 -12.5,0 5,5 0,0 z"
         style="fill-rule:evenodd;stroke:#000000;stroke-width:1pt;marker-start:none"
         transform="matrix(0.8,0,0,0.8,10,0)"
         inkscape:connector-curvature="0" />
    </marker>
    <marker
       inkscape:stockid="Arrow2Lend"
       orient="auto"
       refY="0"
       refX="0"
       id="Arrow2Lend"
       style="overflow:visible">
      <path
         id="path5013"
         style="font-size:12px;fill-rule:evenodd;stroke-width:0.625;stroke-linejoin:round"
         d="M 8.7185878,4.0337352 -2.2072895,0.01601326 8.7185884,-4.0017078 c -1.7454984,2.3720609 -1.7354408,5.6174519 -6e-7,8.035443 z"
         transform="matrix(-1.1,0,0,-1.1,-1.1,0)"
         inkscape:connector-curvature="0" />
    </marker>
    <marker
       inkscape:stockid="Arrow2Mend"
       orient="auto"
       refY="0"
       refX="0"
       id="Arrow2Mend"
       style="overflow:visible">
      <path
         id="path5557"
         style="font-size:12px;fill-rule:evenodd;stroke-width:0.625;stroke-linejoin:round"
         d="M 8.7185878,4.0337352 -2.2072895,0.01601326 8.7185884,-4.0017078 c -1.7454984,2.3720609 -1.7354408,5.6174519 -6e-7,8.035443 z"
         transform="scale(-0.6,-0.6)"
         inkscape:connector-curvature="0" />
    </marker>
    <marker
       inkscape:stockid="Arrow2Mstart"
       orient="auto"
       refY="0"
       refX="0"
       id="Arrow2Mstart"
       style="overflow:visible">
      <path
         id="path5554"
         style="font-size:12px;fill-rule:evenodd;stroke-width:0.625;stroke-linejoin:round"
         d="M 8.7185878,4.0337352 -2.2072895,0.01601326 8.7185884,-4.0017078 c -1.7454984,2.3720609 -1.7354408,5.6174519 -6e-7,8.035443 z"
         transform="scale(0.6,0.6)"
         inkscape:connector-curvature="0" />
    </marker>
    <marker
       inkscape:stockid="Arrow1Mstart"
       orient="auto"
       refY="0"
       refX="0"
       id="Arrow1Mstart"
       style="overflow:visible">
      <path
         id="path5536"
         d="M 0,0 5,-5 -12.5,0 5,5 0,0 z"
         style="fill-rule:evenodd;stroke:#000000;stroke-width:1pt;marker-start:none"
         transform="matrix(0.4,0,0,0.4,4,0)"
         inkscape:connector-curvature="0" />
    </marker>
    <marker
       inkscape:stockid="Arrow1Mend"
       orient="auto"
       refY="0"
       refX="0"
       id="Arrow1Mend"
       style="overflow:visible">
      <path
         id="path5539"
         d="M 0,0 5,-5 -12.5,0 5,5 0,0 z"
         style="fill-rule:evenodd;stroke:#000000;stroke-width:1pt;marker-start:none"
         transform="matrix(-0.4,0,0,-0.4,-4,0)"
         inkscape:connector-curvature="0" />
    </marker>
    <pattern
       patternTransform="matrix(1.5817917,-1.5066526,35.483063,37.252659,32.324877,595.99)"
       id="pattern5210"
       xlink:href="#Strips1_3"
       inkscape:collect="always" />
    <pattern
       inkscape:collect="always"
       patternUnits="userSpaceOnUse"
       width="4"
       height="1"
       patternTransform="translate(0,0) scale(10,10)"
       id="Strips1_3"
       inkscape:stockid="Stripes 1:3">
      <rect
         style="fill:black;stroke:none"
         x="0"
         y="-0.5"
         width="1"
         height="2"
         id="rect4503" />
    </pattern>
    <marker
       inkscape:stockid="Arrow2Mstart"
       orient="auto"
       refY="0"
       refX="0"
       id="Arrow2Mstart-0"
       style="overflow:visible">
      <path
         inkscape:connector-curvature="0"
         id="path5554-1"
         style="font-size:12px;fill-rule:evenodd;stroke-width:0.625;stroke-linejoin:round"
         d="M 8.7185878,4.0337352 -2.2072895,0.01601326 8.7185884,-4.0017078 c -1.7454984,2.3720609 -1.7354408,5.6174519 -6e-7,8.035443 z"
         transform="scale(0.6,0.6)" />
    </marker>
    <marker
       inkscape:stockid="Arrow2Mend"
       orient="auto"
       refY="0"
       refX="0"
       id="Arrow2Mend-6"
       style="overflow:visible">
      <path
         inkscape:connector-curvature="0"
         id="path5557-5"
         style="font-size:12px;fill-rule:evenodd;stroke-width:0.625;stroke-linejoin:round"
         d="M 8.7185878,4.0337352 -2.2072895,0.01601326 8.7185884,-4.0017078 c -1.7454984,2.3720609 -1.7354408,5.6174519 -6e-7,8.035443 z"
         transform="scale(-0.6,-0.6)" />
    </marker>
    <marker
       inkscape:stockid="Arrow2Mstart"
       orient="auto"
       refY="0"
       refX="0"
       id="Arrow2Mstart-3"
       style="overflow:visible">
      <path
         inkscape:connector-curvature="0"
         id="path5554-7"
         style="font-size:12px;fill-rule:evenodd;stroke-width:0.625;stroke-linejoin:round"
         d="M 8.7185878,4.0337352 -2.2072895,0.01601326 8.7185884,-4.0017078 c -1.7454984,2.3720609 -1.7354408,5.6174519 -6e-7,8.035443 z"
         transform="scale(0.6,0.6)" />
    </marker>
    <marker
       inkscape:stockid="Arrow2Mend"
       orient="auto"
       refY="0"
       refX="0"
       id="Arrow2Mend-8"
       style="overflow:visible">
      <path
         inkscape:connector-curvature="0"
         id="path5557-7"
         style="font-size:12px;fill-rule:evenodd;stroke-width:0.625;stroke-linejoin:round"
         d="M 8.7185878,4.0337352 -2.2072895,0.01601326 8.7185884,-4.0017078 c -1.7454984,2.3720609 -1.7354408,5.6174519 -6e-7,8.035443 z"
         transform="scale(-0.6,-0.6)" />
    </marker>
    <marker
       inkscape:stockid="Arrow2Lstart"
       orient="auto"
       refY="0"
       refX="0"
       id="Arrow2Lstart-9"
       style="overflow:visible">
      <path
         inkscape:connector-curvature="0"
         id="path5010-1"
         style="font-size:12px;fill-rule:evenodd;stroke-width:0.625;stroke-linejoin:round"
         d="M 8.7185878,4.0337352 -2.2072895,0.01601326 8.7185884,-4.0017078 c -1.7454984,2.3720609 -1.7354408,5.6174519 -6e-7,8.035443 z"
         transform="matrix(1.1,0,0,1.1,1.1,0)" />
    </marker>
    <marker
       inkscape:stockid="Arrow2Lend"
       orient="auto"
       refY="0"
       refX="0"
       id="Arrow2Lend-0"
       style="overflow:visible">
      <path
         inkscape:connector-curvature="0"
         id="path5013-2"
         style="font-size:12px;fill-rule:evenodd;stroke-width:0.625;stroke-linejoin:round"
         d="M 8.7185878,4.0337352 -2.2072895,0.01601326 8.7185884,-4.0017078 c -1.7454984,2.3720609 -1.7354408,5.6174519 -6e-7,8.035443 z"
         transform="matrix(-1.1,0,0,-1.1,-1.1,0)" />
    </marker>
    <defs
       id="defs3776-7">
      <path
         inkscape:connector-curvature="0"
         id="equation_03_00-4"
         d="m 3.74,-0.77 c 0,0.31 0,0.77 1.04,0.77 H 5.26 C 5.46,0 5.58,0 5.58,-0.24 5.58,-0.47 5.45,-0.47 5.32,-0.47 4.71,-0.48 4.71,-0.61 4.71,-0.84 v -2.15 c 0,-0.89 -0.71,-1.54 -2.2,-1.54 -0.57,0 -1.79,0.04 -1.79,0.92 0,0.44 0.35,0.63 0.62,0.63 0.31,0 0.63,-0.21 0.63,-0.63 0,-0.3 -0.19,-0.47 -0.22,-0.49 0.28,-0.06 0.6,-0.07 0.72,-0.07 0.75,0 1.1,0.42 1.1,1.18 v 0.34 c -0.71,0.03 -3.25,0.12 -3.25,1.57 0,0.96 1.24,1.14 1.93,1.14 0.8,0 1.27,-0.41 1.49,-0.83 z M 3.57,-2.34 v 0.95 c 0,0.96 -0.92,1.09 -1.17,1.09 -0.51,0 -0.91,-0.35 -0.91,-0.79 0,-1.08 1.58,-1.22 2.08,-1.25 z" />
    </defs>
  </defs>
  <metadata
     id="metadata7">
    <rdf:RDF>
      <cc:Work
         rdf:about="">
        <dc:format>image/svg+xml</dc:format>
        <dc:type
           rdf:resource="http://purl.org/dc/dcmitype/StillImage" />
        <dc:title />
      </cc:Work>
    </rdf:RDF>
  </metadata>
  <g
     id="layer1"
     inkscape:groupmode="layer"
     inkscape:label="Capa 1"
     transform="translate(414.9057,-671.77183)">
    <g
       id="g5425"
       transform="matrix(0.9813654,0,0,0.9813654,-60.594026,40.276222)">
      <rect
         style="opacity:0.33632286;fill:url(#pattern5210);fill-opacity:1;stroke:none"
         id="rect2996"
         width="282.84271"
         height="242.4366"
         x="122.22846"
         y="745.27576"
         ry="0" />
      <path
         style="fill:none;stroke:#000000;stroke-width:2;stroke-linecap:butt;stroke-linejoin:miter;stroke-miterlimit:4;stroke-opacity:1;stroke-dasharray:4, 2;stroke-dashoffset:0"
         d="m 117.17769,761.43825 294.96455,0"
         id="path5212"
         inkscape:connector-curvature="0" />
      <path
         style="fill:none;stroke:#000000;stroke-width:2;stroke-linecap:butt;stroke-linejoin:miter;stroke-miterlimit:4;stroke-opacity:1;stroke-dasharray:4, 2;stroke-dashoffset:0"
         d="m 117.17769,831.8122 294.96455,0"
         id="path5212-6"
         inkscape:connector-curvature="0" />
      <path
         style="fill:none;stroke:#000000;stroke-width:2;stroke-linecap:butt;stroke-linejoin:miter;stroke-miterlimit:4;stroke-opacity:1;stroke-dasharray:4, 2;stroke-dashoffset:0"
         d="m 117.17769,902.18618 294.96455,0"
         id="path5212-5"
         inkscape:connector-curvature="0" />
      <path
         style="fill:none;stroke:#000000;stroke-width:2;stroke-linecap:butt;stroke-linejoin:miter;stroke-miterlimit:4;stroke-opacity:1;stroke-dasharray:4, 2;stroke-dashoffset:0"
         d="m 117.17769,972.56013 294.96455,0"
         id="path5212-7"
         inkscape:connector-curvature="0" />
      <path
         style="fill:none;stroke:#000000;stroke-width:2;stroke-linecap:butt;stroke-linejoin:miter;stroke-miterlimit:4;stroke-opacity:1;stroke-dasharray:4, 2;stroke-dashoffset:0"
         d="m 137.38074,736.15344 0,258.72302"
         id="path5212-3"
         inkscape:connector-curvature="0" />
      <path
         style="fill:none;stroke:#000000;stroke-width:2;stroke-linecap:butt;stroke-linejoin:miter;stroke-miterlimit:4;stroke-opacity:1;stroke-dasharray:4, 2;stroke-dashoffset:0"
         d="m 221.2234,736.15344 0,258.72302"
         id="path5212-3-3"
         inkscape:connector-curvature="0" />
      <path
         style="fill:none;stroke:#000000;stroke-width:2;stroke-linecap:butt;stroke-linejoin:miter;stroke-miterlimit:4;stroke-opacity:1;stroke-dasharray:4, 2;stroke-dashoffset:0"
         d="m 305.06605,736.15344 0,258.72302"
         id="path5212-3-5"
         inkscape:connector-curvature="0" />
      <path
         style="fill:none;stroke:#000000;stroke-width:2;stroke-linecap:butt;stroke-linejoin:miter;stroke-miterlimit:4;stroke-opacity:1;stroke-dasharray:4, 2;stroke-dashoffset:0"
         d="m 388.90872,736.15344 0,258.72302"
         id="path5212-3-4"
         inkscape:connector-curvature="0" />
    </g>
    <rect
       y="856.22717"
       x="156.75072"
       height="69.460907"
       width="81.98484"
       id="rect5303"
       style="fill:none;stroke:#000000;stroke-width:2.94409609;stroke-linecap:butt;stroke-miterlimit:4;stroke-dasharray:none;stroke-dashoffset:0" />
    <path
       sodipodi:type="arc"
       style="fill:#ffffff;fill-opacity:1;stroke:#000000;stroke-width:1;stroke-linecap:butt;stroke-miterlimit:4;stroke-dasharray:none;stroke-dashoffset:0"
       id="path5423"
       sodipodi:cx="169.46428"
       sodipodi:cy="368.96933"
       sodipodi:rx="12.321428"
       sodipodi:ry="12.321428"
       d="m 181.78571,368.96933 a 12.321428,12.321428 0 0 1 -12.32143,12.32143 12.321428,12.321428 0 0 1 -12.32143,-12.32143 12.321428,12.321428 0 0 1 12.32143,-12.32143 12.321428,12.321428 0 0 1 12.32143,12.32143 z"
       transform="matrix(1.1180459,0,0,1.1180459,9.6652725,480.00229)" />
    <path
       sodipodi:type="arc"
       style="fill:#ffffff;fill-opacity:1;stroke:#000000;stroke-width:1;stroke-linecap:butt;stroke-miterlimit:4;stroke-dasharray:none;stroke-dashoffset:0"
       id="path5423-5"
       sodipodi:cx="169.46428"
       sodipodi:cy="368.96933"
       sodipodi:rx="12.321428"
       sodipodi:ry="12.321428"
       d="m 181.78571,368.96933 a 12.321428,12.321428 0 0 1 -12.32143,12.32143 12.321428,12.321428 0 0 1 -12.32143,-12.32143 12.321428,12.321428 0 0 1 12.32143,-12.32143 12.321428,12.321428 0 0 1 12.32143,12.32143 z"
       transform="matrix(1.1180459,0,0,1.1180459,9.6652725,412.00769)" />
    <path
       sodipodi:type="arc"
       style="fill:#ffffff;fill-opacity:1;stroke:#000000;stroke-width:1;stroke-linecap:butt;stroke-miterlimit:4;stroke-dasharray:none;stroke-dashoffset:0"
       id="path5423-8"
       sodipodi:cx="169.46428"
       sodipodi:cy="368.96933"
       sodipodi:rx="12.321428"
       sodipodi:ry="12.321428"
       d="m 181.78571,368.96933 a 12.321428,12.321428 0 0 1 -12.32143,12.32143 12.321428,12.321428 0 0 1 -12.32143,-12.32143 12.321428,12.321428 0 0 1 12.32143,-12.32143 12.321428,12.321428 0 0 1 12.32143,12.32143 z"
       transform="matrix(1.1180459,0,0,1.1180459,10.699947,551.15128)" />
    <path
       sodipodi:type="arc"
       style="fill:#ffffff;fill-opacity:1;stroke:#000000;stroke-width:1;stroke-linecap:butt;stroke-miterlimit:4;stroke-dasharray:none;stroke-dashoffset:0"
       id="path5423-5-5"
       sodipodi:cx="169.46428"
       sodipodi:cy="368.96933"
       sodipodi:rx="12.321428"
       sodipodi:ry="12.321428"
       d="m 181.78571,368.96933 a 12.321428,12.321428 0 0 1 -12.32143,12.32143 12.321428,12.321428 0 0 1 -12.32143,-12.32143 12.321428,12.321428 0 0 1 12.32143,-12.32143 12.321428,12.321428 0 0 1 12.32143,12.32143 z"
       transform="matrix(1.1180459,0,0,1.1180459,-75.520014,480.00229)" />
    <path
       sodipodi:type="arc"
       style="fill:#ffffff;fill-opacity:1;stroke:#000000;stroke-width:1;stroke-linecap:butt;stroke-miterlimit:4;stroke-dasharray:none;stroke-dashoffset:0"
       id="path5423-5-6"
       sodipodi:cx="169.46428"
       sodipodi:cy="368.96933"
       sodipodi:rx="12.321428"
       sodipodi:ry="12.321428"
       d="m 181.78571,368.96933 a 12.321428,12.321428 0 0 1 -12.32143,12.32143 12.321428,12.321428 0 0 1 -12.32143,-12.32143 12.321428,12.321428 0 0 1 12.32143,-12.32143 12.321428,12.321428 0 0 1 12.32143,12.32143 z"
       transform="matrix(1.1180459,0,0,1.1180459,88.508205,480.00229)" />
    <path
       sodipodi:type="arc"
       style="fill:#ffffff;fill-opacity:1;stroke:#000000;stroke-width:1;stroke-linecap:butt;stroke-miterlimit:4;stroke-dasharray:none;stroke-dashoffset:0"
       id="path5423-5-3"
       sodipodi:cx="169.46428"
       sodipodi:cy="368.96933"
       sodipodi:rx="12.321428"
       sodipodi:ry="12.321428"
       d="m 181.78571,368.96933 a 12.321428,12.321428 0 0 1 -12.32143,12.32143 12.321428,12.321428 0 0 1 -12.32143,-12.32143 12.321428,12.321428 0 0 1 12.32143,-12.32143 12.321428,12.321428 0 0 1 12.32143,12.32143 z"
       transform="matrix(1.1180459,0,0,1.1180459,-75.520014,412.00769)" />
    <path
       sodipodi:type="arc"
       style="fill:#ffffff;fill-opacity:1;stroke:#000000;stroke-width:1;stroke-linecap:butt;stroke-miterlimit:4;stroke-dasharray:none;stroke-dashoffset:0"
       id="path5423-5-8"
       sodipodi:cx="169.46428"
       sodipodi:cy="368.96933"
       sodipodi:rx="12.321428"
       sodipodi:ry="12.321428"
       d="m 181.78571,368.96933 a 12.321428,12.321428 0 0 1 -12.32143,12.32143 12.321428,12.321428 0 0 1 -12.32143,-12.32143 12.321428,12.321428 0 0 1 12.32143,-12.32143 12.321428,12.321428 0 0 1 12.32143,12.32143 z"
       transform="matrix(1.1180459,0,0,1.1180459,88.508205,412.00769)" />
    <path
       sodipodi:type="arc"
       style="fill:#ffffff;fill-opacity:1;stroke:#000000;stroke-width:1;stroke-linecap:butt;stroke-miterlimit:4;stroke-dasharray:none;stroke-dashoffset:0"
       id="path5423-5-1"
       sodipodi:cx="169.46428"
       sodipodi:cy="368.96933"
       sodipodi:rx="12.321428"
       sodipodi:ry="12.321428"
       d="m 181.78571,368.96933 a 12.321428,12.321428 0 0 1 -12.32143,12.32143 12.321428,12.321428 0 0 1 -12.32143,-12.32143 12.321428,12.321428 0 0 1 12.32143,-12.32143 12.321428,12.321428 0 0 1 12.32143,12.32143 z"
       transform="matrix(1.1180459,0,0,1.1180459,88.508205,551.15128)" />
    <path
       sodipodi:type="arc"
       style="fill:#ffffff;fill-opacity:1;stroke:#000000;stroke-width:1;stroke-linecap:butt;stroke-miterlimit:4;stroke-dasharray:none;stroke-dashoffset:0"
       id="path5423-5-65"
       sodipodi:cx="169.46428"
       sodipodi:cy="368.96933"
       sodipodi:rx="12.321428"
       sodipodi:ry="12.321428"
       d="m 181.78571,368.96933 a 12.321428,12.321428 0 0 1 -12.32143,12.32143 12.321428,12.321428 0 0 1 -12.32143,-12.32143 12.321428,12.321428 0 0 1 12.32143,-12.32143 12.321428,12.321428 0 0 1 12.32143,12.32143 z"
       transform="matrix(1.1180459,0,0,1.1180459,-75.520014,551.15128)" />
    <path
       style="fill:none;stroke:#000000;stroke-width:2.94409609;stroke-linecap:butt;stroke-linejoin:miter;stroke-miterlimit:4;stroke-opacity:1;stroke-dasharray:none;marker-end:url(#Arrow1Mend)"
       d="M 267.46241,1049.1949 221.19804,910.40179"
       id="path5525"
       inkscape:connector-curvature="0" />
    <text
       xml:space="preserve"
       style="font-style:normal;font-weight:normal;font-size:21.5900383px;line-height:125%;font-family:'Times New Roman';-inkscape-font-specification:'Times New Roman';text-align:center;letter-spacing:0px;word-spacing:0px;text-anchor:middle;fill:#000000;fill-opacity:1;stroke:none"
       x="273.30453"
       y="1065.2001"
       id="text5971"
       sodipodi:linespacing="125%"><tspan
         sodipodi:role="line"
         x="273.30453"
         y="1065.2001"
         id="tspan5975">Elementary</tspan><tspan
         sodipodi:role="line"
         x="273.30453"
         y="1092.1876"
         id="tspan5981"
         dy="-5.8424726 0 0 0">cell</tspan></text>
    <path
       style="fill:none;stroke:#000000;stroke-width:2.94409609;stroke-linecap:butt;stroke-linejoin:miter;stroke-miterlimit:4;stroke-opacity:1;stroke-dasharray:none;marker-start:url(#Arrow2Mstart);marker-end:url(#Arrow2Mend)"
       d="m 74.062977,929.65895 0,64.98888 77.062433,0"
       id="path5983-3"
       inkscape:connector-curvature="0" />
    <g
       id="g6984">
      <path
         id="path3040"
         style="fill:none;stroke:#adadad;stroke-width:0.98136538;stroke-linecap:round;stroke-linejoin:round;stroke-miterlimit:10;stroke-opacity:1;stroke-dasharray:none"
         d="m -320.68016,999.96609 0.27368,0.45611 m -0.27368,-7.66324 5.83869,8.30194 m -5.83869,-15.41785 11.31246,16.14765 m -11.31246,-23.35479 16.78623,24.08459 m -16.78623,-31.2005 22.26001,31.8391 m -22.26001,-39.04623 27.82501,39.77613 m -4.65271,-13.68447 10.12648,14.32307 m -33.29878,-47.53063 14.5055,20.80034 m 13.04582,11.40369 11.22124,16.0564 m -38.77256,-55.37634 17.05992,24.35829 m 13.41075,11.95108 13.77567,19.79677 m -44.24634,-63.31328 20.98279,29.9233 m 9.94402,7.11591 18.88453,26.91277 m -49.81134,-71.06789 27.36886,39.13749 m -27.36886,-46.34462 55.28512,79.00482 m -55.28512,-86.12073 60.75889,86.75933 m -60.75889,-93.96647 66.23266,94.69627 m -42.14806,-67.32739 47.71307,68.05729 m -71.79767,-102.54208 14.87041,21.2565 m 13.31952,11.85985 49.08151,70.06433 m -77.27144,-110.38781 17.69853,25.2706 m 54.92021,71.34152 10.12647,14.50549 m -51.90962,-74.16963 32.3865,46.25339 m -63.22209,-90.31727 21.98632,31.38297 m 54.64652,70.88538 11.58615,16.60376 m -88.21899,-126.07925 66.05021,94.51384 m 13.13705,11.58615 14.59673,20.70916 m -93.78399,-133.92506 70.338,100.44377 m -70.338,-107.55968 99.25777,141.77077 m -80.1908,-121.70026 85.66458,122.33886 m -104.73155,-149.6165 14.32303,20.43542 m 10.67386,8.21067 85.20843,121.70021 m -110.20532,-157.46221 15.23533,21.80387 m 52.27455,67.50988 48.26045,68.78706 m -87.03302,-124.16341 33.9374,48.35168 m -62.67471,-89.49622 18.33713,26.27412 m 55.10267,71.52399 47.8043,68.23974 m -90.13482,-128.72495 32.56896,46.52708 m -63.67824,-90.95589 22.89862,32.75142 m 93.23662,125.98804 10.58263,15.0529 m -49.53766,-70.70294 33.75495,48.16923 m -110.93516,-158.46579 66.78004,95.42614 m 55.10266,71.61526 10.30895,14.6879 m -52.73069,-75.35561 32.56895,46.52709 m -112.02991,-160.01668 71.34152,101.90344 m 54.2816,70.42926 12.13353,17.2424 M -320.68016,820.97367 -205.54845,985.4606 m 12.77215,11.03877 15.32656,21.89513 m -122.70377,-175.25204 99.25778,141.77075 m -119.78443,-171.05545 14.04935,20.07051 m 11.76861,9.67033 122.88624,175.5257 m -144.0515,-205.81392 11.03878,15.87395 m 53.27807,68.87833 85.20843,121.70024 m -124.80207,-178.26258 33.11634,47.25692 m -52.36578,-74.71702 8.9405,12.77214 m 55.10267,71.61522 85.57334,122.06522 m -128.45125,-183.3715 32.84265,46.892 m -48.53413,-69.33447 8.48435,12.13353 m 93.32786,126.1705 47.8043,68.23974 m -87.39794,-124.89331 33.0251,47.25693 m -89.7699,-128.17756 46.43586,66.3239 m 55.10266,71.52399 48.07799,68.60465 m -90.95589,-129.91093 32.84265,46.89201 m -85.93826,-122.79501 45.88847,65.68529 m 93.41909,126.26174 10.21771,14.5967 m -49.99381,-71.43273 33.02511,47.16569 m -127.0828,-181.54686 83.83998,119.78444 m 55.1939,71.61526 10.58263,15.0528 m -53.64299,-76.54158 32.84265,46.892 m -123.3424,-176.07308 83.38384,119.0546 m 53.64299,69.42566 12.58968,17.9723 M -277.61981,818.14555 -156.3757,991.29929 m 12.22476,10.21771 16.14763,23.1723 m -122.43008,-174.97832 99.07531,141.58831 m -120.69672,-172.42391 13.95812,19.97928 m 12.40722,10.58264 123.15993,175.8906 m -144.0515,-205.81391 10.58263,15.14411 m 53.91668,69.97309 85.11719,121.42651 m -125.44066,-179.17484 32.75142,46.80078 m -51.45348,-73.43981 8.6668,12.40722 m 55.19389,71.61522 85.75581,122.43013 m -129.27231,-184.46624 33.20756,47.25691 m -48.07798,-68.5134 8.75804,12.40721 m 93.32786,126.17051 47.53061,67.87481 m -88.03655,-125.71436 32.6602,46.61832 m -88.67516,-126.71789 46.07094,65.86775 m 55.1939,71.61522 44.33757,63.40456 m -87.85408,-125.5319 33.11633,47.25692 m -85.39088,-121.88271 46.16216,65.95898 m 93.32786,126.07931 0.63861,1.0035 m -41.14454,-58.84308 32.75142,46.70958 m -126.26174,-180.26968 83.5663,119.32828 m 11.67738,9.57911 33.02511,47.16569 m -122.79502,-175.34325 83.5663,119.32829 m -78.00129,-118.59845 120.87919,172.69759 m -93.784,-141.04093 96.52089,137.75666 m -118.1423,-168.77472 13.13705,18.7933 m 12.95461,11.31246 92.05064,131.55305 m -112.66853,-160.92897 10.12648,14.41428 m 54.46406,70.70292 48.07799,68.60464 m -89.1313,-127.26526 32.56896,46.43585 m -50.63241,-72.25382 8.48434,12.13353 m 55.01144,71.43276 43.69897,62.40104 m -88.40146,-126.26174 34.21109,48.89905 m -47.43938,-67.8748 9.12296,13.04583 m 51.8184,66.87128 32.47772,46.34462 m -87.94531,-125.5319 45.88848,65.50283 m 10.21771,7.48084 34.30232,48.99028 m -84.93473,-121.33534 46.61831,66.59759 m -41.14454,-65.86775 83.47506,119.0546 m -77.91005,-118.416 79.64342,113.85451 m -74.16965,-113.12467 74.16965,106.00877 m -47.07446,-74.44334 47.07446,67.2362 m -68.69588,-98.16302 12.40723,17.78977 m 13.31951,11.76861 42.96914,61.48873 m -63.22209,-90.31727 9.67032,13.86689 m 13.2283,11.67738 32.47773,46.2534 m -49.81135,-71.06784 8.30189,11.85985 m -2.82812,-11.22125 47.07447,67.32743 m -41.60069,-66.59759 45.88847,65.41161 m -40.4147,-64.773 41.23577,58.93431 m -35.67077,-58.20447 35.67077,50.99733 m -30.19699,-50.2675 30.19699,43.15159 m -3.64918,-12.40722 3.64918,5.29132 m -24.72322,-35.39707 16.3301,23.35476 m -10.85633,-22.62493 11.76863,16.78624 m -6.20362,-16.14764 9.21419,13.31952 m -3.74042,-12.58968 8.30189,11.85984 m -2.82811,-11.13001 2.73689,3.92288 m 0,178.9012 2.18951,3.193 m -2.18951,-10.3089 5.291313,7.572 m -2.554423,-10.8563 5.656225,8.1195 m -2.554426,-10.8564 5.656237,8.1195 m -2.554425,-10.8563 5.656227,8.1194 m -2.554426,-10.8563 5.656237,8.1194 m -2.554435,-10.8563 5.656237,8.1194 m -2.554426,-10.85631 5.656227,8.11941 m -2.554425,-10.85629 5.656235,8.11939 m -2.554428,-10.76506 5.656233,8.02826 m -2.554427,-10.76514 5.656233,8.0282 m -2.554428,-10.76509 5.656233,8.0282 m -2.554427,-10.76509 5.656234,8.02821 m -2.554428,-10.76509 5.656234,8.0282 m -2.554429,-10.76509 5.656234,8.0282 m -2.554428,-10.76509 5.656234,8.02821 m -2.554429,-10.76509 5.656234,8.0282 m -2.554428,-10.76509 5.656234,8.11943 m -2.554429,-10.85632 5.656234,8.11943 m -2.554428,-10.85631 5.656234,8.11942 m -2.554429,-10.85631 5.656234,8.11943 m -2.554428,-10.85632 5.656234,8.11943 m -2.554429,-10.85632 5.656234,8.11943 m -2.554428,-10.85632 5.656234,8.11944 m -2.554428,-10.85633 5.656234,8.11944 m -2.645658,-10.85632 5.747463,8.11943 m -2.645657,-10.85632 5.200085,7.38959 m -2.098279,-10.12648 2.098279,3.01058 m -82.289075,47.07446 1.36844,2.00705 m -1.36844,-9.12296 4.470244,6.38607 m -4.470244,-13.5932 7.572055,10.85632 m -7.572055,-17.97222 10.673857,15.23533 m -10.400167,-22.07756 13.501978,19.34067 m -10.400178,-22.07755 13.50198,19.34067 m -10.400177,-22.07756 13.501979,19.34067 m -10.400167,-22.07756 13.501978,19.34067 m -10.400177,-22.07755 13.50198,19.34067 m -10.400168,-22.07756 13.501973,19.34067 m -10.400172,-22.07756 13.501978,19.34067 m -10.491404,-22.07756 13.59321,19.34067 m -10.491401,-22.07756 13.593207,19.34067 m -10.491402,-22.07755 13.593207,19.34067 m -10.491401,-21.98633 13.593207,19.24944 m -10.491402,-21.98633 13.593207,19.34067 m -10.491401,-22.07755 13.593207,19.34067 m -10.491402,-22.07756 13.593207,19.34067 m -10.491401,-22.07755 13.593207,19.34066 m -10.491402,-22.07755 13.593208,19.34067 m -10.491402,-22.07757 13.593207,19.34068 m -10.491402,-22.07756 13.593208,19.34066 m -10.491402,-22.07755 13.501978,19.34067 m -10.400172,-22.07756 13.501977,19.34067 m -10.400171,-22.07755 13.501977,19.34067 m -10.400171,-22.07756 13.501976,19.34067 m -10.400171,-22.07756 13.501977,19.34067 m -10.400171,-22.07755 10.765089,15.41779 m -7.663284,-18.15468 7.663284,11.03878 m -4.561478,-13.77567 4.561478,6.56853 m -1.459673,-9.30541 1.459673,2.1895 m -82.289075,47.07446 2.00705,2.82812 m -2.00705,-9.94402 5.108858,7.20714 m -5.108858,-14.41428 8.210659,11.67739 m -8.210659,-18.7933 11.312461,16.05641 m -10.491391,-22.07755 13.593202,19.34067 m -10.491402,-22.07757 13.501976,19.34068 m -10.400167,-22.07757 13.501969,19.34067 m -10.400167,-22.07755 13.501978,19.34067 m -10.400177,-22.07756 13.501982,19.34067 m -10.40017,-22.07756 13.501975,19.34067 m -10.400174,-22.07755 13.50198,19.34067 m -10.400168,-22.07756 13.501973,19.34067 m -10.400172,-22.07756 13.501978,19.34067 m -10.400172,-22.07755 13.501977,19.34067 m -10.400171,-22.07756 13.501977,19.34067 m -10.400172,-22.07755 13.501978,19.34066 m -10.400172,-22.07755 13.501977,19.34067 m -10.400172,-21.98634 13.501978,19.34067 m -10.400172,-22.07755 13.501977,19.34067 m -10.400172,-22.07756 13.501978,19.34067 m -10.400172,-22.07756 13.501977,19.34067 m -10.4914,-22.07755 13.593206,19.34067 m -10.491401,-22.07756 13.593206,19.34067 m -10.4914,-22.07755 13.593206,19.34066 m -10.491401,-22.07755 13.593207,19.34067 m -10.491401,-22.07756 13.593207,19.34067 m -10.491402,-22.07755 13.319518,18.97575 m -10.217712,-21.71264 10.217712,14.59673 m -7.115907,-17.33363 7.115907,10.12649 m -4.014101,-12.86337 4.014101,5.74746 m -0.912295,-8.48435 0.912295,1.36845 m -82.289075,47.07446 2.55442,3.64919 m -2.55442,-10.85633 5.656234,8.11943 m -5.656234,-15.23534 8.758035,12.49845 m -8.758035,-19.61435 11.859847,16.87747 m -10.491407,-22.07756 13.593208,19.34067 m -10.491404,-22.07756 13.593206,19.34067 m -10.491395,-22.07755 13.593206,19.34067 m -10.491404,-22.07756 13.593208,19.34067 m -10.491397,-22.07756 13.593203,19.34067 m -10.491401,-22.07755 13.593206,19.34067 m -10.491404,-22.07756 13.59321,19.34067 m -10.491399,-22.07756 13.593204,19.34067 m -10.491401,-22.07755 13.593207,19.34067 m -10.491402,-22.07757 13.593207,19.34068 m -10.491401,-22.07757 13.593207,19.34067 m -10.491401,-22.07755 13.501977,19.34067 m -10.400171,-22.07756 13.501976,19.34067 m -10.400171,-22.07756 13.501977,19.34067 m -10.400171,-22.07755 13.501977,19.34067 m -10.400172,-21.98633 13.501978,19.34067 m -10.400172,-22.07755 13.501977,19.34067 m -10.400172,-22.07756 13.501978,19.34067 m -10.400172,-22.07756 13.501977,19.34067 m -10.400171,-22.07756 13.501977,19.34068 m -10.400172,-22.07757 13.501978,19.34067 m -10.400172,-22.07756 13.501977,19.34067 m -10.400172,-22.07755 12.680911,18.15468 m -9.579105,-20.89157 9.579105,13.77567 m -6.4773,-16.51255 6.4773,9.30542 m -3.375494,-12.04231 3.375494,4.9264 m -0.364918,-7.66329 0.364918,0.45615 m -82.289075,54.28159 0,0 m 0,-7.1159 3.1018,4.37902 m -1.5509,-9.39665 4.65271,6.75099 m -1.550901,-9.48787 4.652703,6.75098 m -1.550901,-9.39664 4.652712,6.65976 m -1.550911,-9.39665 4.652713,6.65976 m -1.550901,-9.39664 4.652702,6.65976 m -1.550901,-9.39665 4.652713,6.65976 m -1.550901,-9.39666 4.652705,6.65977 m -1.550904,-9.39665 4.65271,6.65977 m -1.550903,-9.39666 4.652708,6.65976 m -1.550902,-9.39664 4.652708,6.65975 m -1.550903,-9.39664 4.652708,6.65976 m -1.550902,-9.39665 4.652708,6.65976 m -1.550903,-9.39664 4.652708,6.65975 m -1.550902,-9.39664 4.652708,6.65976 m -1.550903,-9.39665 4.65271,6.65976 m -1.550904,-9.39664 4.652709,6.65975 m -1.550903,-9.39664 4.652709,6.65976 m -1.550903,-9.39665 4.652708,6.65976 m -1.642132,-9.39664 4.743938,6.65975 m -1.642133,-9.39665 4.743938,6.65977 m -1.642132,-9.39666 4.743938,6.65977 m -1.642133,-9.39665 4.743938,6.75099 m -1.642132,-9.48788 4.743938,6.75099 m -1.642133,-9.39664 4.652709,6.65975 m -1.550903,-9.39664 4.652708,6.65976 m -1.550902,-9.39665 3.284264,4.65271 m -0.182459,-7.38959 0.182459,0.27368"
         inkscape:connector-curvature="0" />
      <path
         id="path3042"
         style="fill:none;stroke:#adadad;stroke-width:1.05398643;stroke-linecap:round;stroke-linejoin:round;stroke-miterlimit:10;stroke-opacity:1;stroke-dasharray:none"
         d="m -318.12574,810.39103 2.09828,2.91935 m 1.00352,-5.65624 4.47025,6.38608 m -1.36844,-9.03173 6.84222,9.67034 m -3.74041,-12.40723 9.21418,13.13706 m -6.11238,-15.87394 11.67739,16.51255 m -8.57558,-19.24944 14.04935,19.97927 m -10.94755,-22.71616 16.42132,23.446 m -13.31951,-26.18288 18.79329,26.82149 m -15.69149,-29.55838 21.2565,30.28821 m -18.15469,-33.0251 23.62846,33.66371 m -20.52665,-36.4006 26.00043,37.13044 m -22.89863,-39.86733 28.3724,40.59717 m -25.27059,-43.33406 30.83559,43.97266 m -27.73379,-46.70954 33.20757,47.43938 m -30.10576,-50.17627 35.57953,50.81488 m -32.47773,-53.55177 37.9515,54.2816 m -34.84969,-57.01848 40.4147,57.74832 m -37.31289,-60.48521 42.78667,61.12381 m -39.68487,-63.8607 45.15864,64.59054 m -42.05683,-67.32742 47.53061,67.96603 m -44.42881,-70.70292 49.99381,71.43276 m -46.89201,-74.16965 52.36578,74.89948 m -49.26397,-77.63636 54.73775,78.27497 m -51.72717,-80.92064 57.20094,81.65048 m -54.09914,-84.38736 59.66415,85.02596 m -56.56234,-87.76285 62.03611,88.49269 m -58.20447,-90.31728 63.67824,90.95589 m -58.20446,-90.22605 63.67825,90.95589 m -58.20448,-90.22606 63.76948,90.95589 m -58.20447,-90.31728 63.67824,90.95588 m -58.20447,-90.22604 63.67825,90.95588 m -58.20448,-90.31728 63.67825,90.95589 m -58.20447,-90.22605 63.76947,90.95589 m -58.20447,-90.22606 63.67825,90.95589 m -58.20447,-90.31727 63.67824,90.95589 m -58.20447,-90.22606 63.67824,90.95589 m -58.20446,-90.31728 63.76947,90.95588 m -58.20446,-90.22605 63.67823,90.95589 m -58.20446,-90.22605 63.67824,90.95588 m -58.20447,-90.31727 62.49226,89.22252 m -57.01848,-88.49269 60.120289,85.75581 m -54.555289,-85.1172 57.657091,82.47154 m -52.183321,-81.7417 55.285122,79.00481 m -49.811342,-78.3662 52.913154,75.62932 m -47.439384,-74.89949 50.541185,72.1626 m -44.976185,-71.43276 48.077997,68.69586 m -42.604217,-68.05725 45.706018,65.32037 m -40.232238,-64.59054 43.334045,61.85365 m -37.860275,-61.21504 40.962081,58.47816 m -35.397071,-57.74833 38.498876,55.01144 m -33.025106,-54.2816 36.126912,51.54471 m -30.653142,-50.9061 33.754947,48.16922 m -28.281166,-47.43938 31.382972,44.70249 m -25.817972,-44.06389 28.919777,41.327 m -23.445996,-40.59716 26.547802,37.86028 m -21.074032,-37.13044 24.175838,34.39355 m -18.702064,-33.75495 21.80387,31.01806 m -16.238865,-30.28822 19.249441,27.55134 m -13.775667,-26.91273 16.877472,24.17583 m -11.403697,-23.44599 14.505503,20.7091 m -9.031729,-20.0705 12.133534,17.33362 m -6.56853,-16.60379 9.670336,13.8669 m -4.196561,-13.13706 7.298366,10.49141 m -1.824591,-9.8528 4.926397,7.11591 m 0.547377,-6.38607 2.554429,3.64918 m 3.010575,-3.01058 0.09123,0.2737"
         inkscape:connector-curvature="0" />
      <path
         id="path3044"
         style="fill:none;stroke:#000000;stroke-width:1.5;stroke-linecap:round;stroke-linejoin:round;stroke-miterlimit:10;stroke-opacity:1;stroke-dasharray:none"
         d="m -22.176995,767.4219 0,10.76509 m 0,0 -82.289075,72.61874 m 0,-10.85631 0,10.85631 m 82.289075,-83.38383 -82.289075,72.52752 m 0,0 -216.21409,-27.18642 m 82.28906,-72.61874 -82.28906,72.61874 M -22.176995,767.4219 -238.3911,740.14426 m -50.9061,96.06474 -0.0913,-1.45967 -0.36492,-1.45967 -0.6386,-1.45968 -0.82107,-1.36844 -1.00352,-1.18598 -1.18598,-1.00353 -1.36845,-0.82107 -1.36844,-0.6386 -1.45968,-0.36492 -1.45967,-0.0913 -1.45967,0.0913 -1.36845,0.36492 -1.27721,0.6386 -1.09476,0.82107 -0.91229,1.09475 -0.72984,1.18599 -0.45615,1.27721 -0.27368,1.45968 0,1.45967 0.27368,1.5509 0.45615,1.45967 0.72984,1.36845 0.91229,1.27722 1.09476,1.09475 1.27721,0.91229 1.36845,0.72985 1.45967,0.54737 1.45967,0.18246 1.45968,0 1.36844,-0.18246 1.36845,-0.54737 1.18598,-0.72985 1.00352,-0.91229 0.82107,-1.18598 0.6386,-1.27722 0.36492,-1.36845 0.0913,-1.45967 m 48.35168,6.11239 -0.0913,-1.45968 -0.36492,-1.5509 -0.6386,-1.36844 -0.82107,-1.36845 -1.00353,-1.18598 -1.18598,-1.00352 -1.27721,-0.82107 -1.45968,-0.63861 -1.45967,-0.36492 -1.45967,-0.18246 -1.45968,0.18246 -1.36844,0.36492 -1.18598,0.63861 -1.09475,0.82107 -0.9123,1.00352 -0.72984,1.27721 -0.54738,1.27722 -0.18245,1.45967 0,1.45967 0.18245,1.5509 0.54738,1.45968 0.72984,1.36844 0.9123,1.27722 1.09475,1.09475 1.18598,0.9123 1.36844,0.72983 1.45968,0.54738 1.45967,0.18246 1.45967,0 1.45968,-0.27369 1.27721,-0.45615 1.18598,-0.72983 1.00353,-1.00352 0.82107,-1.09477 0.6386,-1.2772 0.36492,-1.36845 0.0913,-1.45967 m 48.4429,6.11238 -0.18245,-1.55091 -0.36492,-1.45967 -0.54738,-1.36845 -0.82107,-1.36843 -1.09475,-1.18599 -1.18598,-1.09475 -1.27722,-0.82107 -1.36844,-0.54738 -1.45968,-0.36492 -1.45967,-0.18246 -1.45967,0.18246 -1.36845,0.36492 -1.27721,0.6386 -1.09476,0.82107 -0.91229,1.00353 -0.72984,1.18599 -0.45614,1.36843 -0.2737,1.45969 0,1.45967 0.2737,1.45967 0.45614,1.45968 0.72984,1.45967 0.91229,1.18598 1.09476,1.18598 1.27721,0.9123 1.36845,0.72984 1.45967,0.45615 1.45967,0.27368 1.45968,0 1.36844,-0.27368 1.27722,-0.45615 1.18598,-0.72984 1.09475,-1.00353 0.82107,-1.09475 0.54738,-1.27722 0.36492,-1.36843 0.18245,-1.45968 m 48.35168,6.11238 -0.0913,-1.5509 -0.36492,-1.45968 -0.6386,-1.45967 -0.82107,-1.27722 -1.00352,-1.18598 -1.18598,-1.09475 -1.36845,-0.82107 -1.36845,-0.6386 -1.45967,-0.36492 -1.45967,-0.0913 -1.45967,0.0913 -1.36845,0.45615 -1.27722,0.54737 -1.09475,0.9123 -0.9123,1.00352 -0.72983,1.18598 -0.45615,1.36845 -0.27369,1.45967 0,1.45967 0.27369,1.45968 0.45615,1.45967 0.72983,1.36845 0.9123,1.27721 1.09475,1.18598 1.27722,0.9123 1.36845,0.72983 1.45967,0.45615 1.45967,0.27369 1.45967,0 1.36845,-0.27369 1.36845,-0.54738 1.18598,-0.72983 1.00352,-0.91229 0.82107,-1.09476 0.6386,-1.27721 0.36492,-1.36845 0.0913,-1.45967 m -145.14626,30.47068 -0.0913,-1.5509 -0.36492,-1.45968 -0.6386,-1.45967 -0.82107,-1.27722 -1.00352,-1.18598 -1.18598,-1.09475 -1.36845,-0.82107 -1.36844,-0.54738 -1.45968,-0.45614 -1.45967,-0.0913 -1.45967,0.18245 -1.36845,0.36493 -1.27721,0.6386 -1.09476,0.82107 -0.91229,1.00352 -0.72984,1.18598 -0.45615,1.36845 -0.27368,1.45967 0,1.45967 0.27368,1.45968 0.45615,1.45967 0.72984,1.36845 0.91229,1.27721 1.09476,1.18598 1.27721,0.9123 1.36845,0.72983 1.45967,0.45615 1.45967,0.27369 1.45968,0 1.36844,-0.27369 1.36845,-0.45615 1.18598,-0.72983 1.00352,-1.00352 0.82107,-1.09476 0.6386,-1.27721 0.36492,-1.36845 0.0913,-1.45967 m 48.35168,6.02116 -0.0913,-1.45968 -0.36492,-1.45968 -0.6386,-1.45967 -0.82107,-1.27721 -1.00353,-1.27722 -1.18598,-1.00352 -1.27721,-0.82107 -1.45968,-0.63861 -1.45967,-0.36492 -1.45967,-0.0913 -1.45968,0.0913 -1.36844,0.45615 -1.18598,0.54738 -1.09475,0.91229 -0.9123,1.00353 -0.72984,1.18599 -0.54738,1.36844 -0.18245,1.36844 0,1.55091 0.18245,1.45967 0.54738,1.45968 0.72984,1.36844 0.9123,1.27721 1.09475,1.09475 1.18598,1.00354 1.36844,0.72983 1.45968,0.45615 1.45967,0.27369 1.45967,0 1.45968,-0.27369 1.27721,-0.54738 1.18598,-0.72984 1.00353,-0.9123 0.82107,-1.09475 0.6386,-1.27721 0.36492,-1.45967 0.0913,-1.45967 m 48.4429,6.11237 -0.18245,-1.45967 -0.36492,-1.45968 -0.54738,-1.45967 -0.82107,-1.36844 -1.09475,-1.18598 -1.18598,-1.00353 -1.27722,-0.82107 -1.36844,-0.6386 -1.45968,-0.36492 -1.45967,-0.0913 -1.45967,0.0913 -1.36845,0.36492 -1.27721,0.6386 -1.09476,0.82107 -0.91229,1.09475 -0.72984,1.18598 -0.45614,1.36845 -0.2737,1.36844 0,1.45968 0.2737,1.5509 0.45614,1.45967 0.72984,1.36845 0.91229,1.27721 1.09476,1.09476 1.27721,0.91229 1.36845,0.72984 1.45967,0.54738 1.45967,0.27368 1.45968,-0.0913 1.36844,-0.18246 1.27722,-0.54738 1.18598,-0.72984 1.09475,-0.91229 0.82107,-1.18598 0.54738,-1.18599 0.36492,-1.45968 0.18245,-1.45967 m 48.35168,6.11239 -0.0913,-1.45968 -0.36492,-1.5509 -0.6386,-1.36844 -0.82107,-1.36845 -1.00352,-1.18599 -1.18598,-1.00352 -1.36845,-0.82106 -1.36845,-0.63862 -1.45967,-0.36491 -1.45967,-0.0913 -1.45967,0.0913 -1.36845,0.36491 -1.27722,0.63862 -1.09475,0.82106 -0.9123,1.09476 -0.72983,1.18598 -0.45615,1.27722 -0.27369,1.45967 0,1.45967 0.27369,1.5509 0.45615,1.45968 0.72983,1.36844 0.9123,1.27721 1.09475,1.09476 1.27722,0.9123 1.36845,0.72983 1.45967,0.54738 1.45967,0.18246 1.45967,0 1.36845,-0.27369 1.36845,-0.45615 1.18598,-0.72983 1.00352,-0.9123 0.82107,-1.18599 0.6386,-1.2772 0.36492,-1.36845 0.0913,-1.45967 m -145.14626,30.47068 -0.0913,-1.45968 -0.36492,-1.45967 -0.6386,-1.45967 -0.82107,-1.36845 -1.00352,-1.18599 -1.18598,-1.00352 -1.36845,-0.82106 -1.36844,-0.63862 -1.45968,-0.36491 -1.45967,-0.0913 -1.45967,0.0913 -1.36845,0.36491 -1.27721,0.63862 -1.09476,0.82106 -0.91229,1.09476 -0.72984,1.18598 -0.45615,1.27722 -0.27368,1.45967 0,1.45967 0.27368,1.5509 0.45615,1.45968 0.72984,1.36844 0.91229,1.27721 1.09476,1.09476 1.27721,0.9123 1.36845,0.72983 1.45967,0.54738 1.45967,0.18246 1.45968,0 1.36844,-0.18246 1.36845,-0.54738 1.18598,-0.72983 1.00352,-0.9123 0.82107,-1.18599 0.6386,-1.27721 0.36492,-1.36844 0.0913,-1.45967 m 48.35168,6.11237 -0.0913,-1.45967 -0.36492,-1.5509 -0.6386,-1.36845 -0.82107,-1.36844 -1.00353,-1.18598 -1.18598,-1.00353 -1.27721,-0.82107 -1.45968,-0.6386 -1.45967,-0.36492 -1.45967,-0.18246 -1.45968,0.18246 -1.36844,0.36492 -1.18598,0.6386 -1.09475,0.82107 -0.9123,1.00353 -0.72984,1.27721 -0.54738,1.27721 -0.18245,1.45968 0,1.45967 0.18245,1.55091 0.54738,1.45967 0.72984,1.36844 0.9123,1.27722 1.09475,1.09475 1.18598,0.91229 1.36844,0.72985 1.45968,0.54737 1.45967,0.18246 1.45967,0 1.45968,-0.27369 1.27721,-0.45614 1.18598,-0.72985 1.00353,-0.91229 0.82107,-1.18598 0.6386,-1.27722 0.36492,-1.36845 0.0913,-1.45967 m 48.4429,6.11239 -0.18245,-1.5509 -0.36492,-1.45968 -0.54738,-1.36844 -0.82107,-1.36845 -1.09475,-1.18598 -1.18598,-1.09476 -1.27722,-0.82106 -1.36844,-0.54738 -1.45968,-0.36492 -1.45967,-0.18246 -1.45967,0.18246 -1.36845,0.36492 -1.27721,0.63861 -1.09476,0.82107 -0.91229,1.00352 -0.72984,1.18598 -0.45614,1.36845 -0.2737,1.45967 0,1.45967 0.2737,1.45968 0.45614,1.45967 0.72984,1.45967 0.91229,1.18598 1.09476,1.18599 1.27721,0.9123 1.36845,0.72983 1.45967,0.45615 1.45967,0.27369 1.45968,0 1.36844,-0.27369 1.27722,-0.45615 1.18598,-0.72983 1.09475,-1.00352 0.82107,-1.09477 0.54738,-1.2772 0.36492,-1.36845 0.18245,-1.45967 m 48.35168,6.11238 -0.0913,-1.55091 -0.36492,-1.45967 -0.6386,-1.45967 -0.82107,-1.27721 -1.00352,-1.18599 -1.18598,-1.09475 -1.36845,-0.82107 -1.36845,-0.63861 -1.45967,-0.36492 -1.45967,-0.0913 -1.45967,0.0913 -1.36845,0.45615 -1.27722,0.54738 -1.09475,0.91229 -0.9123,1.00353 -0.72983,1.18599 -0.45615,1.36844 -0.27369,1.45968 0,1.45967 0.27369,1.45967 0.45615,1.45968 0.72983,1.36843 0.9123,1.27722 1.09475,1.18598 1.27722,0.9123 1.36845,0.72984 1.45967,0.45615 1.45967,0.27368 1.45967,0 1.36845,-0.27368 1.36845,-0.54738 1.18598,-0.72984 1.00352,-0.9123 0.82107,-1.09475 0.6386,-1.27722 0.36492,-1.36843 0.0913,-1.45968 m -145.14626,30.47067 -0.0913,-1.5509 -0.36492,-1.45967 -0.6386,-1.45968 -0.82107,-1.2772 -1.00352,-1.18599 -1.18598,-1.09476 -1.36845,-0.82106 -1.36844,-0.54738 -1.45968,-0.45615 -1.45967,-0.0913 -1.45967,0.18246 -1.36845,0.36492 -1.27721,0.6386 -1.09476,0.82107 -0.91229,1.00353 -0.72984,1.18599 -0.45615,1.36843 -0.27368,1.45968 0,1.45967 0.27368,1.45967 0.45615,1.45969 0.72984,1.36843 0.91229,1.27722 1.09476,1.18598 1.27721,0.9123 1.36845,0.72984 1.45967,0.45615 1.45967,0.27368 1.45968,0 1.36844,-0.27368 1.36845,-0.45615 1.18598,-0.72984 1.00352,-1.00353 0.82107,-1.09475 0.6386,-1.27722 0.36492,-1.36843 0.0913,-1.45969 m 48.35168,6.02116 -0.0913,-1.45967 -0.36492,-1.45968 -0.6386,-1.45967 -0.82107,-1.27722 -1.00353,-1.2772 -1.18598,-1.00353 -1.27721,-0.82107 -1.45968,-0.6386 -1.45967,-0.36492 -1.45967,-0.0913 -1.45968,0.0913 -1.36844,0.45615 -1.18598,0.54737 -1.09475,0.9123 -0.9123,1.00352 -0.72984,1.18598 -0.54738,1.36845 -0.18245,1.36844 0,1.5509 0.18245,1.45968 0.54738,1.45967 0.72984,1.36845 0.9123,1.27721 1.09475,1.09476 1.18598,1.00352 1.36844,0.72983 1.45968,0.45615 1.45967,0.27369 1.45967,0 1.45968,-0.27369 1.27721,-0.54738 1.18598,-0.72983 1.00353,-0.91229 0.82107,-1.09476 0.6386,-1.27721 0.36492,-1.45968 0.0913,-1.45967 m 48.4429,6.11239 -0.18245,-1.45968 -0.36492,-1.45967 -0.54738,-1.45967 -0.82107,-1.36845 -1.09475,-1.18599 -1.18598,-1.00352 -1.27722,-0.82107 -1.36844,-0.63861 -1.45968,-0.36492 -1.45967,-0.0913 -1.45967,0.0913 -1.36845,0.36492 -1.27721,0.63861 -1.09476,0.82107 -0.91229,1.09475 -0.72984,1.18599 -0.45614,1.36844 -0.2737,1.36845 0,1.5509 0.2737,1.45967 0.45614,1.45968 0.72984,1.36844 0.91229,1.27721 1.09476,1.09475 1.27721,0.91233 1.36845,0.7298 1.45967,0.5474 1.45967,0.2737 1.45968,0 1.36844,-0.2737 1.27722,-0.5474 1.18598,-0.7298 1.09475,-0.91233 0.82107,-1.18598 0.54738,-1.18598 0.36492,-1.45967 0.18245,-1.45967 m 48.35168,6.11233 -0.0913,-1.45963 -0.36492,-1.45968 -0.6386,-1.45967 -0.82107,-1.36844 -1.00352,-1.18598 -1.18598,-1.00353 -1.36845,-0.82107 -1.36845,-0.6386 -1.45967,-0.36492 -1.45967,-0.0913 -1.45967,0.0913 -1.36845,0.36492 -1.27722,0.6386 -1.09475,0.82107 -0.9123,1.09475 -0.72983,1.18598 -0.45615,1.27722 -0.27369,1.45967 0,1.45968 0.27369,1.55093 0.45615,1.4596 0.72983,1.3685 0.9123,1.2772 1.09475,1.0948 1.27722,0.9123 1.36845,0.7298 1.45967,0.5474 1.45967,0.1824 1.45967,0 1.36845,-0.2737 1.36845,-0.4561 1.18598,-0.7298 1.00352,-0.9123 0.82107,-1.186 0.6386,-1.2772 0.36492,-1.3685 0.0913,-1.4597 m 39.68487,-149.98139 -1.45968,-0.0913 -1.45967,0.18246 -1.36844,0.45615 -1.27721,0.72983 -1.09476,1.00353 -0.82106,1.09475 -0.63862,1.27722 -0.36491,1.45967 -0.18246,1.45967 0.18246,1.5509 0.36491,1.55091 0.63862,1.45967 0.82106,1.36844 1.09476,1.18599 1.27721,1.00353 1.36844,0.82107 1.45967,0.6386 1.45968,0.27368 m 0,0 0,31.29175 m 0,0 -1.45968,-0.0913 -1.45967,0.27368 -1.36844,0.45615 -1.27721,0.72984 -1.09476,0.9123 -0.82106,1.18598 -0.63862,1.27721 -0.36491,1.36845 -0.18246,1.5509 0.18246,1.5509 0.36491,1.45967 0.63862,1.45968 0.82106,1.36844 1.09476,1.27722 1.27721,1.00352 1.36844,0.82106 1.45967,0.54738 1.45968,0.36492 m 0,0 0,31.29175 m 0,0 -1.45968,-0.0913 -1.45967,0.18246 -1.36844,0.45615 -1.27721,0.72983 -1.09476,1.00353 -0.82106,1.09475 -0.63862,1.27721 -0.36491,1.45968 -0.18246,1.45967 0.18246,1.55091 0.36491,1.5509 0.63862,1.45967 0.82106,1.36845 1.09476,1.18598 1.27721,1.00352 1.36844,0.82107 1.45967,0.63861 1.45968,0.27369 m 0,0 0,31.29174 m 0,0 -1.45968,0 -1.45967,0.18246 -1.36844,0.45615 -1.27721,0.72983 -1.09476,0.9123 -0.82106,1.18596 -0.63862,1.2772 -0.36491,1.4597 -0.18246,1.4597 0.18246,1.5509 0.36491,1.4597 0.63862,1.4597 0.82106,1.3684 1.09476,1.2772 1.27721,1.0035 1.36844,0.8211 1.45967,0.5474 1.45968,0.3649 m 0,0 0,13.0458 m -216.21409,-27.2776 216.21409,27.2776 m -216.21409,-214.84564 0,187.56804 m 289.836356,-214.48077 0.182459,1.5509 0.364918,1.45968 0.638608,1.45968 0.821065,1.36843 1.094755,1.27722 1.277214,1.00352 1.368444,0.82107 1.459673,0.54738 1.459673,0.36492 m -82.289075,72.52751 82.289075,-72.52751 m 0,0 0,31.29174 m 0,0 -82.289075,72.52751 m 73.622266,-64.95545 0.182459,1.5509 0.364918,1.5509 0.638608,1.45967 0.821065,1.36845 1.094755,1.18599 1.277214,1.00352 1.368444,0.82106 1.459673,0.63862 1.459673,0.27368 m -82.289075,72.61874 82.289075,-72.61874 m 0,0 0,31.29175 m 0,0 -82.289075,72.61874 m 73.622266,-64.95546 0.182459,1.5509 0.364918,1.45968 0.638608,1.45967 0.821065,1.36845 1.094755,1.2772 1.277214,1.00353 1.368444,0.82107 1.459673,0.54737 1.459673,0.36492 m -82.289075,72.52752 82.289075,-72.52752 m 0,0 0,31.29175 m 0,0 -82.289075,72.52751 m 73.622266,-64.95546 0.182459,1.55091 0.364918,1.5509 0.638608,1.45968 0.821065,1.36844 1.094755,1.18598 1.277214,1.00353 1.368444,0.82106 1.459673,0.63861 1.459673,0.27369 m -82.289075,72.61876 82.289075,-72.61876 m 0,0 0,13.13706 m 0,0 -82.289075,72.5275"
         inkscape:connector-curvature="0" />
    </g>
    <g
       id="g6930"
       transform="matrix(0.9813654,0,0,0.9813654,9.9933246,25.977125)">
      <g
         transform="translate(-32.857143,-14.285714)"
         id="g3060">
        <path
           style="fill:none;stroke:#000000;stroke-width:2;stroke-linecap:butt;stroke-linejoin:miter;stroke-miterlimit:4;stroke-opacity:1;stroke-dasharray:none;marker-start:url(#Arrow2Mstart);marker-end:url(#Arrow2Mend)"
           d="m -319.57021,943.56325 0,86.87315 87.90385,10.4986"
           id="path5983-0"
           inkscape:connector-curvature="0"
           sodipodi:nodetypes="ccc" />
        <path
           style="fill:none;stroke:#000000;stroke-width:2;stroke-linecap:butt;stroke-linejoin:miter;stroke-miterlimit:4;stroke-opacity:1;stroke-dasharray:none;marker-end:url(#Arrow2Mend-8)"
           d="m -319.46075,1029.76 -56.03774,48.549"
           id="path6793"
           inkscape:connector-curvature="0"
           sodipodi:nodetypes="cc" />
      </g>
      <g
         title="\(x\)"
         style="fill:#000000"
         id="equation_00"
         transform="matrix(2.5473436,0,0,2.5473436,-458.1656,874.35662)">
        <defs
           id="defs3125">
          <path
             id="equation_00_00"
             d="M 3.34,-3.02 C 3.4,-3.28 3.63,-4.2 4.33,-4.2 c 0.05,0 0.29,0 0.5,0.13 -0.28,0.05 -0.48,0.3 -0.48,0.54 0,0.16 0.11,0.35 0.38,0.35 0.22,0 0.54,-0.18 0.54,-0.58 0,-0.52 -0.59,-0.66 -0.93,-0.66 -0.58,0 -0.93,0.53 -1.05,0.76 -0.25,-0.66 -0.79,-0.76 -1.08,-0.76 -1.04,0 -1.61,1.29 -1.61,1.54 0,0.1 0.1,0.1 0.12,0.1 0.08,0 0.11,-0.02 0.13,-0.11 0.34,-1.06 1,-1.31 1.34,-1.31 0.19,0 0.54,0.09 0.54,0.67 0,0.31 -0.17,0.98 -0.54,2.38 -0.16,0.62 -0.51,1.04 -0.95,1.04 -0.06,0 -0.29,0 -0.5,-0.13 0.25,-0.05 0.47,-0.26 0.47,-0.54 0,-0.27 -0.22,-0.35 -0.37,-0.35 -0.3,0 -0.55,0.26 -0.55,0.58 0,0.46 0.5,0.66 0.94,0.66 0.66,0 1.02,-0.7 1.05,-0.76 0.12,0.37 0.48,0.76 1.08,0.76 1.03,0 1.6,-1.29 1.6,-1.54 0,-0.1 -0.09,-0.1 -0.12,-0.1 -0.09,0 -0.11,0.04 -0.13,0.11 -0.33,1.07 -1.01,1.31 -1.33,1.31 -0.39,0 -0.55,-0.32 -0.55,-0.66 0,-0.22 0.06,-0.44 0.17,-0.88 l 0.34,-1.37 z"
             inkscape:connector-curvature="0" />
        </defs>
        <g
           id="equation_00_g">
          <use
             id="use3129"
             y="63"
             xlink:href="#equation_00_00"
             x="77"
             width="744.09448"
             height="1052.3622" />
        </g>
      </g>
      <g
         transform="matrix(2.4051581,0,0,2.4051581,-551.74031,769.67313)"
         title="\(y\)"
         style="fill:#000000"
         id="equation_02">
        <defs
           id="defs3405">
          <path
             inkscape:connector-curvature="0"
             id="equation_02_00"
             d="M 4.86,-3.81 C 4.9,-3.95 4.9,-3.97 4.9,-4.04 c 0,-0.18 -0.14,-0.27 -0.29,-0.27 -0.1,0 -0.26,0.06 -0.35,0.21 -0.02,0.05 -0.1,0.36 -0.14,0.54 -0.07,0.26 -0.14,0.53 -0.2,0.8 l -0.45,1.8 C 3.43,-0.81 3,-0.11 2.34,-0.11 c -0.51,0 -0.62,-0.44 -0.62,-0.81 0,-0.46 0.17,-1.08 0.51,-1.96 0.16,-0.41 0.2,-0.52 0.2,-0.72 0,-0.45 -0.32,-0.82 -0.82,-0.82 -0.95,0 -1.32,1.45 -1.32,1.54 0,0.1 0.1,0.1 0.12,0.1 0.1,0 0.11,-0.02 0.16,-0.18 0.27,-0.94 0.67,-1.24 1.01,-1.24 0.08,0 0.25,0 0.25,0.32 0,0.25 -0.1,0.51 -0.17,0.7 -0.4,1.06 -0.58,1.63 -0.58,2.1 0,0.89 0.63,1.19 1.22,1.19 0.39,0 0.73,-0.17 1.01,-0.45 C 3.18,0.18 3.06,0.67 2.66,1.2 2.4,1.54 2.02,1.83 1.56,1.83 1.42,1.83 0.97,1.8 0.8,1.41 c 0.16,0 0.29,0 0.43,-0.12 C 1.33,1.2 1.43,1.07 1.43,0.88 1.43,0.57 1.16,0.53 1.06,0.53 0.83,0.53 0.5,0.69 0.5,1.18 c 0,0.5 0.44,0.87 1.06,0.87 1.03,0 2.06,-0.91 2.34,-2.04 l 0.96,-3.82 z" />
        </defs>
        <g
           id="equation_02_g">
          <use
             height="1052.3622"
             width="744.09448"
             id="use3409"
             y="63"
             xlink:href="#equation_02_00"
             x="77" />
        </g>
      </g>
      <g
         id="equation_01"
         style="fill:#000000"
         title="\(z\)"
         transform="matrix(2.8921475,0,0,2.8921475,-642.84468,874.96088)">
        <defs
           id="defs3621">
          <path
             d="m 1.33,-0.83 c 0.54,-0.58 0.83,-0.83 1.19,-1.14 0,-0.01 0.62,-0.54 0.98,-0.9 0.95,-0.93 1.17,-1.41 1.17,-1.45 0,-0.1 -0.09,-0.1 -0.11,-0.1 -0.07,0 -0.1,0.02 -0.15,0.11 -0.3,0.48 -0.51,0.64 -0.75,0.64 -0.24,0 -0.36,-0.15 -0.51,-0.32 -0.19,-0.23 -0.36,-0.43 -0.69,-0.43 -0.75,0 -1.21,0.93 -1.21,1.14 0,0.05 0.03,0.11 0.12,0.11 0.09,0 0.11,-0.05 0.13,-0.11 0.19,-0.46 0.77,-0.47 0.85,-0.47 0.21,0 0.4,0.07 0.63,0.15 0.4,0.15 0.51,0.15 0.77,0.15 -0.36,0.43 -1.2,1.15 -1.39,1.31 l -0.9,0.84 c -0.68,0.67 -1.03,1.24 -1.03,1.31 0,0.1 0.1,0.1 0.12,0.1 0.08,0 0.1,-0.02 0.16,-0.13 0.23,-0.35 0.53,-0.62 0.85,-0.62 0.23,0 0.33,0.09 0.58,0.38 0.17,0.21 0.35,0.37 0.64,0.37 0.99,0 1.57,-1.27 1.57,-1.54 0,-0.05 -0.04,-0.1 -0.12,-0.1 -0.09,0 -0.11,0.06 -0.14,0.13 -0.23,0.65 -0.87,0.84 -1.2,0.84 -0.2,0 -0.38,-0.06 -0.59,-0.13 -0.34,-0.13 -0.49,-0.17 -0.7,-0.17 -0.02,0 -0.18,0 -0.27,0.03 z"
             id="equation_01_00"
             inkscape:connector-curvature="0" />
        </defs>
        <g
           id="equation_01_g">
          <use
             x="77"
             xlink:href="#equation_01_00"
             y="63"
             id="use3625"
             width="744.09448"
             height="1052.3622" />
        </g>
      </g>
    </g>
    <g
       id="g6950"
       transform="matrix(0.9813654,0,0,0.9813654,-0.3101508,16.443063)">
      <path
         inkscape:connector-curvature="0"
         id="path5983"
         d="m 22.223356,967.50937 0,86.87313 89.903574,0"
         style="fill:none;stroke:#000000;stroke-width:2;stroke-linecap:butt;stroke-linejoin:miter;stroke-miterlimit:4;stroke-opacity:1;stroke-dasharray:none;marker-start:url(#Arrow2Mstart);marker-end:url(#Arrow2Mend)" />
      <g
         title="\(x\)"
         style="fill:#000000"
         id="equation_00-1"
         transform="matrix(2.5473436,0,0,2.5473436,-84.655643,917.36906)">
        <defs
           id="defs3125-9">
          <path
             id="equation_00_00-2"
             d="M 3.34,-3.02 C 3.4,-3.28 3.63,-4.2 4.33,-4.2 c 0.05,0 0.29,0 0.5,0.13 -0.28,0.05 -0.48,0.3 -0.48,0.54 0,0.16 0.11,0.35 0.38,0.35 0.22,0 0.54,-0.18 0.54,-0.58 0,-0.52 -0.59,-0.66 -0.93,-0.66 -0.58,0 -0.93,0.53 -1.05,0.76 -0.25,-0.66 -0.79,-0.76 -1.08,-0.76 -1.04,0 -1.61,1.29 -1.61,1.54 0,0.1 0.1,0.1 0.12,0.1 0.08,0 0.11,-0.02 0.13,-0.11 0.34,-1.06 1,-1.31 1.34,-1.31 0.19,0 0.54,0.09 0.54,0.67 0,0.31 -0.17,0.98 -0.54,2.38 -0.16,0.62 -0.51,1.04 -0.95,1.04 -0.06,0 -0.29,0 -0.5,-0.13 0.25,-0.05 0.47,-0.26 0.47,-0.54 0,-0.27 -0.22,-0.35 -0.37,-0.35 -0.3,0 -0.55,0.26 -0.55,0.58 0,0.46 0.5,0.66 0.94,0.66 0.66,0 1.02,-0.7 1.05,-0.76 0.12,0.37 0.48,0.76 1.08,0.76 1.03,0 1.6,-1.29 1.6,-1.54 0,-0.1 -0.09,-0.1 -0.12,-0.1 -0.09,0 -0.11,0.04 -0.13,0.11 -0.33,1.07 -1.01,1.31 -1.33,1.31 -0.39,0 -0.55,-0.32 -0.55,-0.66 0,-0.22 0.06,-0.44 0.17,-0.88 l 0.34,-1.37 z"
             inkscape:connector-curvature="0" />
        </defs>
        <g
           id="equation_00_g-6">
          <use
             id="use3129-5"
             y="63"
             xlink:href="#equation_00_00-2"
             x="77"
             width="744.09448"
             height="1052.3622" />
        </g>
      </g>
      <g
         transform="matrix(2.4051581,0,0,2.4051581,-185.72427,830.83019)"
         title="\(y\)"
         style="fill:#000000"
         id="equation_02-8">
        <defs
           id="defs3405-3">
          <path
             inkscape:connector-curvature="0"
             id="equation_02_00-4"
             d="M 4.86,-3.81 C 4.9,-3.95 4.9,-3.97 4.9,-4.04 c 0,-0.18 -0.14,-0.27 -0.29,-0.27 -0.1,0 -0.26,0.06 -0.35,0.21 -0.02,0.05 -0.1,0.36 -0.14,0.54 -0.07,0.26 -0.14,0.53 -0.2,0.8 l -0.45,1.8 C 3.43,-0.81 3,-0.11 2.34,-0.11 c -0.51,0 -0.62,-0.44 -0.62,-0.81 0,-0.46 0.17,-1.08 0.51,-1.96 0.16,-0.41 0.2,-0.52 0.2,-0.72 0,-0.45 -0.32,-0.82 -0.82,-0.82 -0.95,0 -1.32,1.45 -1.32,1.54 0,0.1 0.1,0.1 0.12,0.1 0.1,0 0.11,-0.02 0.16,-0.18 0.27,-0.94 0.67,-1.24 1.01,-1.24 0.08,0 0.25,0 0.25,0.32 0,0.25 -0.1,0.51 -0.17,0.7 -0.4,1.06 -0.58,1.63 -0.58,2.1 0,0.89 0.63,1.19 1.22,1.19 0.39,0 0.73,-0.17 1.01,-0.45 C 3.18,0.18 3.06,0.67 2.66,1.2 2.4,1.54 2.02,1.83 1.56,1.83 1.42,1.83 0.97,1.8 0.8,1.41 c 0.16,0 0.29,0 0.43,-0.12 C 1.33,1.2 1.43,1.07 1.43,0.88 1.43,0.57 1.16,0.53 1.06,0.53 0.83,0.53 0.5,0.69 0.5,1.18 c 0,0.5 0.44,0.87 1.06,0.87 1.03,0 2.06,-0.91 2.34,-2.04 l 0.96,-3.82 z" />
        </defs>
        <g
           id="equation_02_g-2">
          <use
             height="1052.3622"
             width="744.09448"
             id="use3409-4"
             y="63"
             xlink:href="#equation_02_00-4"
             x="77" />
        </g>
      </g>
    </g>
    <path
       style="fill:none;stroke:#000000;stroke-width:2.94409609;stroke-linecap:butt;stroke-linejoin:miter;stroke-miterlimit:4;stroke-opacity:1;stroke-dasharray:none;marker-end:url(#Arrow1Mend)"
       d="m -98.44536,717.07241 c 54.086492,-50.61461 147.483649,-54.65272 215.90039,0"
       id="path4171"
       inkscape:connector-curvature="0"
       sodipodi:nodetypes="cc" />
    <path
       style="fill:none;stroke:#000000;stroke-width:0.98136538;stroke-linecap:butt;stroke-miterlimit:4;stroke-dasharray:none;stroke-dashoffset:0;marker-start:url(#Arrow2Lstart);marker-end:url(#Arrow2Lend)"
       d="m 343.33465,858.76066 0,64.4956"
       id="rect5303-1"
       inkscape:connector-curvature="0"
       sodipodi:nodetypes="cc" />
    <path
       style="fill:none;stroke:#000000;stroke-width:0.98136538;stroke-linecap:butt;stroke-miterlimit:4;stroke-dasharray:none;stroke-dashoffset:0;marker-start:url(#Arrow2Lstart);marker-end:url(#Arrow2Lend)"
       d="m 236.56764,763.54747 -77.76781,0"
       id="rect5303-1-2"
       inkscape:connector-curvature="0"
       sodipodi:nodetypes="cc" />
    <g
       transform="matrix(1.9715292,0,0,1.9715292,195.76947,773.09511)"
       id="equation_05"
       style="fill:#000000"
       title="\(2d_b\)">
      <defs
         id="defs6440">
        <path
           inkscape:connector-curvature="0"
           d="m 5.16,-6.83 c 0,-0.01 0,-0.11 -0.13,-0.11 -0.15,0 -1.1,0.09 -1.27,0.11 -0.08,0.01 -0.14,0.06 -0.14,0.19 0,0.12 0.09,0.12 0.24,0.12 0.48,0 0.5,0.07 0.5,0.17 l -0.03,0.2 -0.6,2.37 C 3.55,-4.15 3.26,-4.42 2.81,-4.42 c -1.17,0 -2.41,1.47 -2.41,2.93 0,0.94 0.55,1.6 1.33,1.6 0.2,0 0.7,-0.04 1.3,-0.75 0.08,0.42 0.43,0.75 0.91,0.75 0.35,0 0.58,-0.23 0.74,-0.55 0.17,-0.36 0.3,-0.97 0.3,-0.99 0,-0.1 -0.09,-0.1 -0.12,-0.1 -0.1,0 -0.11,0.04 -0.14,0.18 -0.17,0.65 -0.35,1.24 -0.76,1.24 -0.27,0 -0.3,-0.26 -0.3,-0.46 0,-0.24 0.02,-0.31 0.06,-0.48 l 1.44,-5.78 z m -2.08,5.64 c -0.05,0.18 -0.05,0.2 -0.2,0.37 -0.44,0.55 -0.85,0.71 -1.13,0.71 -0.5,0 -0.64,-0.55 -0.64,-0.94 0,-0.5 0.32,-1.73 0.55,-2.19 0.31,-0.59 0.76,-0.96 1.16,-0.96 0.65,0 0.79,0.82 0.79,0.88 0,0.06 -0.02,0.12 -0.03,0.17 l -0.5,1.96 z"
           id="equation_05_00" />
        <path
           inkscape:connector-curvature="0"
           d="m 1.848,-4.648 c 0.007,-0.014 0.028,-0.105 0.028,-0.112 0,-0.035 -0.028,-0.098 -0.112,-0.098 -0.14,0 -0.721,0.056 -0.896,0.07 -0.056,0.007 -0.154,0.014 -0.154,0.161 0,0.098 0.098,0.098 0.182,0.098 0.336,0 0.336,0.049 0.336,0.105 0,0.049 -0.07,0.329 -0.112,0.49 L 0.959,-3.29 c -0.063,0.238 -0.448,1.771 -0.462,1.862 -0.035,0.168 -0.035,0.259 -0.035,0.343 0,0.707 0.448,1.155 1.029,1.155 0.875,0 1.806,-0.952 1.806,-1.988 0,-0.819 -0.567,-1.169 -1.05,-1.169 -0.364,0 -0.672,0.203 -0.882,0.385 l 0.483,-1.946 z m -0.35,4.522 c -0.343,0 -0.539,-0.301 -0.539,-0.714 0,-0.259 0.063,-0.497 0.259,-1.288 0.042,-0.133 0.042,-0.147 0.175,-0.301 0.266,-0.308 0.581,-0.462 0.833,-0.462 0.273,0 0.511,0.203 0.511,0.679 0,0.287 -0.154,1.001 -0.364,1.407 -0.168,0.343 -0.518,0.679 -0.875,0.679 z"
           id="equation_05_01" />
        <path
           inkscape:connector-curvature="0"
           d="M 1.27,-0.77 2.33,-1.8 c 1.56,-1.38 2.16,-1.92 2.16,-2.92 0,-1.14 -0.9,-1.94 -2.12,-1.94 -1.13,0 -1.87,0.92 -1.87,1.81 0,0.56 0.5,0.56 0.53,0.56 0.17,0 0.52,-0.12 0.52,-0.53 0,-0.26 -0.18,-0.52 -0.53,-0.52 -0.08,0 -0.1,0 -0.13,0.01 0.23,-0.65 0.77,-1.02 1.35,-1.02 0.91,0 1.34,0.81 1.34,1.63 0,0.8 -0.5,1.59 -1.05,2.21 L 0.61,-0.37 C 0.5,-0.26 0.5,-0.24 0.5,0 H 4.21 L 4.49,-1.74 H 4.24 C 4.19,-1.44 4.12,-1 4.02,-0.85 3.95,-0.77 3.29,-0.77 3.07,-0.77 h -1.8 z"
           id="equation_05_02" />
      </defs>
      <g
         id="equation_05_g">
        <use
           height="1052.3622"
           width="744.09448"
           x="77"
           xlink:href="#equation_05_02"
           y="63"
           id="use6446" />
        <use
           height="1052.3622"
           width="744.09448"
           x="82"
           xlink:href="#equation_05_00"
           y="63"
           id="use6448" />
        <use
           height="1052.3622"
           width="744.09448"
           x="87.204903"
           xlink:href="#equation_05_01"
           y="64.5"
           id="use6450" />
      </g>
    </g>
    <g
       title="\(2d_a\)"
       style="fill:#000000"
       id="equation_06"
       transform="matrix(2.0301244,0,0,2.0301244,24.195295,630.16584)">
      <defs
         id="defs6748">
        <path
           id="equation_06_00"
           d="m 5.16,-6.83 c 0,-0.01 0,-0.11 -0.13,-0.11 -0.15,0 -1.1,0.09 -1.27,0.11 -0.08,0.01 -0.14,0.06 -0.14,0.19 0,0.12 0.09,0.12 0.24,0.12 0.48,0 0.5,0.07 0.5,0.17 l -0.03,0.2 -0.6,2.37 C 3.55,-4.15 3.26,-4.42 2.81,-4.42 c -1.17,0 -2.41,1.47 -2.41,2.93 0,0.94 0.55,1.6 1.33,1.6 0.2,0 0.7,-0.04 1.3,-0.75 0.08,0.42 0.43,0.75 0.91,0.75 0.35,0 0.58,-0.23 0.74,-0.55 0.17,-0.36 0.3,-0.97 0.3,-0.99 0,-0.1 -0.09,-0.1 -0.12,-0.1 -0.1,0 -0.11,0.04 -0.14,0.18 -0.17,0.65 -0.35,1.24 -0.76,1.24 -0.27,0 -0.3,-0.26 -0.3,-0.46 0,-0.24 0.02,-0.31 0.06,-0.48 l 1.44,-5.78 z m -2.08,5.64 c -0.05,0.18 -0.05,0.2 -0.2,0.37 -0.44,0.55 -0.85,0.71 -1.13,0.71 -0.5,0 -0.64,-0.55 -0.64,-0.94 0,-0.5 0.32,-1.73 0.55,-2.19 0.31,-0.59 0.76,-0.96 1.16,-0.96 0.65,0 0.79,0.82 0.79,0.88 0,0.06 -0.02,0.12 -0.03,0.17 l -0.5,1.96 z"
           inkscape:connector-curvature="0" />
        <path
           id="equation_06_01"
           d="M 2.954,-2.674 C 2.807,-2.905 2.569,-3.087 2.233,-3.087 c -0.896,0 -1.806,0.987 -1.806,1.995 0,0.679 0.455,1.162 1.057,1.162 0.378,0 0.714,-0.217 0.994,-0.49 0.133,0.42 0.539,0.49 0.721,0.49 0.252,0 0.427,-0.154 0.553,-0.371 0.154,-0.273 0.245,-0.672 0.245,-0.7 0,-0.091 -0.091,-0.091 -0.112,-0.091 -0.098,0 -0.105,0.028 -0.154,0.217 -0.084,0.336 -0.217,0.749 -0.511,0.749 -0.182,0 -0.231,-0.154 -0.231,-0.343 0,-0.119 0.056,-0.371 0.105,-0.553 0.049,-0.189 0.119,-0.476 0.154,-0.63 l 0.14,-0.532 c 0.042,-0.182 0.126,-0.511 0.126,-0.546 0,-0.154 -0.126,-0.224 -0.238,-0.224 -0.119,0 -0.28,0.084 -0.322,0.28 z m -0.448,1.799 c -0.049,0.196 -0.203,0.336 -0.357,0.469 -0.063,0.056 -0.343,0.28 -0.644,0.28 -0.259,0 -0.511,-0.182 -0.511,-0.679 0,-0.371 0.203,-1.141 0.364,-1.421 0.322,-0.56 0.679,-0.665 0.875,-0.665 0.49,0 0.623,0.532 0.623,0.609 0,0.028 -0.014,0.077 -0.021,0.098 l -0.329,1.309 z"
           inkscape:connector-curvature="0" />
        <path
           id="equation_06_02"
           d="M 1.27,-0.77 2.33,-1.8 c 1.56,-1.38 2.16,-1.92 2.16,-2.92 0,-1.14 -0.9,-1.94 -2.12,-1.94 -1.13,0 -1.87,0.92 -1.87,1.81 0,0.56 0.5,0.56 0.53,0.56 0.17,0 0.52,-0.12 0.52,-0.53 0,-0.26 -0.18,-0.52 -0.53,-0.52 -0.08,0 -0.1,0 -0.13,0.01 0.23,-0.65 0.77,-1.02 1.35,-1.02 0.91,0 1.34,0.81 1.34,1.63 0,0.8 -0.5,1.59 -1.05,2.21 L 0.61,-0.37 C 0.5,-0.26 0.5,-0.24 0.5,0 H 4.21 L 4.49,-1.74 H 4.24 C 4.19,-1.44 4.12,-1 4.02,-0.85 3.95,-0.77 3.29,-0.77 3.07,-0.77 h -1.8 z"
           inkscape:connector-curvature="0" />
      </defs>
      <g
         id="equation_06_g"
         style="fill:#000000">
        <use
           id="use6754"
           y="63"
           xlink:href="#equation_06_02"
           x="77"
           width="744.09448"
           height="1052.3622"
           style="fill:#000000" />
        <use
           id="use6756"
           y="63"
           xlink:href="#equation_06_00"
           x="82"
           width="744.09448"
           height="1052.3622"
           style="fill:#000000" />
        <use
           id="use6758"
           y="64.5"
           xlink:href="#equation_06_01"
           x="87.204903"
           width="744.09448"
           height="1052.3622"
           style="fill:#000000" />
      </g>
    </g>
    <g
       style="fill:#000000"
       id="g3178"
       transform="matrix(2.2063915,0,0,2.2063915,-35.544057,844.81275)">
      <g
         id="equation_03_g-0">
        <use
           x="77"
           xlink:href="#equation_03_00-4"
           y="63"
           id="use3780-9"
           width="744.09448"
           height="1052.3622" />
      </g>
      <text
         xml:space="preserve"
         style="font-size:6.57675171px;font-style:normal;font-weight:normal;line-height:125%;letter-spacing:0px;word-spacing:0px;fill:#000000;fill-opacity:1;stroke:none;font-family:Times New Roman;-inkscape-font-specification:Times New Roman"
         x="82.126907"
         y="65.167534"
         id="text3132"
         sodipodi:linespacing="125%"><tspan
           sodipodi:role="line"
           id="tspan3134"
           x="82.126907"
           y="65.167534">1</tspan></text>
    </g>
    <g
       style="fill:#000000"
       id="g3184"
       transform="matrix(2.2063915,0,0,2.2063915,-173.2705,784.44901)">
      <text
         xml:space="preserve"
         style="font-size:6.57675171px;font-style:normal;font-weight:normal;line-height:125%;letter-spacing:0px;word-spacing:0px;fill:#000000;fill-opacity:1;stroke:none;font-family:Times New Roman;-inkscape-font-specification:Times New Roman"
         x="121.561"
         y="73.364616"
         id="text3132-3"
         sodipodi:linespacing="125%"><tspan
           sodipodi:role="line"
           id="tspan3134-1"
           x="121.561"
           y="73.364616">2</tspan></text>
      <g
         transform="translate(38.993834,8.3333609)"
         style="fill:#000000"
         id="equation_03_g-0-3">
        <use
           x="77"
           xlink:href="#equation_03_00-4"
           y="63"
           id="use3780-9-2"
           width="744.09448"
           height="1052.3622" />
      </g>
    </g>
  </g>
</svg>
