<?xml version="1.0" encoding="UTF-8" standalone="no"?>
<!-- Created with Inkscape (http://www.inkscape.org/) -->

<svg
   xmlns:dc="http://purl.org/dc/elements/1.1/"
   xmlns:cc="http://creativecommons.org/ns#"
   xmlns:rdf="http://www.w3.org/1999/02/22-rdf-syntax-ns#"
   xmlns:svg="http://www.w3.org/2000/svg"
   xmlns="http://www.w3.org/2000/svg"
   xmlns:sodipodi="http://sodipodi.sourceforge.net/DTD/sodipodi-0.dtd"
   xmlns:inkscape="http://www.inkscape.org/namespaces/inkscape"
   id="svg2"
   version="1.1"
   inkscape:version="0.48.1 "
   width="251.42892"
   height="85.921021"
   xml:space="preserve"
   sodipodi:docname="periodic-interpolation-d.svg"><metadata
     id="metadata8"><rdf:RDF><cc:Work
         rdf:about=""><dc:format>image/svg+xml</dc:format><dc:type
           rdf:resource="http://purl.org/dc/dcmitype/StillImage" /><dc:title /></cc:Work></rdf:RDF></metadata><defs
     id="defs6"><clipPath
       clipPathUnits="userSpaceOnUse"
       id="clipPath30"><path
         d="m 1116.18,6711.28 0,-686.46 1951,0 0,686.46 -1951,0 z"
         id="path32"
         inkscape:connector-curvature="0" /></clipPath><clipPath
       clipPathUnits="userSpaceOnUse"
       id="clipPath102"><path
         d="m 1116.18,6711.28 0,-686.46 1951,0 0,686.46 -1951,0 z m 75.51,-580.78 17.61,0 0,43.9 -8.67,-35.5 -8.94,35.5 0,-43.9 z m 17.61,577.17 -17.61,0 0,-43.63 8.94,35.23 8.67,-35.23 0,43.63 z"
         clip-rule="evenodd"
         id="path104"
         inkscape:connector-curvature="0" /></clipPath><clipPath
       clipPathUnits="userSpaceOnUse"
       id="clipPath112"><path
         d="m 1116.18,6711.28 0,-686.46 1951,0 0,686.46 -1951,0 z"
         id="path114"
         inkscape:connector-curvature="0" /></clipPath><clipPath
       clipPathUnits="userSpaceOnUse"
       id="clipPath176"><path
         d="m 3100.41,6711.28 0,-686.46 1951,0 0,686.46 -1951,0 z"
         id="path178"
         inkscape:connector-curvature="0" /></clipPath><clipPath
       clipPathUnits="userSpaceOnUse"
       id="clipPath228"><path
         d="m 3100.41,6711.28 0,-686.46 1951,0 0,686.46 -1951,0 z m 75.51,-580.78 17.61,0 0,43.9 -8.67,-35.5 -8.94,35.5 0,-43.9 z m 17.61,577.17 -17.61,0 0,-43.63 8.94,35.23 8.67,-35.23 0,43.63 z"
         clip-rule="evenodd"
         id="path230"
         inkscape:connector-curvature="0" /></clipPath><clipPath
       clipPathUnits="userSpaceOnUse"
       id="clipPath238"><path
         d="m 3100.41,6711.28 0,-686.46 1951,0 0,686.46 -1951,0 z"
         id="path240"
         inkscape:connector-curvature="0" /></clipPath><clipPath
       clipPathUnits="userSpaceOnUse"
       id="clipPath310"><path
         d="m 1084.68,5438.68 0,-686.46 1951,0 0,686.46 -1951,0 z"
         id="path312"
         inkscape:connector-curvature="0" /></clipPath><clipPath
       clipPathUnits="userSpaceOnUse"
       id="clipPath372"><path
         d="m 1084.68,5438.68 0,-686.46 1951,0 0,686.46 -1951,0 z m 75.51,-580.78 17.61,0 0,43.9 -8.67,-35.5 -8.94,35.5 0,-43.9 z m 17.61,577.17 -17.61,0 0,-43.63 8.94,35.23 8.67,-35.23 0,43.63 z"
         clip-rule="evenodd"
         id="path374"
         inkscape:connector-curvature="0" /></clipPath><clipPath
       clipPathUnits="userSpaceOnUse"
       id="clipPath382"><path
         d="m 1084.68,5438.68 0,-686.46 1951,0 0,686.46 -1951,0 z"
         id="path384"
         inkscape:connector-curvature="0" /></clipPath><clipPath
       clipPathUnits="userSpaceOnUse"
       id="clipPath454"><path
         d="m 3068.91,5456.83 0,-704.61 2032,0 0,704.61 -2032,0 z"
         id="path456"
         inkscape:connector-curvature="0" /></clipPath><clipPath
       clipPathUnits="userSpaceOnUse"
       id="clipPath544"><path
         d="m 3068.91,5456.83 0,-704.61 2032,0 0,704.61 -2032,0 z m 76.01,-598.24 17.72,0 0,44.19 -8.72,-35.73 -9,35.73 0,-44.19 z m 17.72,580.96 -17.72,0 0,-43.91 9,35.46 8.72,-35.46 0,43.91 z"
         clip-rule="evenodd"
         id="path546"
         inkscape:connector-curvature="0" /></clipPath><clipPath
       clipPathUnits="userSpaceOnUse"
       id="clipPath554"><path
         d="m 3068.91,5456.83 0,-704.61 2032,0 0,704.61 -2032,0 z"
         id="path556"
         inkscape:connector-curvature="0" /></clipPath></defs><sodipodi:namedview
     pagecolor="#ffffff"
     bordercolor="#666666"
     borderopacity="1"
     objecttolerance="10"
     gridtolerance="10"
     guidetolerance="10"
     inkscape:pageopacity="0"
     inkscape:pageshadow="2"
     inkscape:window-width="1280"
     inkscape:window-height="961"
     id="namedview4"
     showgrid="false"
     fit-margin-top="0"
     fit-margin-left="0"
     fit-margin-right="0"
     fit-margin-bottom="0"
     inkscape:zoom="4.5659027"
     inkscape:cx="125.71446"
     inkscape:cy="42.96051"
     inkscape:window-x="-4"
     inkscape:window-y="-4"
     inkscape:window-maximized="1"
     inkscape:current-layer="g10" /><g
     id="g10"
     inkscape:groupmode="layer"
     inkscape:label="blochfem-accepted"
     transform="matrix(1.25,0,0,-1.25,-384.02344,679.80469)"><path
   inkscape:connector-curvature="0"
   id="path458"
   style="fill:none;stroke:#000000;stroke-width:0.20456401;stroke-linecap:butt;stroke-linejoin:miter;stroke-miterlimit:10;stroke-opacity:1;stroke-dasharray:none"
   d="m 355.595,491.996 c 0,-2.32 -1.88,-4.2 -4.2,-4.2 -2.32,0 -4.2,1.88 -4.2,4.2 0,2.32 1.88,4.201 4.2,4.201 2.32,0 4.2,-1.881 4.2,-4.201 z" /><g
   id="g460"><text
   id="text462"
   transform="matrix(1,0,0,-1,349.758,488.723)"><tspan
     id="tspan464"
     y="0"
     x="0"
     style="font-size:8.18255043px;font-variant:normal;font-weight:normal;writing-mode:lr-tb;fill:#000000;fill-opacity:1;fill-rule:nonzero;stroke:none;font-family:Times New Roman;-inkscape-font-specification:Times-Roman">1</tspan></text>



<text
   id="text466"
   transform="matrix(1,0,0,-1,343.21196,530.8631)"><tspan
     id="tspan468"
     y="0"
     x="0"
     style="font-size:4.90953016px;font-variant:normal;font-weight:normal;writing-mode:lr-tb;fill:#000000;fill-opacity:1;fill-rule:nonzero;stroke:none;font-family:Times New Roman;-inkscape-font-specification:Times-Roman">1</tspan></text>



<text
   id="text470"
   transform="matrix(1,0,0,-1,337.48418,533.72697)"><tspan
     id="tspan472"
     y="0"
     x="0"
     style="font-size:9.81906033px;font-variant:normal;font-weight:normal;writing-mode:lr-tb;fill:#000000;fill-opacity:1;fill-rule:nonzero;stroke:none;font-family:Symbol;-inkscape-font-specification:Symbol">φ</tspan></text>



</g><g
   id="g474"
   style="fill:#000000"><text
   id="text476"
   transform="matrix(1,0,0,-1,455.313,532.091)"
   style="fill:#000000"><tspan
     id="tspan478"
     y="0"
     x="0"
     style="font-size:4.90953016px;font-variant:normal;font-weight:normal;writing-mode:lr-tb;fill:#000000;fill-opacity:1;fill-rule:nonzero;stroke:none;font-family:Times New Roman;-inkscape-font-specification:Times-Roman">3</tspan></text>



<text
   id="text480"
   transform="matrix(1,0,0,-1,449.58522,534.95492)"
   style="fill:#000000"><tspan
     id="tspan482"
     y="0"
     x="0"
     style="font-size:9.81906033px;font-variant:normal;font-weight:normal;writing-mode:lr-tb;fill:#000000;fill-opacity:1;fill-rule:nonzero;stroke:none;font-family:Symbol;-inkscape-font-specification:Symbol">φ</tspan></text>



</g><g
   id="g484"
   style="fill:#000000"><text
   id="text486"
   transform="matrix(1,0,0,-1,399.263,531.272)"
   style="fill:#000000"><tspan
     id="tspan488"
     y="0"
     x="0"
     style="font-size:4.90953016px;font-variant:normal;font-weight:normal;writing-mode:lr-tb;fill:#000000;fill-opacity:1;fill-rule:nonzero;stroke:none;font-family:Times New Roman;-inkscape-font-specification:Times-Roman">2</tspan></text>



<text
   id="text490"
   transform="matrix(1,0,0,-1,393.53522,534.13592)"
   style="fill:#000000"><tspan
     id="tspan492"
     y="0"
     x="0"
     style="font-size:9.81906033px;font-variant:normal;font-weight:normal;writing-mode:lr-tb;fill:#000000;fill-opacity:1;fill-rule:nonzero;stroke:none;font-family:Symbol;-inkscape-font-specification:Symbol">φ</tspan></text>



</g><g
   id="g494"><text
   id="text496"
   transform="matrix(1,0,0,-1,481.497,534.136)"><tspan
     id="tspan498"
     y="0"
     x="0"
     style="font-size:4.90953016px;font-variant:normal;font-weight:normal;writing-mode:lr-tb;fill:#000000;fill-opacity:1;fill-rule:nonzero;stroke:none;font-family:Times New Roman;-inkscape-font-specification:Times-Roman">1</tspan><tspan
     id="tspan500"
     y="19.6381"
     x="21.274599"
     style="font-size:4.90953016px;font-variant:normal;font-weight:normal;writing-mode:lr-tb;fill:#000000;fill-opacity:1;fill-rule:nonzero;stroke:none;font-family:Times New Roman;-inkscape-font-specification:Times-Roman">1</tspan></text>



<text
   id="text502"
   transform="matrix(1,0,0,-1,497.04382,517.36182)"><tspan
     id="tspan504"
     y="0"
     x="0"
     style="font-size:9.81906033px;font-variant:normal;font-weight:normal;writing-mode:lr-tb;fill:#000000;fill-opacity:1;fill-rule:nonzero;stroke:none;font-family:Symbol;-inkscape-font-specification:Symbol">φ</tspan></text>



<text
   id="text506"
   transform="matrix(1,0,0,-1,481.49702,516.95269)"><tspan
     id="tspan508"
     sodipodi:role="line"
     y="0"
     x="0 3.269747 10.908976 14.178722 23.997782"
     style="font-size:9.81906033px;font-variant:normal;font-weight:normal;writing-mode:lr-tb;fill:#000000;fill-opacity:1;fill-rule:nonzero;stroke:none;font-family:Times New Roman;-inkscape-font-specification:Times-Roman">Im( )</tspan></text>



<text
   id="text510"
   transform="matrix(1,0,0,-1,501.54422,497.72369)"><tspan
     id="tspan512"
     y="0"
     x="0"
     style="font-size:4.90953016px;font-variant:normal;font-weight:normal;writing-mode:lr-tb;fill:#000000;fill-opacity:1;fill-rule:nonzero;stroke:none;font-family:Times New Roman;-inkscape-font-specification:Times-Roman">1</tspan></text>



<text
   id="text514"
   transform="matrix(1,0,0,-1,495.81644,500.58761)"><tspan
     id="tspan516"
     y="0"
     x="0"
     style="font-size:9.81906033px;font-variant:normal;font-weight:normal;writing-mode:lr-tb;fill:#000000;fill-opacity:1;fill-rule:nonzero;stroke:none;font-family:Symbol;-inkscape-font-specification:Symbol">φ</tspan></text>



<text
   id="text518"
   transform="matrix(1,0,0,-1,480.26964,500.58761)"><tspan
     id="tspan520"
     sodipodi:role="line"
     y="0"
     x="0 6.5493131 10.908976 14.178722 23.997782"
     style="font-size:9.81906033px;font-variant:normal;font-weight:normal;writing-mode:lr-tb;fill:#000000;fill-opacity:1;fill-rule:nonzero;stroke:none;font-family:Times New Roman;-inkscape-font-specification:Times-Roman">Re( )</tspan></text>



</g><path
   inkscape:connector-curvature="0"
   id="path522"
   style="fill:none;stroke:#000000;stroke-width:0.20456401;stroke-linecap:butt;stroke-linejoin:miter;stroke-miterlimit:10;stroke-opacity:1;stroke-dasharray:none"
   d="m 383.17,486.268 c 0,-1.28 -1.038,-2.318 -2.318,-2.318 -1.28,0 -2.318,1.038 -2.318,2.318 0,1.281 1.038,2.319 2.318,2.319 1.28,0 2.318,-1.038 2.318,-2.319 z" /><path
   inkscape:connector-curvature="0"
   id="path524"
   style="fill:none;stroke:#000000;stroke-width:0.20456401;stroke-linecap:butt;stroke-linejoin:miter;stroke-miterlimit:10;stroke-opacity:1;stroke-dasharray:none"
   d="m 497.726,486.268 c 0,-1.28 -1.038,-2.318 -2.318,-2.318 -1.281,0 -2.319,1.038 -2.319,2.318 0,1.281 1.038,2.319 2.319,2.319 1.28,0 2.318,-1.038 2.318,-2.319 z" /><path
   inkscape:connector-curvature="0"
   id="path526"
   style="fill:none;stroke:#000000;stroke-width:0.20456401;stroke-linecap:butt;stroke-linejoin:miter;stroke-miterlimit:10;stroke-opacity:1;stroke-dasharray:none"
   d="m 325.893,486.268 c 0,-1.28 -1.038,-2.318 -2.319,-2.318 -1.28,0 -2.318,1.038 -2.318,2.318 0,1.281 1.038,2.319 2.318,2.319 1.281,0 2.319,-1.038 2.319,-2.319 z" /><path
   inkscape:connector-curvature="0"
   id="path528"
   style="fill:none;stroke:#000000;stroke-width:0.20456401;stroke-linecap:butt;stroke-linejoin:miter;stroke-miterlimit:10;stroke-opacity:1;stroke-dasharray:none"
   d="m 470.86,491.996 c 0,-2.32 -1.88,-4.2 -4.2,-4.2 -2.32,0 -4.201,1.88 -4.201,4.2 0,2.32 1.881,4.201 4.201,4.201 2.32,0 4.2,-1.881 4.2,-4.201 z" /><path
   inkscape:connector-curvature="0"
   id="path530"
   style="fill:none;stroke:#000000;stroke-width:0.20456401;stroke-linecap:butt;stroke-linejoin:miter;stroke-miterlimit:10;stroke-opacity:1;stroke-dasharray:none"
   d="m 413.991,491.996 c 0,-2.32 -1.88,-4.2 -4.2,-4.2 -2.32,0 -4.2,1.88 -4.2,4.2 0,2.32 1.88,4.201 4.2,4.201 2.32,0 4.2,-1.881 4.2,-4.201 z" /><path
   inkscape:connector-curvature="0"
   id="path532"
   style="fill:none;stroke:#000000;stroke-width:0.20456401;stroke-linecap:butt;stroke-linejoin:miter;stroke-miterlimit:10;stroke-opacity:1;stroke-dasharray:none"
   d="m 440.448,486.268 c 0,-1.28 -1.038,-2.318 -2.318,-2.318 -1.28,0 -2.318,1.038 -2.318,2.318 0,1.281 1.038,2.319 2.318,2.319 1.28,0 2.318,-1.038 2.318,-2.319 z" /><path
   inkscape:connector-curvature="0"
   id="path534"
   style="fill:none;stroke:#000000;stroke-width:0.409127;stroke-linecap:butt;stroke-linejoin:miter;stroke-miterlimit:10;stroke-opacity:1;stroke-dasharray:none"
   d="m 323.574,486.268 57.278,57.278 57.278,-57.278" /><path
   inkscape:connector-curvature="0"
   id="path536"
   style="fill:none;stroke:#000000;stroke-width:0.409127;stroke-linecap:butt;stroke-linejoin:miter;stroke-miterlimit:10;stroke-opacity:1;stroke-dasharray:2.45476;stroke-dashoffset:0"
   d="m 438.13,486.268 57.278,57.278" /><path
   inkscape:connector-curvature="0"
   id="path538"
   style="fill:none;stroke:#000000;stroke-width:0.20456401;stroke-linecap:butt;stroke-linejoin:miter;stroke-miterlimit:10;stroke-opacity:1;stroke-dasharray:none"
   d="m 307.209,486.268 15.874,0" /><g
   id="g540"
   transform="scale(0.1,0.1)"><g
     clip-path="url(#clipPath544)"
     id="g542"><path
       inkscape:connector-curvature="0"
       id="path548"
       style="fill:none;stroke:#000000;stroke-width:2.04563999;stroke-linecap:butt;stroke-linejoin:miter;stroke-miterlimit:10;stroke-opacity:1;stroke-dasharray:none"
       d="m 3153.92,5435.46 0,-572.78" /></g></g><path
   inkscape:connector-curvature="0"
   id="path558"
   style="fill:#000000;fill-opacity:1;fill-rule:evenodd;stroke:none"
   d="m 316.264,539.564 -0.872,3.546 -0.9,-3.546 1.772,0" /><path
   inkscape:connector-curvature="0"
   id="path560"
   style="fill:none;stroke:#000000;stroke-width:0.20456401;stroke-linecap:butt;stroke-linejoin:miter;stroke-miterlimit:10;stroke-opacity:1;stroke-dasharray:none"
   d="m 316.264,539.564 -0.872,3.546 -0.9,-3.546 1.772,0 z" /><path
   inkscape:connector-curvature="0"
   id="path562"
   style="fill:#000000;fill-opacity:1;fill-rule:evenodd;stroke:none"
   d="m 314.492,490.278 0.9,-3.573 0.872,3.573 -1.772,0" /><path
   inkscape:connector-curvature="0"
   id="path564"
   style="fill:none;stroke:#000000;stroke-width:0.20456401;stroke-linecap:butt;stroke-linejoin:miter;stroke-miterlimit:10;stroke-opacity:1;stroke-dasharray:none"
   d="m 314.492,490.278 0.9,-3.573 0.872,3.573 -1.772,0 z" /><path
   inkscape:connector-curvature="0"
   id="path566"
   style="fill:none;stroke:#000000;stroke-width:0.20456401;stroke-linecap:butt;stroke-linejoin:miter;stroke-miterlimit:10;stroke-opacity:1;stroke-dasharray:none"
   d="m 307.209,543.546 15.874,0" /><path
   inkscape:connector-curvature="0"
   id="path568"
   style="fill:none;stroke:#000000;stroke-width:0.409127;stroke-linecap:butt;stroke-linejoin:miter;stroke-miterlimit:10;stroke-opacity:1;stroke-dasharray:none"
   d="m 323.574,543.546 57.278,-57.278" /><path
   inkscape:connector-curvature="0"
   id="path570"
   style="fill:none;stroke:#000000;stroke-width:0.20456401;stroke-linecap:butt;stroke-linejoin:miter;stroke-miterlimit:10;stroke-opacity:1;stroke-dasharray:none"
   d="M 323.165,486.268 494.59,486.187" /><path
   inkscape:connector-curvature="0"
   id="path572"
   style="fill:none;stroke:#000000;stroke-width:0.409127;stroke-linecap:butt;stroke-linejoin:miter;stroke-miterlimit:10;stroke-opacity:1;stroke-dasharray:none"
   d="m 380.852,486.268 57.278,57.278 57.278,-57.278" /><path
   inkscape:connector-curvature="0"
   id="path574"
   style="fill:none;stroke:#000000;stroke-width:0.409127;stroke-linecap:butt;stroke-linejoin:miter;stroke-miterlimit:10;stroke-opacity:1;stroke-dasharray:none"
   d="m 438.321,486.078 57.087,29.239" /><path
   inkscape:connector-curvature="0"
   id="path576"
   style="fill:none;stroke:#000000;stroke-width:0.409127;stroke-linecap:butt;stroke-linejoin:miter;stroke-miterlimit:10;stroke-opacity:1;stroke-dasharray:none"
   d="m 438.948,487.087 56.46,49.504" /><g
   id="g578"><text
   id="text580"
   transform="matrix(1,0,0,-1,309.255,510.816)"><tspan
     id="tspan582"
     y="0"
     x="0"
     style="font-size:9.81906033px;font-variant:normal;font-weight:normal;writing-mode:lr-tb;fill:#000000;fill-opacity:1;fill-rule:nonzero;stroke:none;font-family:Times New Roman;-inkscape-font-specification:Times-Roman">1</tspan><tspan
     id="tspan584"
     y="35.594101"
     x="11.8647"
     style="font-size:9.81906033px;font-variant:normal;font-weight:normal;writing-mode:lr-tb;fill:#000000;fill-opacity:1;fill-rule:nonzero;stroke:none;font-family:Times New Roman;-inkscape-font-specification:Times-Roman">1</tspan></text>



</g><g
   id="g586"
   style="fill:#000000"><text
   id="text588"
   transform="matrix(1,0,0,-1,377.988,475.222)"
   style="fill:#000000"><tspan
     id="tspan590"
     y="0"
     x="0"
     style="font-size:9.81906033px;font-variant:normal;font-weight:normal;writing-mode:lr-tb;fill:#000000;fill-opacity:1;fill-rule:nonzero;stroke:none;font-family:Times New Roman;-inkscape-font-specification:Times-Roman">2</tspan></text>



</g><g
   id="g592"><text
   id="text594"
   transform="matrix(1,0,0,-1,492.544,475.222)"><tspan
     id="tspan596"
     y="0"
     x="0"
     style="font-size:9.81906033px;font-variant:normal;font-weight:normal;writing-mode:lr-tb;fill:#000000;fill-opacity:1;fill-rule:nonzero;stroke:none;font-family:Times New Roman;-inkscape-font-specification:Times-Roman">1</tspan></text>



<text
   id="text598"
   transform="matrix(1,0,0,-1,408.1547,488.6141)"><tspan
     id="tspan600"
     sodipodi:role="line"
     y="0"
     x="0 56.868698"
     style="font-size:8.18255043px;font-variant:normal;font-weight:normal;writing-mode:lr-tb;fill:#000000;fill-opacity:1;fill-rule:nonzero;stroke:none;font-family:Times New Roman;-inkscape-font-specification:Times-Roman">23</tspan></text>



</g><g
   id="g602"
   style="fill:#000000"><text
   id="text604"
   transform="matrix(1,0,0,-1,436.084,475.222)"
   style="fill:#000000"><tspan
     id="tspan606"
     y="0"
     x="0"
     style="font-size:9.81906033px;font-variant:normal;font-weight:normal;writing-mode:lr-tb;fill:#000000;fill-opacity:1;fill-rule:nonzero;stroke:none;font-family:Times New Roman;-inkscape-font-specification:Times-Roman">3</tspan></text>



</g><g
   id="g608"><text
   id="text610"
   transform="matrix(1,0,0,-1,474.542,536.591)"><tspan
     id="tspan612"
     sodipodi:role="line"
     y="0"
     x="0 1.963812 7.0795422 9.5343075"
     style="font-size:9.81906033px;font-variant:normal;font-weight:normal;writing-mode:lr-tb;fill:#000000;fill-opacity:1;fill-rule:nonzero;stroke:none;font-family:Symbol;-inkscape-font-specification:Symbol">|φ |</tspan></text>



</g>


<text
   id="text764"
   transform="scale(1,-1)"
   x="144.91106"
   y="-107.248"><tspan
     id="tspan766"
     y="-107.248"
     x="144.91106"
     style="font-size:7.97010994px;font-variant:normal;font-weight:normal;writing-mode:lr-tb;fill:#000000;fill-opacity:1;fill-rule:nonzero;stroke:none;font-family:CMSY8;-inkscape-font-specification:CMSY8" /></text>



</g></svg>