<?xml version="1.0" encoding="UTF-8" standalone="no"?>
<!-- Created with Inkscape (http://www.inkscape.org/) -->

<svg
   xmlns:dc="http://purl.org/dc/elements/1.1/"
   xmlns:cc="http://creativecommons.org/ns#"
   xmlns:rdf="http://www.w3.org/1999/02/22-rdf-syntax-ns#"
   xmlns:svg="http://www.w3.org/2000/svg"
   xmlns="http://www.w3.org/2000/svg"
   xmlns:sodipodi="http://sodipodi.sourceforge.net/DTD/sodipodi-0.dtd"
   xmlns:inkscape="http://www.inkscape.org/namespaces/inkscape"
   id="svg2"
   version="1.1"
   inkscape:version="0.48.1 "
   width="242.64272"
   height="85.36071"
   xml:space="preserve"
   sodipodi:docname="periodic-interpolation-a.svg"><metadata
     id="metadata8"><rdf:RDF><cc:Work
         rdf:about=""><dc:format>image/svg+xml</dc:format><dc:type
           rdf:resource="http://purl.org/dc/dcmitype/StillImage" /><dc:title></dc:title></cc:Work></rdf:RDF></metadata><defs
     id="defs6"><clipPath
   clipPathUnits="userSpaceOnUse"
   id="clipPath30"><path
     d="m 1116.18,6711.28 0,-686.46 1951,0 0,686.46 -1951,0 z"
     id="path32"
     inkscape:connector-curvature="0" /></clipPath><clipPath
   clipPathUnits="userSpaceOnUse"
   id="clipPath102"><path
     d="m 1116.18,6711.28 0,-686.46 1951,0 0,686.46 -1951,0 z m 75.51,-580.78 17.61,0 0,43.9 -8.67,-35.5 -8.94,35.5 0,-43.9 z m 17.61,577.17 -17.61,0 0,-43.63 8.94,35.23 8.67,-35.23 0,43.63 z"
     clip-rule="evenodd"
     id="path104"
     inkscape:connector-curvature="0" /></clipPath><clipPath
   clipPathUnits="userSpaceOnUse"
   id="clipPath112"><path
     d="m 1116.18,6711.28 0,-686.46 1951,0 0,686.46 -1951,0 z"
     id="path114"
     inkscape:connector-curvature="0" /></clipPath><clipPath
   clipPathUnits="userSpaceOnUse"
   id="clipPath176"><path
     d="m 3100.41,6711.28 0,-686.46 1951,0 0,686.46 -1951,0 z"
     id="path178"
     inkscape:connector-curvature="0" /></clipPath><clipPath
   clipPathUnits="userSpaceOnUse"
   id="clipPath228"><path
     d="m 3100.41,6711.28 0,-686.46 1951,0 0,686.46 -1951,0 z m 75.51,-580.78 17.61,0 0,43.9 -8.67,-35.5 -8.94,35.5 0,-43.9 z m 17.61,577.17 -17.61,0 0,-43.63 8.94,35.23 8.67,-35.23 0,43.63 z"
     clip-rule="evenodd"
     id="path230"
     inkscape:connector-curvature="0" /></clipPath><clipPath
   clipPathUnits="userSpaceOnUse"
   id="clipPath238"><path
     d="m 3100.41,6711.28 0,-686.46 1951,0 0,686.46 -1951,0 z"
     id="path240"
     inkscape:connector-curvature="0" /></clipPath><clipPath
   clipPathUnits="userSpaceOnUse"
   id="clipPath310"><path
     d="m 1084.68,5438.68 0,-686.46 1951,0 0,686.46 -1951,0 z"
     id="path312"
     inkscape:connector-curvature="0" /></clipPath><clipPath
   clipPathUnits="userSpaceOnUse"
   id="clipPath372"><path
     d="m 1084.68,5438.68 0,-686.46 1951,0 0,686.46 -1951,0 z m 75.51,-580.78 17.61,0 0,43.9 -8.67,-35.5 -8.94,35.5 0,-43.9 z m 17.61,577.17 -17.61,0 0,-43.63 8.94,35.23 8.67,-35.23 0,43.63 z"
     clip-rule="evenodd"
     id="path374"
     inkscape:connector-curvature="0" /></clipPath><clipPath
   clipPathUnits="userSpaceOnUse"
   id="clipPath382"><path
     d="m 1084.68,5438.68 0,-686.46 1951,0 0,686.46 -1951,0 z"
     id="path384"
     inkscape:connector-curvature="0" /></clipPath><clipPath
   clipPathUnits="userSpaceOnUse"
   id="clipPath454"><path
     d="m 3068.91,5456.83 0,-704.61 2032,0 0,704.61 -2032,0 z"
     id="path456"
     inkscape:connector-curvature="0" /></clipPath><clipPath
   clipPathUnits="userSpaceOnUse"
   id="clipPath544"><path
     d="m 3068.91,5456.83 0,-704.61 2032,0 0,704.61 -2032,0 z m 76.01,-598.24 17.72,0 0,44.19 -8.72,-35.73 -9,35.73 0,-44.19 z m 17.72,580.96 -17.72,0 0,-43.91 9,35.46 8.72,-35.46 0,43.91 z"
     clip-rule="evenodd"
     id="path546"
     inkscape:connector-curvature="0" /></clipPath><clipPath
   clipPathUnits="userSpaceOnUse"
   id="clipPath554"><path
     d="m 3068.91,5456.83 0,-704.61 2032,0 0,704.61 -2032,0 z"
     id="path556"
     inkscape:connector-curvature="0" /></clipPath>

















</defs><sodipodi:namedview
     pagecolor="#ffffff"
     bordercolor="#666666"
     borderopacity="1"
     objecttolerance="10"
     gridtolerance="10"
     guidetolerance="10"
     inkscape:pageopacity="0"
     inkscape:pageshadow="2"
     inkscape:window-width="1280"
     inkscape:window-height="961"
     id="namedview4"
     showgrid="false"
     fit-margin-top="0"
     fit-margin-left="0"
     fit-margin-right="0"
     fit-margin-bottom="0"
     inkscape:zoom="3.2561304"
     inkscape:cx="105.97396"
     inkscape:cy="11.377038"
     inkscape:window-x="-4"
     inkscape:window-y="-4"
     inkscape:window-maximized="1"
     inkscape:current-layer="g10" /><g
     id="g10"
     inkscape:groupmode="layer"
     inkscape:label="blochfem-accepted"
     transform="matrix(1.25,0,0,-1.25,-139.92187,838.32031)"><path
   inkscape:connector-curvature="0"
   id="path34"
   style="fill:none;stroke:#000000;stroke-width:0.203229;stroke-linecap:butt;stroke-linejoin:miter;stroke-miterlimit:10;stroke-opacity:1;stroke-dasharray:none"
   d="m 160.005,619.147 c 0,-2.305 -1.869,-4.173 -4.173,-4.173 -2.305,0 -4.173,1.868 -4.173,4.173 0,2.304 1.868,4.173 4.173,4.173 2.304,0 4.173,-1.869 4.173,-4.173 z" /><text
   transform="scale(1,-1)"
   id="text38"
   x="154.20599"
   y="-615.89502"><tspan
     style="font-size:8.12917042px;font-variant:normal;font-weight:normal;writing-mode:lr-tb;fill:#000000;fill-opacity:1;fill-rule:nonzero;stroke:none;font-family:Times New Roman;-inkscape-font-specification:Times-Roman"
     x="154.20599"
     y="-615.89502"
     id="tspan40">1</tspan></text>
<g
   id="g3430"><text
     y="-657.76019"
     x="147.70267"
     id="text42"
     transform="scale(1,-1)"><tspan
       id="tspan44"
       y="-657.76019"
       x="147.70267"
       style="font-size:4.87750006px;font-variant:normal;font-weight:normal;writing-mode:lr-tb;fill:#000000;fill-opacity:1;fill-rule:nonzero;stroke:none;font-family:Times New Roman;-inkscape-font-specification:Times-Roman">1</tspan></text>
<text
     y="-660.60541"
     x="142.01225"
     id="text46"
     transform="scale(1,-1)"><tspan
       id="tspan48"
       y="-660.60541"
       x="142.01225"
       style="font-size:9.75500011px;font-variant:normal;font-weight:normal;writing-mode:lr-tb;fill:#000000;fill-opacity:1;fill-rule:nonzero;stroke:none;font-family:Symbol;-inkscape-font-specification:Symbol">φ</tspan></text>
</g><g
   id="g3412"><text
     style="fill:#000000"
     y="-658.97998"
     x="259.07199"
     id="text52"
     transform="scale(1,-1)"><tspan
       id="tspan54"
       y="-658.97998"
       x="259.07199"
       style="font-size:4.87750006px;font-variant:normal;font-weight:normal;writing-mode:lr-tb;fill:#000000;fill-opacity:1;fill-rule:nonzero;stroke:none;font-family:Times New Roman;-inkscape-font-specification:Times-Roman">3</tspan></text>
<text
     style="fill:#000000"
     y="-661.8252"
     x="253.38158"
     id="text56"
     transform="scale(1,-1)"><tspan
       id="tspan58"
       y="-661.8252"
       x="253.38158"
       style="font-size:9.75500011px;font-variant:normal;font-weight:normal;writing-mode:lr-tb;fill:#000000;fill-opacity:1;fill-rule:nonzero;stroke:none;font-family:Symbol;-inkscape-font-specification:Symbol">φ</tspan></text>
</g><g
   id="g3424"
   style="fill:#000000"><text
     y="-658.16699"
     x="203.38699"
     id="text62"
     transform="scale(1,-1)"
     style="fill:#000000"><tspan
       id="tspan64"
       y="-658.16699"
       x="203.38699"
       style="font-size:4.87750006px;font-variant:normal;font-weight:normal;writing-mode:lr-tb;fill:#000000;fill-opacity:1;fill-rule:nonzero;stroke:none;font-family:Times New Roman;-inkscape-font-specification:Times-Roman">2</tspan></text>
<text
     y="-661.01221"
     x="197.69659"
     id="text66"
     transform="scale(1,-1)"
     style="fill:#000000"><tspan
       id="tspan68"
       y="-661.01221"
       x="197.69659"
       style="font-size:9.75500011px;font-variant:normal;font-weight:normal;writing-mode:lr-tb;fill:#000000;fill-opacity:1;fill-rule:nonzero;stroke:none;font-family:Symbol;-inkscape-font-specification:Symbol">φ</tspan></text>
</g><g
   id="g3418"
   style="fill:#000000"><text
     y="-657.354"
     x="303.78201"
     id="text72"
     transform="scale(1,-1)"
     style="fill:#000000"><tspan
       id="tspan74"
       y="-657.354"
       x="303.78201"
       style="font-size:4.87750006px;font-variant:normal;font-weight:normal;writing-mode:lr-tb;fill:#000000;fill-opacity:1;fill-rule:nonzero;stroke:none;font-family:Times New Roman;-inkscape-font-specification:Times-Roman">4</tspan></text>
<text
     y="-660.19922"
     x="298.09158"
     id="text76"
     transform="scale(1,-1)"
     style="fill:#000000"><tspan
       id="tspan78"
       y="-660.19922"
       x="298.09158"
       style="font-size:9.75500011px;font-variant:normal;font-weight:normal;writing-mode:lr-tb;fill:#000000;fill-opacity:1;fill-rule:nonzero;stroke:none;font-family:Symbol;-inkscape-font-specification:Symbol">φ</tspan></text>
</g><path
   inkscape:connector-curvature="0"
   id="path80"
   style="fill:none;stroke:#000000;stroke-width:0.203229;stroke-linecap:butt;stroke-linejoin:miter;stroke-miterlimit:10;stroke-opacity:1;stroke-dasharray:none"
   d="m 187.4,613.456 c 0,-1.272 -1.031,-2.303 -2.303,-2.303 -1.272,0 -2.304,1.031 -2.304,2.303 0,1.272 1.032,2.304 2.304,2.304 1.272,0 2.303,-1.032 2.303,-2.304 z" /><path
   inkscape:connector-curvature="0"
   id="path82"
   style="fill:none;stroke:#000000;stroke-width:0.203229;stroke-linecap:butt;stroke-linejoin:miter;stroke-miterlimit:10;stroke-opacity:1;stroke-dasharray:none"
   d="m 301.208,613.456 c 0,-1.272 -1.031,-2.303 -2.303,-2.303 -1.272,0 -2.303,1.031 -2.303,2.303 0,1.272 1.031,2.304 2.303,2.304 1.272,0 2.303,-1.032 2.303,-2.304 z" /><path
   inkscape:connector-curvature="0"
   id="path84"
   style="fill:none;stroke:#000000;stroke-width:0.203229;stroke-linecap:butt;stroke-linejoin:miter;stroke-miterlimit:10;stroke-opacity:1;stroke-dasharray:none"
   d="m 130.496,613.456 c 0,-1.272 -1.032,-2.303 -2.304,-2.303 -1.272,0 -2.303,1.031 -2.303,2.303 0,1.272 1.031,2.304 2.303,2.304 1.272,0 2.304,-1.032 2.304,-2.304 z" /><path
   inkscape:connector-curvature="0"
   id="path86"
   style="fill:none;stroke:#000000;stroke-width:0.203229;stroke-linecap:butt;stroke-linejoin:miter;stroke-miterlimit:10;stroke-opacity:1;stroke-dasharray:none"
   d="m 274.517,619.147 c 0,-2.305 -1.868,-4.173 -4.173,-4.173 -2.304,0 -4.173,1.868 -4.173,4.173 0,2.304 1.869,4.173 4.173,4.173 2.305,0 4.173,-1.869 4.173,-4.173 z" /><path
   inkscape:connector-curvature="0"
   id="path88"
   style="fill:none;stroke:#000000;stroke-width:0.203229;stroke-linecap:butt;stroke-linejoin:miter;stroke-miterlimit:10;stroke-opacity:1;stroke-dasharray:none"
   d="m 218.02,619.147 c 0,-2.305 -1.869,-4.173 -4.173,-4.173 -2.305,0 -4.173,1.868 -4.173,4.173 0,2.304 1.868,4.173 4.173,4.173 2.304,0 4.173,-1.869 4.173,-4.173 z" /><path
   inkscape:connector-curvature="0"
   id="path90"
   style="fill:none;stroke:#000000;stroke-width:0.203229;stroke-linecap:butt;stroke-linejoin:miter;stroke-miterlimit:10;stroke-opacity:1;stroke-dasharray:none"
   d="m 244.304,613.456 c 0,-1.272 -1.031,-2.303 -2.303,-2.303 -1.272,0 -2.304,1.031 -2.304,2.303 0,1.272 1.032,2.304 2.304,2.304 1.272,0 2.303,-1.032 2.303,-2.304 z" /><path
   inkscape:connector-curvature="0"
   id="path92"
   style="fill:none;stroke:#000000;stroke-width:0.40645799;stroke-linecap:butt;stroke-linejoin:miter;stroke-miterlimit:10;stroke-opacity:1;stroke-dasharray:none"
   d="m 128.192,613.456 56.905,56.905 56.904,-56.905" /><path
   inkscape:connector-curvature="0"
   id="path94"
   style="fill:none;stroke:#000000;stroke-width:0.40645799;stroke-linecap:butt;stroke-linejoin:miter;stroke-miterlimit:10;stroke-opacity:1;stroke-dasharray:none"
   d="m 242.001,613.456 56.904,56.905" /><path
   inkscape:connector-curvature="0"
   id="path96"
   style="fill:none;stroke:#000000;stroke-width:0.203229;stroke-linecap:butt;stroke-linejoin:miter;stroke-miterlimit:10;stroke-opacity:1;stroke-dasharray:none"
   d="m 111.934,613.456 15.771,0" /><g
   id="g98"
   transform="scale(0.1,0.1)"><g
     clip-path="url(#clipPath102)"
     id="g100"><path
       inkscape:connector-curvature="0"
       id="path106"
       style="fill:none;stroke:#000000;stroke-width:2.03228998;stroke-linecap:butt;stroke-linejoin:miter;stroke-miterlimit:10;stroke-opacity:1;stroke-dasharray:none"
       d="m 1200.63,6703.61 0,-569.05" /></g></g><path
   inkscape:connector-curvature="0"
   id="path116"
   style="fill:#000000;fill-opacity:1;fill-rule:evenodd;stroke:none"
   d="m 120.93,666.404 -0.867,3.523 -0.894,-3.523 1.761,0" /><path
   inkscape:connector-curvature="0"
   id="path118"
   style="fill:none;stroke:#000000;stroke-width:0.203229;stroke-linecap:butt;stroke-linejoin:miter;stroke-miterlimit:10;stroke-opacity:1;stroke-dasharray:none"
   d="m 120.93,666.404 -0.867,3.523 -0.894,-3.523 1.761,0 z" /><path
   inkscape:connector-curvature="0"
   id="path120"
   style="fill:#000000;fill-opacity:1;fill-rule:evenodd;stroke:none"
   d="m 119.169,617.44 0.894,-3.55 0.867,3.55 -1.761,0" /><path
   inkscape:connector-curvature="0"
   id="path122"
   style="fill:none;stroke:#000000;stroke-width:0.203229;stroke-linecap:butt;stroke-linejoin:miter;stroke-miterlimit:10;stroke-opacity:1;stroke-dasharray:none"
   d="m 119.169,617.44 0.894,-3.55 0.867,3.55 -1.761,0 z" /><path
   inkscape:connector-curvature="0"
   id="path124"
   style="fill:none;stroke:#000000;stroke-width:0.203229;stroke-linecap:butt;stroke-linejoin:miter;stroke-miterlimit:10;stroke-opacity:1;stroke-dasharray:none"
   d="m 111.934,670.361 15.771,0" /><path
   inkscape:connector-curvature="0"
   id="path126"
   style="fill:none;stroke:#000000;stroke-width:0.40645799;stroke-linecap:butt;stroke-linejoin:miter;stroke-miterlimit:10;stroke-opacity:1;stroke-dasharray:none"
   d="m 128.192,670.361 56.905,-56.905" /><path
   inkscape:connector-curvature="0"
   id="path128"
   style="fill:none;stroke:#000000;stroke-width:0.203229;stroke-linecap:butt;stroke-linejoin:miter;stroke-miterlimit:10;stroke-opacity:1;stroke-dasharray:none"
   d="m 127.786,613.456 171.00092,-0.081"
   sodipodi:nodetypes="cc" /><path
   inkscape:connector-curvature="0"
   id="path130"
   style="fill:none;stroke:#000000;stroke-width:0.40645799;stroke-linecap:butt;stroke-linejoin:miter;stroke-miterlimit:10;stroke-opacity:1;stroke-dasharray:none"
   d="m 185.097,613.456 56.904,56.905 56.904,-56.905" /><g
   id="g132"><text
   id="text134"
   transform="matrix(1,0,0,-1,113.966,637.844)"><tspan
     id="tspan136"
     y="0"
     x="0"
     style="font-size:9.75500011px;font-variant:normal;font-weight:normal;writing-mode:lr-tb;fill:#000000;fill-opacity:1;fill-rule:nonzero;stroke:none;font-family:Times New Roman;-inkscape-font-specification:Times-Roman">1</tspan><tspan
     id="tspan138"
     y="35.3619"
     x="11.7873"
     style="font-size:9.75500011px;font-variant:normal;font-weight:normal;writing-mode:lr-tb;fill:#000000;fill-opacity:1;fill-rule:nonzero;stroke:none;font-family:Times New Roman;-inkscape-font-specification:Times-Roman">1</tspan></text>


</g><g
   id="g140"
   style="fill:#000000"><text
   id="text142"
   transform="matrix(1,0,0,-1,182.251,602.482)"
   style="fill:#000000"><tspan
     id="tspan144"
     y="0"
     x="0"
     style="font-size:9.75500011px;font-variant:normal;font-weight:normal;writing-mode:lr-tb;fill:#000000;fill-opacity:1;fill-rule:nonzero;stroke:none;font-family:Times New Roman;-inkscape-font-specification:Times-Roman">2</tspan></text>


</g><g
   id="g146"
   style="fill:#000000"><text
   id="text148"
   transform="matrix(1,0,0,-1,296.06,602.482)"
   style="fill:#000000"><tspan
     id="tspan150"
     y="0"
     x="0"
     style="font-size:9.75500011px;font-variant:normal;font-weight:normal;writing-mode:lr-tb;fill:#000000;fill-opacity:1;fill-rule:nonzero;stroke:none;font-family:Times New Roman;-inkscape-font-specification:Times-Roman">4</tspan></text>


</g><g
   id="g152"><text
   id="text154"
   transform="matrix(1,0,0,-1,212.221,615.787)"><tspan
     id="tspan156"
     sodipodi:role="line"
     y="0"
     x="0 56.4977"
     style="font-size:8.12917042px;font-variant:normal;font-weight:normal;writing-mode:lr-tb;fill:#000000;fill-opacity:1;fill-rule:nonzero;stroke:none;font-family:Times New Roman;-inkscape-font-specification:Times-Roman">23</tspan></text>


</g><g
   id="g158"
   style="fill:#000000"><text
   id="text160"
   transform="matrix(1,0,0,-1,239.968,602.482)"
   style="fill:#000000"><tspan
     id="tspan162"
     y="0"
     x="0"
     style="font-size:9.75500011px;font-variant:normal;font-weight:normal;writing-mode:lr-tb;fill:#000000;fill-opacity:1;fill-rule:nonzero;stroke:none;font-family:Times New Roman;-inkscape-font-specification:Times-Roman">3</tspan></text>


</g>

<text
   id="text764"
   transform="scale(1,-1)"
   x="144.91106"
   y="-107.248"><tspan
     id="tspan766"
     y="-107.248"
     x="144.91106"
     style="font-size:7.97010994px;font-variant:normal;font-weight:normal;writing-mode:lr-tb;fill:#000000;fill-opacity:1;fill-rule:nonzero;stroke:none;font-family:CMSY8;-inkscape-font-specification:CMSY8" /></text>


</g></svg>