<?xml version="1.0" encoding="UTF-8" standalone="no"?>
<!-- Created with Inkscape (http://www.inkscape.org/) -->

<svg
   xmlns:dc="http://purl.org/dc/elements/1.1/"
   xmlns:cc="http://creativecommons.org/ns#"
   xmlns:rdf="http://www.w3.org/1999/02/22-rdf-syntax-ns#"
   xmlns:svg="http://www.w3.org/2000/svg"
   xmlns="http://www.w3.org/2000/svg"
   xmlns:sodipodi="http://sodipodi.sourceforge.net/DTD/sodipodi-0.dtd"
   xmlns:inkscape="http://www.inkscape.org/namespaces/inkscape"
   id="svg2"
   version="1.1"
   inkscape:version="0.48.1 "
   width="236.71875"
   height="85.360718"
   xml:space="preserve"
   sodipodi:docname="periodic-interpolation-b.svg"><metadata
     id="metadata8"><rdf:RDF><cc:Work
         rdf:about=""><dc:format>image/svg+xml</dc:format><dc:type
           rdf:resource="http://purl.org/dc/dcmitype/StillImage" /><dc:title /></cc:Work></rdf:RDF></metadata><defs
     id="defs6"><clipPath
   clipPathUnits="userSpaceOnUse"
   id="clipPath30"><path
     d="m 1116.18,6711.28 0,-686.46 1951,0 0,686.46 -1951,0 z"
     id="path32"
     inkscape:connector-curvature="0" /></clipPath><clipPath
   clipPathUnits="userSpaceOnUse"
   id="clipPath102"><path
     d="m 1116.18,6711.28 0,-686.46 1951,0 0,686.46 -1951,0 z m 75.51,-580.78 17.61,0 0,43.9 -8.67,-35.5 -8.94,35.5 0,-43.9 z m 17.61,577.17 -17.61,0 0,-43.63 8.94,35.23 8.67,-35.23 0,43.63 z"
     clip-rule="evenodd"
     id="path104"
     inkscape:connector-curvature="0" /></clipPath><clipPath
   clipPathUnits="userSpaceOnUse"
   id="clipPath112"><path
     d="m 1116.18,6711.28 0,-686.46 1951,0 0,686.46 -1951,0 z"
     id="path114"
     inkscape:connector-curvature="0" /></clipPath><clipPath
   clipPathUnits="userSpaceOnUse"
   id="clipPath176"><path
     d="m 3100.41,6711.28 0,-686.46 1951,0 0,686.46 -1951,0 z"
     id="path178"
     inkscape:connector-curvature="0" /></clipPath><clipPath
   clipPathUnits="userSpaceOnUse"
   id="clipPath228"><path
     d="m 3100.41,6711.28 0,-686.46 1951,0 0,686.46 -1951,0 z m 75.51,-580.78 17.61,0 0,43.9 -8.67,-35.5 -8.94,35.5 0,-43.9 z m 17.61,577.17 -17.61,0 0,-43.63 8.94,35.23 8.67,-35.23 0,43.63 z"
     clip-rule="evenodd"
     id="path230"
     inkscape:connector-curvature="0" /></clipPath><clipPath
   clipPathUnits="userSpaceOnUse"
   id="clipPath238"><path
     d="m 3100.41,6711.28 0,-686.46 1951,0 0,686.46 -1951,0 z"
     id="path240"
     inkscape:connector-curvature="0" /></clipPath><clipPath
   clipPathUnits="userSpaceOnUse"
   id="clipPath310"><path
     d="m 1084.68,5438.68 0,-686.46 1951,0 0,686.46 -1951,0 z"
     id="path312"
     inkscape:connector-curvature="0" /></clipPath><clipPath
   clipPathUnits="userSpaceOnUse"
   id="clipPath372"><path
     d="m 1084.68,5438.68 0,-686.46 1951,0 0,686.46 -1951,0 z m 75.51,-580.78 17.61,0 0,43.9 -8.67,-35.5 -8.94,35.5 0,-43.9 z m 17.61,577.17 -17.61,0 0,-43.63 8.94,35.23 8.67,-35.23 0,43.63 z"
     clip-rule="evenodd"
     id="path374"
     inkscape:connector-curvature="0" /></clipPath><clipPath
   clipPathUnits="userSpaceOnUse"
   id="clipPath382"><path
     d="m 1084.68,5438.68 0,-686.46 1951,0 0,686.46 -1951,0 z"
     id="path384"
     inkscape:connector-curvature="0" /></clipPath><clipPath
   clipPathUnits="userSpaceOnUse"
   id="clipPath454"><path
     d="m 3068.91,5456.83 0,-704.61 2032,0 0,704.61 -2032,0 z"
     id="path456"
     inkscape:connector-curvature="0" /></clipPath><clipPath
   clipPathUnits="userSpaceOnUse"
   id="clipPath544"><path
     d="m 3068.91,5456.83 0,-704.61 2032,0 0,704.61 -2032,0 z m 76.01,-598.24 17.72,0 0,44.19 -8.72,-35.73 -9,35.73 0,-44.19 z m 17.72,580.96 -17.72,0 0,-43.91 9,35.46 8.72,-35.46 0,43.91 z"
     clip-rule="evenodd"
     id="path546"
     inkscape:connector-curvature="0" /></clipPath><clipPath
   clipPathUnits="userSpaceOnUse"
   id="clipPath554"><path
     d="m 3068.91,5456.83 0,-704.61 2032,0 0,704.61 -2032,0 z"
     id="path556"
     inkscape:connector-curvature="0" /></clipPath>




















</defs><sodipodi:namedview
     pagecolor="#ffffff"
     bordercolor="#666666"
     borderopacity="1"
     objecttolerance="10"
     gridtolerance="10"
     guidetolerance="10"
     inkscape:pageopacity="0"
     inkscape:pageshadow="2"
     inkscape:window-width="1280"
     inkscape:window-height="961"
     id="namedview4"
     showgrid="false"
     fit-margin-top="0"
     fit-margin-left="0"
     fit-margin-right="0"
     fit-margin-bottom="0"
     inkscape:zoom="4.849637"
     inkscape:cx="118.35938"
     inkscape:cy="42.680359"
     inkscape:window-x="-4"
     inkscape:window-y="-4"
     inkscape:window-maximized="1"
     inkscape:current-layer="g10" /><g
     id="g10"
     inkscape:groupmode="layer"
     inkscape:label="blochfem-accepted"
     transform="matrix(1.25,0,0,-1.25,-387.92969,838.32031)"><path
   inkscape:connector-curvature="0"
   id="path180"
   style="fill:none;stroke:#000000;stroke-width:0.203229;stroke-linecap:butt;stroke-linejoin:miter;stroke-miterlimit:10;stroke-opacity:1;stroke-dasharray:none"
   d="m 358.428,619.147 c 0,-2.305 -1.869,-4.173 -4.173,-4.173 -2.305,0 -4.173,1.868 -4.173,4.173 0,2.304 1.868,4.173 4.173,4.173 2.304,0 4.173,-1.869 4.173,-4.173 z" /><g
   id="g182"
   transform="translate(-0.3474587,0)"><text
   id="text184"
   transform="matrix(1,0,0,-1,352.629,615.895)"><tspan
     id="tspan186"
     y="0"
     x="0"
     style="font-size:8.12917042px;font-variant:normal;font-weight:normal;writing-mode:lr-tb;fill:#000000;fill-opacity:1;fill-rule:nonzero;stroke:none;font-family:Times New Roman;-inkscape-font-specification:Times-Roman">1</tspan></text>



</g><g
   id="g188"
   style="fill:#000000"><text
   id="text190"
   transform="matrix(1,0,0,-1,457.495,658.98)"
   style="fill:#000000"><tspan
     id="tspan192"
     y="0"
     x="0"
     style="font-size:4.87750006px;font-variant:normal;font-weight:normal;writing-mode:lr-tb;fill:#000000;fill-opacity:1;fill-rule:nonzero;stroke:none;font-family:Times New Roman;-inkscape-font-specification:Times-Roman">3</tspan></text>



<text
   id="text194"
   transform="matrix(1,0,0,-1,451.80457,661.82521)"
   style="fill:#000000"><tspan
     id="tspan196"
     y="0"
     x="0"
     style="font-size:9.75500011px;font-variant:normal;font-weight:normal;writing-mode:lr-tb;fill:#000000;fill-opacity:1;fill-rule:nonzero;stroke:none;font-family:Symbol;-inkscape-font-specification:Symbol">φ</tspan></text>



</g><g
   id="g198"
   style="fill:#000000"><text
   id="text200"
   transform="matrix(1,0,0,-1,401.81,658.167)"
   style="fill:#000000"><tspan
     id="tspan202"
     y="0"
     x="0"
     style="font-size:4.87750006px;font-variant:normal;font-weight:normal;writing-mode:lr-tb;fill:#000000;fill-opacity:1;fill-rule:nonzero;stroke:none;font-family:Times New Roman;-inkscape-font-specification:Times-Roman">2</tspan></text>



<text
   id="text204"
   transform="matrix(1,0,0,-1,396.11959,661.01221)"
   style="fill:#000000"><tspan
     id="tspan206"
     y="0"
     x="0"
     style="font-size:9.75500011px;font-variant:normal;font-weight:normal;writing-mode:lr-tb;fill:#000000;fill-opacity:1;fill-rule:nonzero;stroke:none;font-family:Symbol;-inkscape-font-specification:Symbol">φ</tspan></text>



</g><path
   inkscape:connector-curvature="0"
   id="path208"
   style="fill:none;stroke:#000000;stroke-width:0.203229;stroke-linecap:butt;stroke-linejoin:miter;stroke-miterlimit:10;stroke-opacity:1;stroke-dasharray:none"
   d="m 385.823,613.456 c 0,-1.272 -1.031,-2.303 -2.303,-2.303 -1.272,0 -2.304,1.031 -2.304,2.303 0,1.272 1.032,2.304 2.304,2.304 1.272,0 2.303,-1.032 2.303,-2.304 z" /><path
   inkscape:connector-curvature="0"
   id="path210"
   style="fill:none;stroke:#000000;stroke-width:0.203229;stroke-linecap:butt;stroke-linejoin:miter;stroke-miterlimit:10;stroke-opacity:1;stroke-dasharray:none"
   d="m 499.631,613.456 c 0,-1.272 -1.031,-2.303 -2.303,-2.303 -1.272,0 -2.303,1.031 -2.303,2.303 0,1.272 1.031,2.304 2.303,2.304 1.272,0 2.303,-1.032 2.303,-2.304 z" /><path
   inkscape:connector-curvature="0"
   id="path212"
   style="fill:none;stroke:#000000;stroke-width:0.203229;stroke-linecap:butt;stroke-linejoin:miter;stroke-miterlimit:10;stroke-opacity:1;stroke-dasharray:none"
   d="m 328.919,613.456 c 0,-1.272 -1.032,-2.303 -2.304,-2.303 -1.272,0 -2.303,1.031 -2.303,2.303 0,1.272 1.031,2.304 2.303,2.304 1.272,0 2.304,-1.032 2.304,-2.304 z" /><path
   inkscape:connector-curvature="0"
   id="path214"
   style="fill:none;stroke:#000000;stroke-width:0.203229;stroke-linecap:butt;stroke-linejoin:miter;stroke-miterlimit:10;stroke-opacity:1;stroke-dasharray:none"
   d="m 472.94,619.147 c 0,-2.305 -1.868,-4.173 -4.173,-4.173 -2.304,0 -4.173,1.868 -4.173,4.173 0,2.304 1.869,4.173 4.173,4.173 2.305,0 4.173,-1.869 4.173,-4.173 z" /><path
   inkscape:connector-curvature="0"
   id="path216"
   style="fill:none;stroke:#000000;stroke-width:0.203229;stroke-linecap:butt;stroke-linejoin:miter;stroke-miterlimit:10;stroke-opacity:1;stroke-dasharray:none"
   d="m 416.443,619.147 c 0,-2.305 -1.869,-4.173 -4.173,-4.173 -2.305,0 -4.173,1.868 -4.173,4.173 0,2.304 1.868,4.173 4.173,4.173 2.304,0 4.173,-1.869 4.173,-4.173 z" /><path
   inkscape:connector-curvature="0"
   id="path218"
   style="fill:none;stroke:#000000;stroke-width:0.203229;stroke-linecap:butt;stroke-linejoin:miter;stroke-miterlimit:10;stroke-opacity:1;stroke-dasharray:none"
   d="m 442.727,613.456 c 0,-1.272 -1.031,-2.303 -2.303,-2.303 -1.272,0 -2.304,1.031 -2.304,2.303 0,1.272 1.032,2.304 2.304,2.304 1.272,0 2.303,-1.032 2.303,-2.304 z" /><path
   inkscape:connector-curvature="0"
   id="path220"
   style="fill:none;stroke:#000000;stroke-width:0.40645799;stroke-linecap:butt;stroke-linejoin:miter;stroke-miterlimit:10;stroke-opacity:1;stroke-dasharray:none"
   d="m 326.615,613.456 56.905,56.905 56.904,-56.905" /><path
   inkscape:connector-curvature="0"
   id="path222"
   style="fill:none;stroke:#000000;stroke-width:0.203229;stroke-linecap:butt;stroke-linejoin:miter;stroke-miterlimit:10;stroke-opacity:1;stroke-dasharray:none"
   d="m 310.357,613.456 15.771,0" /><g
   id="g224"
   transform="scale(0.1,0.1)"><g
     clip-path="url(#clipPath228)"
     id="g226"><path
       inkscape:connector-curvature="0"
       id="path232"
       style="fill:none;stroke:#000000;stroke-width:2.03228998;stroke-linecap:butt;stroke-linejoin:miter;stroke-miterlimit:10;stroke-opacity:1;stroke-dasharray:none"
       d="m 3184.86,6703.61 0,-569.05" /></g></g><path
   inkscape:connector-curvature="0"
   id="path242"
   style="fill:#000000;fill-opacity:1;fill-rule:evenodd;stroke:none"
   d="m 319.353,666.404 -0.867,3.523 -0.894,-3.523 1.761,0" /><path
   inkscape:connector-curvature="0"
   id="path244"
   style="fill:none;stroke:#000000;stroke-width:0.203229;stroke-linecap:butt;stroke-linejoin:miter;stroke-miterlimit:10;stroke-opacity:1;stroke-dasharray:none"
   d="m 319.353,666.404 -0.867,3.523 -0.894,-3.523 1.761,0 z" /><path
   inkscape:connector-curvature="0"
   id="path246"
   style="fill:#000000;fill-opacity:1;fill-rule:evenodd;stroke:none"
   d="m 317.592,617.44 0.894,-3.55 0.867,3.55 -1.761,0" /><path
   inkscape:connector-curvature="0"
   id="path248"
   style="fill:none;stroke:#000000;stroke-width:0.203229;stroke-linecap:butt;stroke-linejoin:miter;stroke-miterlimit:10;stroke-opacity:1;stroke-dasharray:none"
   d="m 317.592,617.44 0.894,-3.55 0.867,3.55 -1.761,0 z" /><path
   inkscape:connector-curvature="0"
   id="path250"
   style="fill:none;stroke:#000000;stroke-width:0.203229;stroke-linecap:butt;stroke-linejoin:miter;stroke-miterlimit:10;stroke-opacity:1;stroke-dasharray:none"
   d="m 310.357,670.361 15.771,0" /><path
   inkscape:connector-curvature="0"
   id="path252"
   style="fill:none;stroke:#000000;stroke-width:0.203229;stroke-linecap:butt;stroke-linejoin:miter;stroke-miterlimit:10;stroke-opacity:1;stroke-dasharray:none"
   d="m 326.209,613.456 170.306,-0.081" /><path
   inkscape:connector-curvature="0"
   id="path254"
   style="fill:none;stroke:#000000;stroke-width:0.40645799;stroke-linecap:butt;stroke-linejoin:miter;stroke-miterlimit:10;stroke-opacity:1;stroke-dasharray:none"
   d="m 383.52,613.456 56.904,56.905 56.904,-56.905" /><text
   transform="scale(1,-1)"
   id="text258"
   x="312.38901"
   y="-637.84399"><tspan
     style="font-size:9.75500011px;font-variant:normal;font-weight:normal;writing-mode:lr-tb;fill:#000000;fill-opacity:1;fill-rule:nonzero;stroke:none;font-family:Times New Roman;-inkscape-font-specification:Times-Roman"
     x="312.38901"
     y="-637.84399"
     id="tspan260">1</tspan><tspan
     style="font-size:9.75500011px;font-variant:normal;font-weight:normal;writing-mode:lr-tb;fill:#000000;fill-opacity:1;fill-rule:nonzero;stroke:none;font-family:Times New Roman;-inkscape-font-specification:Times-Roman"
     x="324.1763"
     y="-602.48212"
     id="tspan262">1</tspan></text>
<text
   transform="scale(1,-1)"
   id="text266"
   x="380.67401"
   y="-602.48199"
   style="fill:#000000"><tspan
     style="font-size:9.75500011px;font-variant:normal;font-weight:normal;writing-mode:lr-tb;fill:#000000;fill-opacity:1;fill-rule:nonzero;stroke:none;font-family:Times New Roman;-inkscape-font-specification:Times-Roman"
     x="380.67401"
     y="-602.48199"
     id="tspan268">2</tspan></text>
<text
   transform="scale(1,-1)"
   id="text272"
   x="494.483"
   y="-602.48199"
   style="fill:#000000"><tspan
     style="font-size:9.75500011px;font-variant:normal;font-weight:normal;writing-mode:lr-tb;fill:#000000;fill-opacity:1;fill-rule:nonzero;stroke:none;font-family:Times New Roman;-inkscape-font-specification:Times-Roman"
     x="494.483"
     y="-602.48199"
     id="tspan274">4</tspan></text>
<text
   transform="scale(1,-1)"
   id="text278"
   x="410.29654"
   y="-616.13446"><tspan
     style="font-size:8.12917042px;font-variant:normal;font-weight:normal;writing-mode:lr-tb;fill:#000000;fill-opacity:1;fill-rule:nonzero;stroke:none;font-family:Times New Roman;-inkscape-font-specification:Times-Roman"
     x="410.29654 466.79422"
     y="-616.13446"
     sodipodi:role="line"
     id="tspan280">23</tspan></text>
<text
   transform="scale(1,-1)"
   id="text284"
   x="438.39099"
   y="-602.48199"
   style="fill:#000000"><tspan
     style="font-size:9.75500011px;font-variant:normal;font-weight:normal;writing-mode:lr-tb;fill:#000000;fill-opacity:1;fill-rule:nonzero;stroke:none;font-family:Times New Roman;-inkscape-font-specification:Times-Roman"
     x="438.39099"
     y="-602.48199"
     id="tspan286">3</tspan></text>



<text
   id="text764"
   transform="scale(1,-1)"
   x="144.91106"
   y="-107.248"><tspan
     id="tspan766"
     y="-107.248"
     x="144.91106"
     style="font-size:7.97010994px;font-variant:normal;font-weight:normal;writing-mode:lr-tb;fill:#000000;fill-opacity:1;fill-rule:nonzero;stroke:none;font-family:CMSY8;-inkscape-font-specification:CMSY8" /></text>



</g></svg>