<?xml version="1.0" encoding="UTF-8" standalone="no"?>
<!-- Created with Inkscape (http://www.inkscape.org/) -->

<svg
   xmlns:dc="http://purl.org/dc/elements/1.1/"
   xmlns:cc="http://creativecommons.org/ns#"
   xmlns:rdf="http://www.w3.org/1999/02/22-rdf-syntax-ns#"
   xmlns:svg="http://www.w3.org/2000/svg"
   xmlns="http://www.w3.org/2000/svg"
   xmlns:xlink="http://www.w3.org/1999/xlink"
   xmlns:sodipodi="http://sodipodi.sourceforge.net/DTD/sodipodi-0.dtd"
   xmlns:inkscape="http://www.inkscape.org/namespaces/inkscape"
   id="svg2"
   version="1.1"
   inkscape:version="0.48.0 r9654"
   width="553"
   height="585"
   sodipodi:docname="Equilibrium_equation_body.svg">
  <metadata
     id="metadata8">
    <rdf:RDF>
      <cc:Work
         rdf:about="">
        <dc:format>image/svg+xml</dc:format>
        <dc:type
           rdf:resource="http://purl.org/dc/dcmitype/StillImage" />
        <dc:title />
      </cc:Work>
    </rdf:RDF>
  </metadata>
  <defs
     id="defs6">
    <marker
       inkscape:stockid="TriangleOutL"
       orient="auto"
       refY="0.0"
       refX="0.0"
       id="TriangleOutL"
       style="overflow:visible">
      <path
         id="path4328"
         d="M 5.77,0.0 L -2.88,5.0 L -2.88,-5.0 L 5.77,0.0 z "
         style="fill-rule:evenodd;stroke:#000000;stroke-width:1.0pt;marker-start:none"
         transform="scale(0.8)" />
    </marker>
    <marker
       inkscape:stockid="Arrow1Lend"
       orient="auto"
       refY="0.0"
       refX="0.0"
       id="Arrow1Lend"
       style="overflow:visible;">
      <path
         id="path4188"
         d="M 0.0,0.0 L 5.0,-5.0 L -12.5,0.0 L 5.0,5.0 L 0.0,0.0 z "
         style="fill-rule:evenodd;stroke:#000000;stroke-width:1.0pt;marker-start:none;"
         transform="scale(0.8) rotate(180) translate(12.5,0)" />
    </marker>
    <linearGradient
       id="linearGradient3775">
      <stop
         style="stop-color:#b7cba7;stop-opacity:1;"
         offset="0"
         id="stop3777" />
      <stop
         style="stop-color:#628650;stop-opacity:1;"
         offset="1"
         id="stop3779" />
    </linearGradient>
    <linearGradient
       id="linearGradient3757">
      <stop
         style="stop-color:#cce484;stop-opacity:1;"
         offset="0"
         id="stop3759" />
      <stop
         style="stop-color:#97a478;stop-opacity:1;"
         offset="1"
         id="stop3761" />
    </linearGradient>
    <radialGradient
       inkscape:collect="always"
       xlink:href="#linearGradient3757"
       id="radialGradient3763"
       cx="314.92499"
       cy="260.8125"
       fx="314.92499"
       fy="260.8125"
       r="197.11277"
       gradientTransform="matrix(0.80843839,-0.01409767,0.01695152,0.38515222,55.90637,164.79972)"
       gradientUnits="userSpaceOnUse" />
    <radialGradient
       inkscape:collect="always"
       xlink:href="#linearGradient3775"
       id="radialGradient3783"
       cx="284.56412"
       cy="229.68892"
       fx="284.56412"
       fy="229.68892"
       r="17.81875"
       gradientTransform="matrix(0.96235711,-0.27178812,0.36934408,1.3077867,-74.474043,6.2038985)"
       gradientUnits="userSpaceOnUse" />
    <marker
       inkscape:stockid="TriangleOutL"
       orient="auto"
       refY="0"
       refX="0"
       id="TriangleOutL-6"
       style="overflow:visible">
      <path
         inkscape:connector-curvature="0"
         id="path4328-2"
         d="m 5.77,0 -8.65,5 0,-10 8.65,5 z"
         style="fill-rule:evenodd;stroke:#000000;stroke-width:1pt;marker-start:none"
         transform="scale(0.8,0.8)" />
    </marker>
    <marker
       inkscape:stockid="TriangleOutL"
       orient="auto"
       refY="0"
       refX="0"
       id="TriangleOutL-6-4"
       style="overflow:visible">
      <path
         inkscape:connector-curvature="0"
         id="path4328-2-1"
         d="m 5.77,0 -8.65,5 0,-10 8.65,5 z"
         style="fill-rule:evenodd;stroke:#000000;stroke-width:1pt;marker-start:none"
         transform="scale(0.8,0.8)" />
    </marker>
    <marker
       inkscape:stockid="TriangleOutL"
       orient="auto"
       refY="0"
       refX="0"
       id="TriangleOutL-6-2"
       style="overflow:visible">
      <path
         inkscape:connector-curvature="0"
         id="path4328-2-6"
         d="m 5.77,0 -8.65,5 0,-10 8.65,5 z"
         style="fill-rule:evenodd;stroke:#000000;stroke-width:1pt;marker-start:none"
         transform="scale(0.8,0.8)" />
    </marker>
  </defs>
  <sodipodi:namedview
     pagecolor="#ffffff"
     bordercolor="#666666"
     borderopacity="1"
     objecttolerance="10"
     gridtolerance="10"
     guidetolerance="10"
     inkscape:pageopacity="0"
     inkscape:pageshadow="2"
     inkscape:window-width="1440"
     inkscape:window-height="823"
     id="namedview4"
     showgrid="false"
     inkscape:zoom="1.025641"
     inkscape:cx="276.5"
     inkscape:cy="292.5"
     inkscape:window-x="0"
     inkscape:window-y="24"
     inkscape:window-maximized="1"
     inkscape:current-layer="svg2" />
  <path
     sodipodi:type="arc"
     style="fill:url(#radialGradient3763);fill-opacity:1;stroke:#000000;stroke-width:3.41329432;stroke-linecap:butt;stroke-linejoin:miter;stroke-miterlimit:4;stroke-opacity:1;stroke-dasharray:none"
     id="path2987"
     sodipodi:cx="314.92499"
     sodipodi:cy="260.8125"
     sodipodi:rx="195.97501"
     sodipodi:ry="94.087502"
     d="m 510.89999,260.8125 a 195.97501,94.087502 0 1 1 -391.95001,0 195.97501,94.087502 0 1 1 391.95001,0 z"
     transform="matrix(0.82121491,-0.14494437,0.10895187,0.921442,81.073789,31.590802)" />
  <path
     sodipodi:type="arc"
     style="fill:none;stroke:#000000;stroke-width:2.38412881;stroke-miterlimit:4;stroke-dasharray:none"
     id="path3771"
     sodipodi:cx="476.65314"
     sodipodi:cy="185.12813"
     sodipodi:rx="22.059376"
     sodipodi:ry="16.453125"
     d="m 498.71251,185.12813 a 22.059376,16.453125 0 1 1 -44.11875,0 22.059376,16.453125 0 1 1 44.11875,0 z"
     transform="matrix(0.80930032,0.59519163,-0.41656296,0.59824261,169.29601,-211.36082)" />
  <path
     sodipodi:type="arc"
     style="fill:url(#radialGradient3783);fill-opacity:1;stroke:#384b05;stroke-width:2;stroke-miterlimit:4;stroke-opacity:1;stroke-dasharray:none"
     id="path3773"
     sodipodi:cx="283.96875"
     sodipodi:cy="228.51562"
     sodipodi:rx="16.81875"
     sodipodi:ry="18.890625"
     d="m 300.7875,228.51562 a 16.81875,18.890625 0 1 1 -33.6375,0 16.81875,18.890625 0 1 1 33.6375,0 z"
     transform="translate(-0.97499999,-0.24375001)" />
  <g
     id="g3850">
    <g
       style="font-size:45.18061829px;font-style:italic;font-variant:normal;font-weight:normal;font-stretch:normal;text-align:start;line-height:125%;letter-spacing:0px;word-spacing:0px;writing-mode:lr-tb;text-anchor:start;fill:#000000;fill-opacity:1;stroke:none;font-family:Times New Roman;-inkscape-font-specification:'Times New Roman, Italic'"
       id="text3785">
      <path
         d="m 111.42466,85.308583 c 0.72065,0.764795 1.26482,1.529571 1.63251,2.294328 0.26472,0.529478 0.69858,1.91931 1.30159,4.169501 l 1.94135,-2.912032 c 0.51474,-0.70593 1.1398,-1.375109 1.87517,-2.007538 0.73535,-0.647099 1.38247,-1.088315 1.94136,-1.323651 0.35296,-0.147052 0.7427,-0.220588 1.16922,-0.220608 0.6324,2e-5 1.13244,0.169153 1.50014,0.5074 0.38237,0.338285 0.57356,0.750087 0.57358,1.235407 -2e-5,0.558893 -0.11032,0.94128 -0.33091,1.147164 -0.41182,0.367698 -0.88245,0.551538 -1.41189,0.551521 -0.30887,1.7e-5 -0.63979,-0.06617 -0.99274,-0.198547 -0.69126,-0.235299 -1.15454,-0.352957 -1.38983,-0.352974 -0.35299,1.7e-5 -0.77215,0.205918 -1.25747,0.617704 -0.91187,0.764792 -2.0002,2.242867 -3.26501,4.434231 l 1.80899,7.588931 c 0.27942,1.16188 0.51474,1.86047 0.70595,2.09578 0.19118,0.22061 0.38237,0.33092 0.57358,0.33091 0.30884,1e-5 0.66916,-0.16913 1.08098,-0.5074 0.80888,-0.67653 1.50012,-1.55896 2.07372,-2.6473 l 0.77213,0.3971 c -0.92657,1.73545 -2.10315,3.17676 -3.52973,4.32392 -0.80892,0.64712 -1.4928,0.97068 -2.05166,0.97068 -0.82362,0 -1.47809,-0.46328 -1.96342,-1.38983 -0.30886,-0.57358 -0.94863,-3.0444 -1.91929,-7.412447 -2.29434,3.985667 -4.13274,6.552077 -5.51522,7.699237 -0.89714,0.73536 -1.76486,1.10304 -2.60318,1.10304 -0.58828,0 -1.1251,-0.21325 -1.61044,-0.63976 -0.35297,-0.32356 -0.52946,-0.75742 -0.52946,-1.30159 0,-0.48534 0.16178,-0.88979 0.48534,-1.21335 0.32356,-0.32356 0.72066,-0.48534 1.19129,-0.48534 0.47063,0 0.97067,0.23532 1.50013,0.70595 0.38239,0.33827 0.67653,0.5074 0.88244,0.5074 0.17648,0 0.40444,-0.11766 0.68388,-0.35298 0.69124,-0.55887 1.6325,-1.76486 2.82379,-3.617975 1.19128,-1.853103 1.97076,-3.19146 2.33845,-4.015074 -0.91185,-3.573844 -1.40454,-5.463722 -1.47807,-5.669638 -0.33828,-0.955954 -0.77949,-1.632486 -1.32365,-2.029598 -0.54418,-0.397078 -1.34572,-0.595625 -2.40464,-0.595643 -0.33827,1.8e-5 -0.72801,0.01472 -1.16922,0.04412 l 0,-0.79419 5.89024,-1.03686"
         style="line-height:125%;font-family:Times New Roman;-inkscape-font-specification:'Times New Roman, Italic'"
         id="path3865" />
    </g>
    <g
       style="font-size:28.9155941px;font-style:italic;font-variant:normal;font-weight:normal;font-stretch:normal;text-align:start;line-height:125%;letter-spacing:0px;word-spacing:0px;writing-mode:lr-tb;text-anchor:start;fill:#000000;fill-opacity:1;stroke:none;font-family:Times New Roman;-inkscape-font-specification:'Times New Roman, Italic'"
       id="text3785-5">
      <path
         d="m 124.55633,96.0647 c 0.54593,-1.289513 1.23305,-2.282544 2.06136,-2.979097 0.83772,-0.705928 1.87782,-1.058901 3.12029,-1.05892 1.53425,1.9e-5 2.71083,0.498888 3.52974,1.496607 0.62122,0.743615 0.93184,1.538982 0.93185,2.386102 -1e-5,1.393083 -0.87539,2.833214 -2.62613,4.320398 1.17657,0.46123 2.06607,1.12011 2.66848,1.97665 0.6024,0.85656 0.9036,1.86371 0.90362,3.02145 -2e-5,1.65663 -0.52712,3.09206 -1.58133,4.30628 -1.37425,1.58132 -3.36502,2.37198 -5.97231,2.37198 -1.28953,0 -2.16961,-0.16001 -2.64024,-0.48004 -0.46122,-0.32003 -0.69183,-0.66359 -0.69183,-1.03068 0,-0.27297 0.10825,-0.51299 0.32474,-0.72007 0.2259,-0.20708 0.49416,-0.31061 0.80478,-0.31062 0.23531,1e-5 0.47533,0.0377 0.72006,0.11296 0.16001,0.0471 0.5224,0.22119 1.08716,0.5224 0.56475,0.29179 0.95538,0.46592 1.17187,0.5224 0.34827,0.10354 0.72006,0.15531 1.1154,0.15531 0.96008,0 1.7931,-0.3718 2.49905,-1.1154 0.71535,-0.7436 1.07303,-1.62368 1.07304,-2.64024 -1e-5,-0.7436 -0.16473,-1.46837 -0.49416,-2.17432 -0.24474,-0.5271 -0.513,-0.92714 -0.80478,-1.20011 -0.40475,-0.3765 -0.9601,-0.71535 -1.66604,-1.01656 -0.70595,-0.31061 -1.42601,-0.46592 -2.16019,-0.46593 l -0.45181,0 0,-0.42357 c 0.74359,-0.0941 1.48719,-0.36237 2.23079,-0.80478 0.75301,-0.44238 1.29894,-0.974193 1.6378,-1.595438 0.33885,-0.62122 0.50827,-1.303635 0.50828,-2.047247 -1e-5,-0.969485 -0.30592,-1.750732 -0.91773,-2.343744 -0.60241,-0.602391 -1.35542,-0.903595 -2.25903,-0.903612 -1.45896,1.7e-5 -2.6779,0.781265 -3.65681,2.343744 L 124.55633,96.0647"
         style="font-style:normal;line-height:125%;font-family:Times New Roman;-inkscape-font-specification:'Times New Roman,'"
         id="path3868" />
    </g>
  </g>
  <g
     id="g3856">
    <g
       style="font-size:45.18061829px;font-style:italic;font-variant:normal;font-weight:normal;font-stretch:normal;text-align:start;line-height:125%;letter-spacing:0px;word-spacing:0px;writing-mode:lr-tb;text-anchor:start;fill:#000000;fill-opacity:1;stroke:none;font-family:Times New Roman;-inkscape-font-specification:'Times New Roman, Italic'"
       id="text3785-7">
      <path
         d="m 44.901452,554.46553 c 0.720646,0.7648 1.264813,1.52958 1.632503,2.29433 0.264721,0.52948 0.698583,1.91931 1.30159,4.1695 l 1.941355,-2.91203 c 0.51474,-0.70593 1.139796,-1.37511 1.875172,-2.00754 0.735346,-0.64709 1.382464,-1.08831 1.941355,-1.32365 0.352956,-0.14705 0.742698,-0.22059 1.169225,-0.22061 0.632392,2e-5 1.132438,0.16916 1.500137,0.5074 0.382369,0.33829 0.573563,0.75009 0.573582,1.23541 -1.9e-5,0.55889 -0.110323,0.94128 -0.330912,1.14717 -0.411822,0.36769 -0.882453,0.55153 -1.411895,0.55152 -0.308869,1e-5 -0.639782,-0.0662 -0.992738,-0.19855 -0.691256,-0.2353 -1.154533,-0.35296 -1.389833,-0.35297 -0.352989,10e-6 -0.772145,0.20591 -1.257469,0.6177 -0.911862,0.76479 -2.000196,2.24287 -3.265005,4.43423 l 1.808989,7.58893 c 0.279425,1.16188 0.51474,1.86047 0.705947,2.09578 0.191181,0.22061 0.382374,0.33092 0.573583,0.33092 0.308837,0 0.669164,-0.16914 1.080981,-0.5074 0.808882,-0.67653 1.500121,-1.55897 2.07372,-2.64731 l 0.77213,0.3971 c -0.926573,1.73546 -2.103151,3.17676 -3.529736,4.32393 -0.808912,0.64711 -1.492797,0.97067 -2.051659,0.97067 -0.823617,0 -1.478088,-0.46327 -1.963416,-1.38983 -0.308862,-0.57358 -0.948626,-3.04439 -1.919294,-7.41245 -2.294334,3.98567 -4.132736,6.55208 -5.515212,7.69924 -0.897143,0.73536 -1.764869,1.10304 -2.60318,1.10304 -0.588289,0 -1.125103,-0.21325 -1.610442,-0.63976 -0.352972,-0.32356 -0.529459,-0.75742 -0.52946,-1.30159 10e-7,-0.48534 0.161781,-0.88979 0.485338,-1.21335 0.32356,-0.32355 0.720655,-0.48533 1.191286,-0.48534 0.470631,10e-6 0.970677,0.23532 1.500138,0.70595 0.382386,0.33827 0.67653,0.5074 0.882434,0.5074 0.176484,0 0.404446,-0.11766 0.683886,-0.35297 0.691236,-0.55888 1.632498,-1.76487 2.823789,-3.61798 1.191279,-1.85311 1.970761,-3.19146 2.33845,-4.01508 -0.911856,-3.57384 -1.404548,-5.46372 -1.478077,-5.66964 -0.338273,-0.95595 -0.779489,-1.63248 -1.323651,-2.02959 -0.544172,-0.39708 -1.345716,-0.59563 -2.404632,-0.59565 -0.33827,2e-5 -0.728011,0.0147 -1.169225,0.0441 l 0,-0.7942 5.890246,-1.03686"
         style="line-height:125%;font-family:Times New Roman;-inkscape-font-specification:'Times New Roman, Italic'"
         id="path3902" />
    </g>
    <g
       style="font-size:28.9155941px;font-style:italic;font-variant:normal;font-weight:normal;font-stretch:normal;text-align:start;line-height:125%;letter-spacing:0px;word-spacing:0px;writing-mode:lr-tb;text-anchor:start;fill:#000000;fill-opacity:1;stroke:none;font-family:Times New Roman;-inkscape-font-specification:'Times New Roman, Italic'"
       id="text3785-5-4">
      <path
         d="m 59.953293,563.45678 4.659251,-2.27315 0.465925,0 0,16.16619 c -8e-6,1.07304 0.04235,1.74133 0.127071,2.00489 0.09412,0.26355 0.28237,0.46592 0.564757,0.60711 0.28237,0.14119 0.856539,0.2212 1.722511,0.24002 l 0,0.5224 -7.20066,0 0,-0.5224 c 0.903607,-0.0188 1.48719,-0.0941 1.750749,-0.2259 0.263547,-0.14119 0.447093,-0.32474 0.550638,-0.55064 0.103533,-0.23531 0.155302,-0.92714 0.155309,-2.07548 l 0,-10.33507 c -7e-6,-1.39305 -0.04707,-2.28725 -0.14119,-2.6826 -0.06589,-0.30119 -0.188258,-0.52238 -0.367092,-0.66359 -0.169433,-0.14117 -0.376511,-0.21177 -0.621234,-0.21178 -0.348272,10e-6 -0.833022,0.14591 -1.454251,0.43768 l -0.211784,-0.43768"
         style="font-style:normal;line-height:125%;font-family:Times New Roman;-inkscape-font-specification:'Times New Roman,'"
         id="path3905" />
    </g>
  </g>
  <g
     id="g3862">
    <g
       style="font-size:45.18061829px;font-style:italic;font-variant:normal;font-weight:normal;font-stretch:normal;text-align:start;line-height:125%;letter-spacing:0px;word-spacing:0px;writing-mode:lr-tb;text-anchor:start;fill:#000000;fill-opacity:1;stroke:none;font-family:Times New Roman;-inkscape-font-specification:'Times New Roman, Italic'"
       id="text3785-2">
      <path
         d="m 434.77362,339.70833 c 0.72064,0.7648 1.26481,1.52957 1.6325,2.29433 0.26472,0.52948 0.69858,1.91931 1.30159,4.1695 l 1.94136,-2.91203 c 0.51474,-0.70593 1.13979,-1.37511 1.87517,-2.00754 0.73534,-0.6471 1.38246,-1.08831 1.94135,-1.32365 0.35296,-0.14705 0.7427,-0.22059 1.16923,-0.22061 0.63239,2e-5 1.13244,0.16916 1.50014,0.5074 0.38236,0.33829 0.57356,0.75009 0.57358,1.23541 -2e-5,0.55889 -0.11033,0.94128 -0.33092,1.14716 -0.41182,0.3677 -0.88245,0.55154 -1.41189,0.55153 -0.30887,10e-6 -0.63978,-0.0662 -0.99274,-0.19855 -0.69125,-0.2353 -1.15453,-0.35296 -1.38983,-0.35298 -0.35299,2e-5 -0.77215,0.20592 -1.25747,0.61771 -0.91186,0.76479 -2.0002,2.24286 -3.26501,4.43423 l 1.80899,7.58893 c 0.27943,1.16187 0.51474,1.86047 0.70595,2.09578 0.19118,0.22061 0.38238,0.33092 0.57358,0.33091 0.30884,10e-6 0.66917,-0.16913 1.08098,-0.5074 0.80889,-0.67653 1.50013,-1.55896 2.07372,-2.6473 l 0.77213,0.3971 c -0.92657,1.73545 -2.10315,3.17676 -3.52973,4.32392 -0.80891,0.64712 -1.4928,0.97068 -2.05166,0.97068 -0.82362,0 -1.47809,-0.46328 -1.96342,-1.38983 -0.30886,-0.57358 -0.94862,-3.0444 -1.91929,-7.41245 -2.29433,3.98567 -4.13274,6.55208 -5.51521,7.69924 -0.89715,0.73536 -1.76487,1.10304 -2.60318,1.10304 -0.58829,0 -1.1251,-0.21325 -1.61044,-0.63976 -0.35298,-0.32356 -0.52946,-0.75742 -0.52946,-1.30159 0,-0.48534 0.16178,-0.88979 0.48533,-1.21335 0.32356,-0.32356 0.72066,-0.48534 1.19129,-0.48534 0.47063,0 0.97068,0.23532 1.50014,0.70595 0.38238,0.33827 0.67653,0.5074 0.88243,0.5074 0.17649,0 0.40445,-0.11766 0.68389,-0.35298 0.69123,-0.55887 1.6325,-1.76486 2.82379,-3.61797 1.19128,-1.85311 1.97076,-3.19147 2.33845,-4.01508 -0.91186,-3.57384 -1.40455,-5.46372 -1.47808,-5.66964 -0.33827,-0.95595 -0.77949,-1.63248 -1.32365,-2.0296 -0.54417,-0.39707 -1.34572,-0.59562 -2.40463,-0.59564 -0.33827,2e-5 -0.72801,0.0147 -1.16923,0.0441 l 0,-0.79419 5.89025,-1.03686"
         style="line-height:125%;font-family:Times New Roman;-inkscape-font-specification:'Times New Roman, Italic'"
         id="path3896" />
    </g>
    <g
       style="font-size:28.9155941px;font-style:italic;font-variant:normal;font-weight:normal;font-stretch:normal;text-align:start;line-height:125%;letter-spacing:0px;word-spacing:0px;writing-mode:lr-tb;text-anchor:start;fill:#000000;fill-opacity:1;stroke:none;font-family:Times New Roman;-inkscape-font-specification:'Times New Roman, Italic'"
       id="text3785-5-9">
      <path
         d="m 459.69461,362.282 -1.3413,3.68504 -11.29516,0 0,-0.5224 c 3.32266,-3.03086 5.66169,-5.50638 7.01712,-7.42656 1.35541,-1.92017 2.03312,-3.67562 2.03313,-5.26637 -1e-5,-1.21421 -0.37181,-2.21195 -1.1154,-2.99321 -0.74361,-0.78124 -1.6331,-1.17186 -2.66848,-1.17188 -0.94127,2e-5 -1.7884,0.27769 -2.54141,0.83302 -0.7436,0.54595 -1.29424,1.35073 -1.65192,2.41434 l -0.5224,0 c 0.23532,-1.74132 0.83772,-3.07791 1.80723,-4.00978 0.97891,-0.93183 2.19784,-1.39776 3.6568,-1.39778 1.55308,2e-5 2.84731,0.49889 3.88271,1.49661 1.04479,0.99776 1.56719,2.17434 1.5672,3.52974 -1e-5,0.96951 -0.22591,1.93901 -0.6777,2.9085 -0.69655,1.52486 -1.82606,3.13912 -3.38855,4.8428 -2.34375,2.56024 -3.80741,4.10391 -4.39099,4.63101 l 4.9981,0 c 1.01656,0 1.72721,-0.0376 2.13196,-0.11295 0.41415,-0.0753 0.78595,-0.2259 1.1154,-0.45181 0.32943,-0.23531 0.61652,-0.56475 0.86126,-0.98832 l 0.5224,0"
         style="font-style:normal;line-height:125%;font-family:Times New Roman;-inkscape-font-specification:'Times New Roman,'"
         id="path3899" />
    </g>
  </g>
  <g
     style="font-size:35px;font-style:italic;font-variant:normal;font-weight:normal;font-stretch:normal;text-align:start;line-height:125%;letter-spacing:0px;word-spacing:0px;writing-mode:lr-tb;text-anchor:start;fill:#000000;fill-opacity:1;stroke:none;font-family:Times New Roman;-inkscape-font-specification:'Times New Roman, Italic'"
     id="text3785-2-5-0">
    <path
       d="m 342.02841,106.43395 1.91406,-8.596189 0.58106,0 c -0.0798,0.831713 -0.11963,1.521003 -0.11963,2.067871 0,1.560878 0.4956,2.831218 1.48682,3.811038 1.0026,0.97982 2.30712,1.46972 3.91357,1.46972 1.4925,0 2.62613,-0.45572 3.40088,-1.36718 0.77473,-0.92285 1.1621,-1.98242 1.16211,-3.17871 -10e-6,-0.774738 -0.17661,-1.481118 -0.52979,-2.119145 -0.53549,-0.94563 -1.96534,-2.60904 -4.28955,-4.990235 -1.12793,-1.139309 -1.8514,-1.988104 -2.17041,-2.546386 -0.52409,-0.922836 -0.78613,-1.89126 -0.78613,-2.905274 0,-1.617819 0.60384,-3.002095 1.81152,-4.152832 1.20768,-1.150693 2.75716,-1.72605 4.64844,-1.726074 0.63801,2.4e-5 1.24185,0.06269 1.81152,0.187988 0.35318,0.06838 0.9969,0.296247 1.93116,0.683594 0.66079,0.262067 1.02537,0.404482 1.09375,0.427246 0.15949,0.0342 0.33608,0.05129 0.52978,0.05127 0.33039,2.2e-5 0.61522,-0.08543 0.85449,-0.256348 0.23924,-0.170876 0.51838,-0.535459 0.83741,-1.09375 l 0.64941,0 -1.77734,7.69043 -0.58106,0 c 0.0456,-0.683577 0.0683,-1.236149 0.0684,-1.657715 -2e-5,-1.378562 -0.45574,-2.506491 -1.36719,-3.383789 -0.91147,-0.877257 -2.11345,-1.315896 -3.60595,-1.315918 -1.18491,2.2e-5 -2.14764,0.347515 -2.88819,1.04248 -0.74056,0.695008 -1.11084,1.49823 -1.11084,2.409668 0,0.797544 0.23356,1.56089 0.70069,2.290039 0.4785,0.71779 1.56656,1.896988 3.26416,3.537598 1.70897,1.629243 2.81411,2.905283 3.31543,3.828125 0.50128,0.911467 0.75193,1.885587 0.75195,2.922363 -2e-5,1.173505 -0.31333,2.312825 -0.93994,3.417965 -0.61525,1.09376 -1.50392,1.94255 -2.66602,2.54639 -1.16212,0.60384 -2.43246,0.90576 -3.81103,0.90576 -0.6836,0 -1.32162,-0.0627 -1.91406,-0.18799 -0.59246,-0.12532 -1.5381,-0.43294 -2.83692,-0.92285 -0.44434,-0.1709 -0.81462,-0.25634 -1.11084,-0.25635 -0.6722,1e-5 -1.19629,0.45573 -1.57226,1.36719 l -0.64942,0"
       style="line-height:125%;font-family:Times New Roman;-inkscape-font-specification:'Times New Roman, Italic'"
       id="path3874" />
  </g>
  <g
     style="font-size:35px;font-style:italic;font-variant:normal;font-weight:normal;font-stretch:normal;text-align:start;line-height:125%;letter-spacing:0px;word-spacing:0px;writing-mode:lr-tb;text-anchor:start;fill:#000000;fill-opacity:1;stroke:none;font-family:Times New Roman;-inkscape-font-specification:'Times New Roman, Italic'"
     id="text3785-2-5-7">
    <path
       d="m 431.30457,270.66693 1.91406,-19.29443 c 0.0911,-0.9798 0.13671,-1.64061 0.13672,-1.98242 -10e-6,-0.51268 -0.1937,-0.93992 -0.58106,-1.28174 -0.37598,-0.34178 -0.97412,-0.51268 -1.79443,-0.5127 l -0.61524,0 0.1709,-0.63232 9.14307,0 -0.18799,0.63232 c -0.99122,0.0114 -1.67482,0.11396 -2.05078,0.30762 -0.3646,0.19371 -0.65512,0.52411 -0.87158,0.99121 -0.11395,0.25067 -0.23357,0.96275 -0.35889,2.13623 l -1.36719,13.82568 9.04053,-12.33886 c 0.9798,-1.33299 1.59503,-2.26154 1.8457,-2.78565 0.17088,-0.35317 0.25633,-0.66078 0.25635,-0.92285 -2e-5,-0.30759 -0.13104,-0.57534 -0.39307,-0.80322 -0.26206,-0.22784 -0.75197,-0.36456 -1.46972,-0.41016 l 0.20508,-0.63232 6.97265,0 -0.1709,0.63232 c -0.55829,0.0456 -1.00262,0.15383 -1.333,0.32471 -0.62665,0.29624 -1.25328,0.74628 -1.87989,1.3501 -0.61525,0.60386 -1.59507,1.82293 -2.93945,3.65722 l -13.05664,17.73926 -0.61523,0"
       style="line-height:125%;font-family:Times New Roman;-inkscape-font-specification:'Times New Roman, Italic'"
       id="path3882" />
  </g>
  <g
     style="font-size:35px;font-style:italic;font-variant:normal;font-weight:normal;font-stretch:normal;text-align:start;line-height:125%;letter-spacing:0px;word-spacing:0px;writing-mode:lr-tb;text-anchor:start;fill:#000000;fill-opacity:1;stroke:none;font-family:Times New Roman;-inkscape-font-specification:'Times New Roman, Italic'"
     id="text3785-2-5-7-5">
    <path
       d="m 318.40857,237.47531 c -0.76336,0.79753 -1.50961,1.37289 -2.23877,1.72608 -0.72918,0.34179 -1.51531,0.51269 -2.3584,0.51269 -1.70899,0 -3.2015,-0.71208 -4.47754,-2.13623 -1.27604,-1.43554 -1.91406,-3.27555 -1.91406,-5.52002 0,-2.24446 0.70638,-4.29524 2.11914,-6.15234 1.41276,-1.86848 3.22997,-2.80272 5.45166,-2.80274 1.37857,2e-5 2.51789,0.43866 3.41797,1.31592 l 0,-2.88818 c -10e-6,-1.78872 -0.0456,-2.88817 -0.13672,-3.29834 -0.0798,-0.41014 -0.21079,-0.68927 -0.39307,-0.83741 -0.1823,-0.14809 -0.41016,-0.22214 -0.68359,-0.22216 -0.29623,2e-5 -0.6893,0.0912 -1.1792,0.27343 l -0.22217,-0.59814 4.66553,-1.91406 0.76904,0 0,18.09814 c -10e-6,1.83432 0.0399,2.95655 0.11963,3.3667 0.0911,0.39877 0.22785,0.6779 0.41016,0.8374 0.19367,0.15951 0.41584,0.23926 0.6665,0.23926 0.3076,0 0.71776,-0.0968 1.23047,-0.29053 l 0.18799,0.59815 -4.64844,1.93115 -0.78613,0 0,-2.23877 m 0,-1.19629 0,-8.0664 c -0.0684,-0.77473 -0.27345,-1.48111 -0.61524,-2.11914 -0.3418,-0.63801 -0.79753,-1.11653 -1.36718,-1.43555 -0.55828,-0.33039 -1.10515,-0.49559 -1.64063,-0.49561 -1.00261,2e-5 -1.89698,0.45005 -2.6831,1.3501 -1.03679,1.18491 -1.55518,2.91668 -1.55518,5.19531 0,2.30144 0.5013,4.06739 1.50391,5.29785 1.00259,1.21908 2.11913,1.82862 3.34961,1.82862 1.03677,0 2.03937,-0.51839 3.00781,-1.55518"
       style="font-style:normal;-inkscape-font-specification:'Times New Roman,'"
       id="path3885" />
    <path
       d="m 329.07263,239.76535 1.91406,-19.29443 c 0.0911,-0.9798 0.13672,-1.64061 0.13672,-1.98243 0,-0.51267 -0.19369,-0.93991 -0.58105,-1.28173 -0.37598,-0.34178 -0.97413,-0.51268 -1.79444,-0.5127 l -0.61523,0 0.1709,-0.63232 9.14307,0 -0.18799,0.63232 c -0.99123,0.0114 -1.67482,0.11396 -2.05078,0.30762 -0.3646,0.19371 -0.65513,0.52411 -0.87159,0.99121 -0.11394,0.25067 -0.23357,0.96275 -0.35888,2.13623 l -1.36719,13.82568 9.04053,-12.33886 c 0.9798,-1.33299 1.59503,-2.26154 1.8457,-2.78565 0.17088,-0.35317 0.25633,-0.66078 0.25635,-0.92285 -2e-5,-0.3076 -0.13104,-0.57534 -0.39307,-0.80322 -0.26206,-0.22784 -0.75197,-0.36456 -1.46973,-0.41016 l 0.20508,-0.63232 6.97266,0 -0.1709,0.63232 c -0.55829,0.0456 -1.00263,0.15383 -1.33301,0.32471 -0.62665,0.29624 -1.25327,0.74628 -1.87988,1.3501 -0.61526,0.60386 -1.59507,1.82293 -2.93945,3.65722 l -13.05664,17.73926 -0.61524,0"
       style="line-height:125%;font-family:Times New Roman;-inkscape-font-specification:'Times New Roman, Italic'"
       id="path3887" />
  </g>
  <g
     style="font-size:35px;font-style:italic;font-variant:normal;font-weight:normal;font-stretch:normal;text-align:start;line-height:125%;letter-spacing:0px;word-spacing:0px;writing-mode:lr-tb;text-anchor:start;fill:#000000;fill-opacity:1;stroke:none;font-family:Times New Roman;-inkscape-font-specification:'Times New Roman, Italic'"
     id="text3785-2-5-7-5-1">
    <path
       d="m 430.41922,186.0576 c -0.76336,0.79753 -1.50961,1.37289 -2.23877,1.72608 -0.72918,0.34179 -1.51531,0.51269 -2.3584,0.51269 -1.70899,0 -3.2015,-0.71208 -4.47754,-2.13623 -1.27604,-1.43554 -1.91406,-3.27555 -1.91406,-5.52002 0,-2.24446 0.70638,-4.29523 2.11914,-6.15234 1.41276,-1.86848 3.22998,-2.80272 5.45166,-2.80274 1.37857,2e-5 2.51789,0.43866 3.41797,1.31592 l 0,-2.88818 c -10e-6,-1.78872 -0.0456,-2.88817 -0.13672,-3.29834 -0.0798,-0.41014 -0.21079,-0.68927 -0.39307,-0.8374 -0.1823,-0.14809 -0.41016,-0.22215 -0.68359,-0.22217 -0.29623,2e-5 -0.6893,0.0912 -1.1792,0.27344 l -0.22217,-0.59815 4.66553,-1.91406 0.76904,0 0,18.09814 c -10e-6,1.83432 0.0399,2.95655 0.11963,3.3667 0.0911,0.39877 0.22785,0.6779 0.41016,0.8374 0.19367,0.15951 0.41584,0.23926 0.6665,0.23926 0.3076,0 0.71776,-0.0968 1.23047,-0.29053 l 0.18799,0.59815 -4.64844,1.93115 -0.78613,0 0,-2.23877 m 0,-1.19629 0,-8.0664 c -0.0684,-0.77473 -0.27345,-1.48111 -0.61523,-2.11914 -0.34181,-0.63801 -0.79754,-1.11653 -1.36719,-1.43555 -0.55828,-0.33039 -1.10515,-0.49559 -1.64063,-0.49561 -1.00261,2e-5 -1.89698,0.45005 -2.6831,1.3501 -1.03679,1.18491 -1.55518,2.91668 -1.55518,5.19531 0,2.30144 0.5013,4.06739 1.50391,5.29786 1.0026,1.21907 2.11913,1.82861 3.34961,1.82861 1.03677,0 2.03937,-0.51839 3.00781,-1.55518"
       style="font-style:normal;line-height:125%;font-family:Times New Roman;-inkscape-font-specification:'Times New Roman,'"
       id="path3877" />
    <path
       d="m 436.0076,188.34764 1.91406,-8.59619 0.58106,0 c -0.0798,0.83171 -0.11964,1.521 -0.11963,2.06787 -10e-6,1.56088 0.4956,2.83122 1.48681,3.81104 1.0026,0.97981 2.30713,1.46972 3.91358,1.46972 1.4925,0 2.62613,-0.45573 3.40088,-1.36719 0.77472,-0.92284 1.16209,-1.98241 1.16211,-3.17871 -2e-5,-0.77473 -0.17661,-1.48111 -0.52979,-2.11914 -0.53549,-0.94563 -1.96534,-2.60904 -4.28955,-4.99023 -1.12794,-1.13931 -1.85141,-1.98811 -2.17041,-2.54639 -0.52409,-0.92283 -0.78614,-1.89126 -0.78613,-2.90527 -10e-6,-1.61782 0.60383,-3.0021 1.81152,-4.15283 1.20768,-1.1507 2.75715,-1.72605 4.64844,-1.72608 0.63801,3e-5 1.24185,0.0627 1.81152,0.18799 0.35318,0.0684 0.9969,0.29625 1.93115,0.68359 0.6608,0.26207 1.02538,0.40449 1.09375,0.42725 0.15949,0.0342 0.33609,0.0513 0.52979,0.0513 0.33039,2e-5 0.61522,-0.0854 0.85449,-0.25635 0.23924,-0.17087 0.51838,-0.53546 0.8374,-1.09375 l 0.64942,0 -1.77735,7.69043 -0.58105,0 c 0.0456,-0.68357 0.0683,-1.23615 0.0684,-1.65771 -2e-5,-1.37856 -0.45575,-2.50649 -1.36719,-3.38379 -0.91147,-0.87726 -2.11346,-1.3159 -3.60596,-1.31592 -1.1849,2e-5 -2.14763,0.34752 -2.88818,1.04248 -0.74057,0.69501 -1.11085,1.49823 -1.11084,2.40967 -1e-5,0.79754 0.23355,1.56089 0.70068,2.29004 0.47851,0.71779 1.56656,1.89699 3.26416,3.5376 1.70898,1.62924 2.81412,2.90528 3.31543,3.82812 0.50129,0.91147 0.75194,1.88559 0.75196,2.92236 -2e-5,1.17351 -0.31333,2.31283 -0.93994,3.41797 -0.61525,1.09375 -1.50392,1.94255 -2.66602,2.54639 -1.16212,0.60384 -2.43246,0.90576 -3.81104,0.90576 -0.6836,0 -1.32162,-0.0627 -1.91406,-0.18799 -0.59245,-0.12532 -1.53809,-0.43294 -2.83691,-0.92285 -0.44434,-0.1709 -0.81462,-0.25635 -1.11084,-0.25635 -0.6722,0 -1.19629,0.45573 -1.57227,1.36719 l -0.64941,0"
       style="font-style:italic;-inkscape-font-specification:'Times New Roman, Italic'"
       id="path3879" />
  </g>
  <g
     style="font-size:38px;font-style:italic;font-variant:normal;font-weight:bold;font-stretch:normal;text-align:start;line-height:125%;letter-spacing:0px;word-spacing:0px;writing-mode:lr-tb;text-anchor:start;fill:#000000;fill-opacity:1;stroke:none;font-family:Times New Roman;-inkscape-font-specification:'Times New Roman, Bold'"
     id="text3785-2-5-6">
    <path
       d="m 534.539,120.43221 0,2.24511 c 0.89062,-0.96483 1.74413,-1.66372 2.56055,-2.09668 0.81639,-0.44529 1.69465,-0.66795 2.63476,-0.66797 1.12564,2e-5 2.05956,0.31545 2.80176,0.94629 0.74217,0.61851 1.23696,1.39162 1.48438,2.31934 0.1979,0.70509 0.29685,2.05958 0.29687,4.06348 l 0,6.7539 c -2e-5,1.33594 0.1175,2.1709 0.35254,2.50488 0.24738,0.32162 0.75454,0.52572 1.52149,0.61231 l 0,0.66797 -8.77637,0 0,-0.66797 c 0.65559,-0.0866 1.12564,-0.35872 1.41015,-0.81641 0.19791,-0.30924 0.29687,-1.07617 0.29688,-2.30078 l 0,-7.71875 c -1e-5,-1.42251 -0.0557,-2.31932 -0.16699,-2.69043 -0.11134,-0.37108 -0.30308,-0.65558 -0.5752,-0.85351 -0.25978,-0.21027 -0.55047,-0.31542 -0.87207,-0.31543 -1.06381,1e-5 -2.05339,0.76075 -2.96875,2.28222 l 0,9.2959 c -10e-6,1.29883 0.11751,2.12142 0.35254,2.46778 0.24739,0.34635 0.69888,0.56282 1.35449,0.64941 l 0,0.66797 -8.77636,0 0,-0.66797 c 0.72981,-0.0742 1.24934,-0.30924 1.55859,-0.70508 0.21028,-0.27213 0.31543,-1.07617 0.31543,-2.41211 l 0,-9.79687 c 0,-1.31119 -0.1237,-2.12759 -0.37109,-2.44922 -0.23503,-0.3216 -0.73601,-0.53189 -1.50293,-0.63086 l 0,-0.68652 7.06933,0"
       style="font-style:normal;line-height:125%;font-family:Times New Roman;-inkscape-font-specification:'Times New Roman, Bold'"
       id="path3852" />
  </g>
  <g
     id="g4169"
     transform="translate(-536.61242,-833.63808)">
    <g
       transform="translate(-206.73936,790.59989)"
       id="g4087">
      <g
         style="font-size:35px;font-style:normal;font-variant:normal;font-weight:bold;font-stretch:normal;text-align:start;line-height:125%;letter-spacing:0px;word-spacing:0px;writing-mode:lr-tb;text-anchor:start;fill:#000000;fill-opacity:1;stroke:none;font-family:Times New Roman;-inkscape-font-specification:'Times New Roman, Bold'"
         id="text3785-2-5-0-4">
        <path
           d="m 1257.2134,53.311783 0,6.271972 -0.6153,0 c -0.3646,-1.446921 -0.769,-2.483704 -1.2133,-3.110351 -0.4444,-0.638 -1.0539,-1.144998 -1.8286,-1.520996 -0.433,-0.205057 -1.1907,-0.307596 -2.273,-0.307617 l -1.7261,0 0,17.875976 c 0,1.184899 0.063,1.925458 0.188,2.22168 0.1367,0.296225 0.3931,0.558269 0.7691,0.786133 0.3873,0.216472 0.9114,0.324707 1.5722,0.324707 l 0.7691,0 0,0.632324 -12.1338,0 0,-0.632324 0.769,0 c 0.6722,0 1.2134,-0.119628 1.6236,-0.358887 0.2962,-0.159504 0.5297,-0.432941 0.7006,-0.820312 0.1254,-0.273436 0.188,-0.991209 0.188,-2.153321 l 0,-17.875976 -1.6748,0 c -1.5609,2.1e-5 -2.6945,0.330425 -3.4009,0.991211 -0.9912,0.922871 -1.6178,2.238788 -1.8798,3.947753 l -0.6495,0 0,-6.271972 20.8155,0"
           style="line-height:125%;font-family:Times New Roman;-inkscape-font-specification:'Times New Roman, Bold'"
           id="path3855" />
      </g>
      <g
         style="font-size:24.31999969px;font-style:italic;font-variant:normal;font-weight:bold;font-stretch:normal;text-align:start;line-height:125%;letter-spacing:0px;word-spacing:0px;writing-mode:lr-tb;text-anchor:start;fill:#000000;fill-opacity:1;stroke:none;font-family:Times New Roman;-inkscape-font-specification:'Times New Roman, Bold'"
         id="text3785-2-5-6-0">
        <path
           d="m 1265.2546,69.426258 0,0.439375 c -1.1954,-0.601671 -2.1929,-1.306254 -2.9925,-2.11375 -1.14,-1.147919 -2.0187,-2.501667 -2.6362,-4.06125 -0.6175,-1.559581 -0.9263,-3.178538 -0.9263,-4.856875 0,-2.454158 0.6057,-4.690614 1.8169,-6.709375 1.2113,-2.026652 2.7906,-3.475401 4.7381,-4.34625 l 0,0.49875 c -0.9737,0.538349 -1.7733,1.274599 -2.3987,2.20875 -0.6254,0.93418 -1.0925,2.11772 -1.4013,3.550625 -0.3087,1.432926 -0.4631,2.929174 -0.4631,4.48875 0,1.694171 0.1306,3.233961 0.3919,4.619375 0.2058,1.0925 0.4552,1.967291 0.7481,2.624375 0.2929,0.664998 0.6848,1.302289 1.1756,1.911875 0.4988,0.60958 1.148,1.191454 1.9475,1.745625"
           style="font-weight:normal;-inkscape-font-specification:'Times New Roman,'"
           id="path3858" />
        <path
           d="m 1271.1803,53.561258 0,1.436875 c 0.57,-0.61749 1.1162,-1.064781 1.6387,-1.341875 0.5225,-0.284989 1.0846,-0.427488 1.6863,-0.4275 0.7204,1.2e-5 1.3181,0.201886 1.7931,0.605625 0.475,0.395844 0.7917,0.890635 0.95,1.484375 0.1267,0.451259 0.19,1.318133 0.19,2.600625 l 0,4.3225 c 0,0.855002 0.075,1.389376 0.2256,1.603125 0.1583,0.205834 0.4829,0.336459 0.9738,0.391875 l 0,0.4275 -5.6169,0 0,-0.4275 c 0.4196,-0.05542 0.7204,-0.229583 0.9025,-0.5225 0.1267,-0.197916 0.19,-0.688748 0.19,-1.4725 l 0,-4.94 c 0,-0.910408 -0.036,-1.484366 -0.1069,-1.721875 -0.071,-0.237491 -0.1939,-0.419574 -0.3681,-0.54625 -0.1663,-0.134574 -0.3523,-0.201865 -0.5581,-0.201875 -0.6809,1e-5 -1.3142,0.486884 -1.9,1.460625 l 0,5.949375 c 0,0.831252 0.075,1.357709 0.2256,1.579375 0.1583,0.221667 0.4473,0.360209 0.8669,0.415625 l 0,0.4275 -5.6169,0 0,-0.4275 c 0.4671,-0.0475 0.7996,-0.197916 0.9975,-0.45125 0.1346,-0.174166 0.2019,-0.688748 0.2019,-1.54375 l 0,-6.27 c 0,-0.839157 -0.079,-1.361657 -0.2375,-1.5675 -0.1504,-0.205823 -0.4711,-0.340406 -0.9619,-0.40375 l 0,-0.439375 4.5244,0"
           style="font-style:normal;line-height:125%;font-family:Times New Roman;-inkscape-font-specification:'Times New Roman, Bold'"
           id="path3860" />
        <path
           d="m 1279.9084,48.276883 0,-0.49875 c 1.2033,0.593766 2.2048,1.294391 3.0044,2.101875 1.1321,1.155847 2.0068,2.513554 2.6243,4.073125 0.6175,1.551676 0.9263,3.170633 0.9263,4.856875 0,2.45417 -0.6056,4.690626 -1.8169,6.709375 -1.2033,2.026664 -2.7827,3.475412 -4.7381,4.34625 l 0,-0.439375 c 0.9737,-0.546254 1.7733,-1.286462 2.3987,-2.220625 0.6334,-0.926252 1.1005,-2.105834 1.4013,-3.53875 0.3087,-1.440831 0.4631,-2.941038 0.4631,-4.500625 0,-1.686243 -0.1306,-3.226033 -0.3919,-4.619375 -0.1979,-1.092489 -0.4472,-1.967279 -0.7481,-2.624375 -0.2929,-0.65707 -0.6848,-1.290403 -1.1756,-1.9 -0.4908,-0.609568 -1.14,-1.191442 -1.9475,-1.745625"
           style="font-weight:normal;-inkscape-font-specification:'Times New Roman,'"
           id="path3862" />
      </g>
    </g>
  </g>
  <g
     style="font-size:45.18061829px;font-style:normal;font-variant:normal;font-weight:bold;font-stretch:normal;text-align:start;line-height:125%;letter-spacing:0px;word-spacing:0px;writing-mode:lr-tb;text-anchor:start;fill:#000000;fill-opacity:1;stroke:none;font-family:Times New Roman;-inkscape-font-specification:'Times New Roman, Bold'"
     id="text3785-2-5-7-8">
    <path
       d="m 253.29843,107.85031 0,9.51904 0.66651,0 c 1.02537,2e-5 1.86278,-0.15379 2.5122,-0.46142 0.6494,-0.30761 1.19628,-0.826 1.64063,-1.55518 0.45571,-0.72915 0.75194,-1.71466 0.88867,-2.95654 l 0.59814,0 0,11.63818 -0.59814,0 c -0.21649,-2.19888 -0.80893,-3.64582 -1.77734,-4.34082 -0.95705,-0.70637 -2.0451,-1.05956 -3.26416,-1.05957 l -0.66651,0 0,7.09229 c -1e-5,1.1849 0.0626,1.92546 0.18799,2.22168 0.13671,0.29622 0.39306,0.55827 0.76904,0.78613 0.38736,0.21647 0.90575,0.32471 1.55518,0.32471 l 0.76904,0 0,0.63232 -12.1167,0 0,-0.63232 0.76905,0 c 0.67219,0 1.21337,-0.11963 1.62353,-0.35889 0.29622,-0.1595 0.52409,-0.43294 0.68359,-0.82031 0.12533,-0.27344 0.18799,-0.99121 0.18799,-2.15332 l 0,-15.24414 c 0,-1.18488 -0.0627,-1.92544 -0.18799,-2.22168 -0.12533,-0.2962 -0.38167,-0.55255 -0.76904,-0.76905 -0.37598,-0.22784 -0.88867,-0.34177 -1.53808,-0.34179 l -0.76905,0 0,-0.63233 19.55078,0 0,6.64795 -0.70068,0 c -0.15952,-1.56085 -0.56968,-2.71726 -1.23047,-3.46924 -0.64943,-0.75193 -1.59507,-1.28171 -2.83691,-1.58935 -0.68361,-0.17088 -1.94826,-0.25633 -3.79395,-0.25635 l -2.15332,0"
       style="font-size:35px;line-height:125%;font-family:Times New Roman;-inkscape-font-specification:'Times New Roman, Bold'"
       id="path3871" />
  </g>
  <g
     style="font-size:35px;font-style:normal;font-variant:normal;font-weight:bold;font-stretch:normal;text-align:start;line-height:125%;letter-spacing:0px;word-spacing:0px;writing-mode:lr-tb;text-anchor:start;fill:#000000;fill-opacity:1;stroke:none;font-family:Times New Roman;-inkscape-font-specification:'Times New Roman, Bold'"
     id="text3785-2-5-7-9">
    <path
       d="m 192.72122,300.97037 0,3.62304 c 1.05956,-1.652 1.98811,-2.74575 2.78565,-3.28125 0.79751,-0.54685 1.56655,-0.82029 2.30713,-0.82031 0.638,2e-5 1.145,0.1994 1.52099,0.59815 0.38736,0.38738 0.58104,0.93995 0.58106,1.65771 -2e-5,0.76336 -0.18801,1.35581 -0.56397,1.77734 -0.3646,0.42157 -0.80893,0.63234 -1.33301,0.63233 -0.60385,1e-5 -1.12794,-0.19367 -1.57226,-0.58106 -0.44435,-0.38735 -0.70639,-0.60382 -0.78613,-0.64941 -0.11395,-0.0684 -0.24497,-0.10253 -0.39307,-0.10254 -0.33042,1e-5 -0.64373,0.12534 -0.93994,0.37598 -0.46713,0.38738 -0.82032,0.93995 -1.05957,1.65771 -0.36459,1.10516 -0.54689,2.32423 -0.54688,3.65723 l 0,3.67432 0.0171,0.95703 c -1e-5,0.64941 0.0399,1.06527 0.11963,1.24756 0.13671,0.30761 0.33609,0.53548 0.59815,0.68359 0.27342,0.13672 0.72915,0.22217 1.36718,0.25635 l 0,0.61523 -8.63037,0 0,-0.61523 c 0.69499,-0.057 1.16211,-0.24496 1.40137,-0.56397 0.25065,-0.3304 0.37597,-1.19059 0.37598,-2.58056 l 0,-8.83545 c -1e-5,-0.91145 -0.0456,-1.4925 -0.13672,-1.74317 -0.11394,-0.31899 -0.27914,-0.55255 -0.49561,-0.70068 -0.21647,-0.1481 -0.59815,-0.25064 -1.14502,-0.30762 l 0,-0.63232 6.52832,0"
       style="line-height:125%;font-family:Times New Roman;-inkscape-font-specification:'Times New Roman, Bold'"
       id="path3890" />
  </g>
  <g
     style="font-size:35px;font-style:normal;font-variant:normal;font-weight:bold;font-stretch:normal;text-align:start;line-height:125%;letter-spacing:0px;word-spacing:0px;writing-mode:lr-tb;text-anchor:start;fill:#000000;fill-opacity:1;stroke:none;font-family:Times New Roman;-inkscape-font-specification:'Times New Roman, Bold'"
     id="text3785-2-5-7-9-3">
    <path
       d="m 260.96039,333.19183 0,3.62305 c 1.05956,-1.652 1.98811,-2.74575 2.78564,-3.28125 0.79752,-0.54686 1.56656,-0.8203 2.30713,-0.82031 0.63801,10e-6 1.14501,0.1994 1.521,0.59814 0.38735,0.38739 0.58104,0.93996 0.58105,1.65772 -1e-5,0.76336 -0.188,1.3558 -0.56396,1.77734 -0.3646,0.42156 -0.80894,0.63234 -1.33301,0.63233 -0.60385,10e-6 -1.12794,-0.19368 -1.57227,-0.58106 -0.44434,-0.38736 -0.70639,-0.60383 -0.78613,-0.64941 -0.11394,-0.0683 -0.24496,-0.10253 -0.39307,-0.10254 -0.33041,10e-6 -0.64372,0.12534 -0.93994,0.37597 -0.46713,0.38739 -0.82032,0.93996 -1.05957,1.65772 -0.36459,1.10515 -0.54688,2.32423 -0.54687,3.65723 l 0,3.67431 0.0171,0.95703 c -1e-5,0.64942 0.0399,1.06527 0.11963,1.24756 0.13671,0.30762 0.33609,0.53548 0.59814,0.6836 0.27343,0.13671 0.72916,0.22216 1.36719,0.25634 l 0,0.61524 -8.63037,0 0,-0.61524 c 0.69498,-0.057 1.1621,-0.24495 1.40137,-0.56396 0.25064,-0.3304 0.37597,-1.19059 0.37597,-2.58057 l 0,-8.83545 c 0,-0.91144 -0.0456,-1.4925 -0.13672,-1.74316 -0.11393,-0.319 -0.27913,-0.55256 -0.4956,-0.70069 -0.21648,-0.14809 -0.59815,-0.25063 -1.14502,-0.30761 l 0,-0.63233 6.52832,0"
       style="line-height:125%;font-family:Times New Roman;-inkscape-font-specification:'Times New Roman, Bold'"
       id="path3893" />
  </g>
  <path
     style="fill:none;stroke:#000000;stroke-width:2;stroke-linecap:butt;stroke-linejoin:miter;stroke-opacity:1;stroke-miterlimit:4;stroke-dasharray:none"
     d="m 404.86875,137.9625 c -2.46664,-21.1983 -10.65346,-38.022356 -35.1,-42.412501"
     id="path4178"
     inkscape:connector-curvature="0"
     sodipodi:nodetypes="cc" />
  <path
     style="fill:none;stroke:#000000;stroke-width:2;stroke-linecap:butt;stroke-linejoin:miter;stroke-opacity:1;stroke-miterlimit:4;stroke-dasharray:none;marker-end:url(#TriangleOutL)"
     d="m 283.48125,221.56875 -19.74375,-72.15"
     id="path4180"
     inkscape:connector-curvature="0" />
  <path
     style="fill:none;stroke:#000000;stroke-width:2;stroke-linecap:butt;stroke-linejoin:miter;stroke-miterlimit:4;stroke-opacity:1;stroke-dasharray:8, 8;stroke-dashoffset:0;marker-start:none;marker-end:url(#TriangleOutL)"
     d="M 154.96406,382.87031 277.27682,229.49168"
     id="path4812"
     inkscape:connector-curvature="0"
     sodipodi:nodetypes="cc" />
  <path
     style="fill:none;stroke:#000000;stroke-width:2;stroke-linecap:butt;stroke-linejoin:miter;stroke-miterlimit:4;stroke-opacity:1;stroke-dasharray:8, 8;stroke-dashoffset:0;marker-start:none;marker-end:url(#TriangleOutL)"
     d="M 154.70078,383.00137 470.47786,186.20893"
     id="path4812-4"
     inkscape:connector-curvature="0"
     sodipodi:nodetypes="cc" />
  <path
     style="fill:none;stroke:#000000;stroke-width:2;stroke-linecap:butt;stroke-linejoin:miter;stroke-miterlimit:4;stroke-opacity:1;stroke-dasharray:none;marker-end:url(#TriangleOutL-6)"
     d="M 478.49604,180.99304 508.21875,58.743749"
     id="path5206"
     inkscape:connector-curvature="0"
     sodipodi:nodetypes="cc" />
  <path
     style="fill:none;stroke:#000000;stroke-width:2;stroke-linecap:butt;stroke-linejoin:miter;stroke-opacity:1;stroke-miterlimit:4;stroke-dasharray:none;marker-end:url(#TriangleOutL-6)"
     d="m 478.48125,181.35 32.175,-35.5875"
     id="path5580"
     inkscape:connector-curvature="0" />
  <path
     style="fill:none;stroke:#000000;stroke-width:2;stroke-linecap:butt;stroke-linejoin:miter;stroke-miterlimit:4;stroke-opacity:1;stroke-dasharray:none;marker-end:url(#TriangleOutL-6)"
     d="m 154.5375,383.637 292.25625,0.24375"
     id="path5768"
     inkscape:connector-curvature="0"
     sodipodi:nodetypes="cc" />
  <path
     style="fill:none;stroke:#000000;stroke-width:2;stroke-linecap:butt;stroke-linejoin:miter;stroke-miterlimit:4;stroke-opacity:1;stroke-dasharray:none;marker-end:url(#TriangleOutL-6)"
     d="M 155.02885,384.74412 155.2726,92.48787"
     id="path5768-5"
     inkscape:connector-curvature="0"
     sodipodi:nodetypes="cc" />
  <path
     style="fill:none;stroke:#000000;stroke-width:2;stroke-linecap:butt;stroke-linejoin:miter;stroke-miterlimit:4;stroke-opacity:1;stroke-dasharray:none;marker-end:url(#TriangleOutL-6)"
     d="M 154.8874,382.94045 17.23598,551.41667"
     id="path5768-5-5"
     inkscape:connector-curvature="0"
     sodipodi:nodetypes="cc" />
</svg>
